<svg width="60" height="60" viewBox="0 0 60 60" fill="none" xmlns="http://www.w3.org/2000/svg">
<path d="M0 16C0 8.45753 0 4.68629 2.34315 2.34315C4.68629 0 8.45753 0 16 0H44C51.5425 0 55.3137 0 57.6569 2.34315C60 4.68629 60 8.45753 60 16V44C60 51.5425 60 55.3137 57.6569 57.6569C55.3137 60 51.5425 60 44 60H16C8.45753 60 4.68629 60 2.34315 57.6569C0 55.3137 0 51.5425 0 44V16Z" fill="#212121"/>
<g clip-path="url(#clip0_179_1375)">
<path d="M26.8854 44.7059C26.7952 44.7095 26.7042 44.7168 26.614 44.7168C22.4598 44.7168 18.3056 44.7141 14.1514 44.7241C13.8701 44.7241 13.7927 44.664 13.8081 44.3735C13.9903 41.0206 14.1615 37.6669 14.3299 34.3122C14.4556 31.819 14.5712 29.3257 14.6942 26.8334C14.7543 25.6095 14.8262 24.3866 14.8827 23.1627C14.8909 22.9797 14.9337 22.9096 15.1322 22.9114C16.3242 22.9223 17.5152 22.9205 18.7072 22.9223C18.8274 23.037 18.8156 23.1891 18.8165 23.3339C18.8192 23.9877 18.8247 24.6406 18.8156 25.2944C18.8156 25.9364 18.822 26.5784 18.8183 27.2204C18.8183 27.3442 18.8165 27.4681 18.7837 27.5892C18.6617 27.8733 18.3858 27.988 18.1481 28.1292C17.8267 28.3195 17.7083 28.5663 17.7156 28.9387C17.7356 30.0159 17.721 31.0941 17.7238 32.1723C17.7247 32.5993 17.7474 32.6221 18.159 32.623C18.9076 32.6258 19.657 32.6176 20.4055 32.6276C20.6787 32.6312 20.7934 32.5356 20.7916 32.2533C20.7843 31.0959 20.7861 29.9385 20.7907 28.7812C20.7916 28.528 20.6878 28.3595 20.4856 28.2139C20.2225 28.0244 19.8937 27.9124 19.7307 27.5983C19.6488 26.9344 19.7071 26.2679 19.6971 25.6022C19.6952 25.5011 19.7053 25.3992 19.6971 25.2981C19.6861 24.6306 19.6925 23.9631 19.6943 23.2957C19.6943 23.16 19.6943 23.0225 19.7799 22.9041C19.8928 22.8085 20.0312 22.8076 20.1669 22.8076C20.767 22.8076 21.3671 22.7939 21.9672 22.813C22.3396 22.8021 22.7121 22.8021 23.0854 22.813C24.4158 22.793 25.7453 22.8067 27.0757 22.8057C27.1886 22.8057 27.3015 22.8121 27.4044 22.8668C27.5511 22.9806 27.531 23.1472 27.5338 23.302C27.5401 23.8101 27.5347 24.3192 27.5374 24.8273C27.5374 24.9511 27.5347 25.0768 27.5738 25.197C27.6412 25.4028 27.7823 25.5212 28.0018 25.5121C28.2067 25.5039 28.3314 25.3791 28.3888 25.187C28.4252 25.0668 28.4216 24.9411 28.4216 24.8164C28.4234 24.3192 28.4189 23.822 28.4243 23.3248C28.4261 23.1691 28.407 23.0043 28.5327 22.8768C28.7103 22.7766 28.906 22.8039 29.0954 22.8048C29.6254 22.8057 30.1554 22.7921 30.6854 22.8121C30.883 22.8121 31.0851 22.7784 31.2682 22.8877C31.423 23.038 31.4166 23.2346 31.4239 23.4277C31.4913 25.1843 31.5778 26.939 31.6861 28.6928C31.7162 29.1791 31.6934 29.6681 31.7581 30.1544C31.7763 30.2882 31.7663 30.4275 31.6834 30.5477C31.5386 30.6679 31.3629 30.6461 31.1953 30.647C30.333 30.6506 29.4706 30.647 28.6092 30.6488C28.1065 30.6488 28.0765 30.6607 28.0391 31.1442C27.9645 32.1158 27.8898 33.0874 27.8142 34.059C27.7304 35.1436 27.6448 36.2272 27.5638 37.3117C27.4873 38.3289 27.4099 39.3451 27.3325 40.3623C27.2542 41.4013 27.1823 42.4412 27.0876 43.4793C27.0712 43.6605 27.0721 43.8417 27.0566 44.022C27.0366 44.257 27.0448 44.501 26.8872 44.7022L26.8854 44.7059Z" fill="#FE7185"/>
<path d="M26.8855 44.7059C26.972 43.6578 27.0612 42.6106 27.1432 41.5616C27.1987 40.8513 27.2406 40.1392 27.2962 39.428C27.3781 38.368 27.4701 37.309 27.5521 36.25C27.6076 35.5279 27.6495 34.8048 27.705 34.0827C27.7915 32.9663 27.889 31.8508 27.9709 30.7344C27.9891 30.4904 28.1521 30.5468 28.2878 30.5468C29.3214 30.5441 30.354 30.5459 31.3875 30.5441C31.4777 30.5441 31.5687 30.535 31.6589 30.5295C31.8374 30.3984 32.0441 30.4403 32.2417 30.4394C32.5868 30.4366 32.9328 30.4275 33.278 30.4448C33.6586 30.4357 34.0392 30.433 34.4199 30.4476C34.745 30.4385 35.07 30.4403 35.3951 30.4476C35.6046 30.4521 35.7949 30.413 35.9661 30.2928C35.9734 30.5122 36.0963 30.5514 36.2966 30.5505C37.5214 30.545 38.7462 30.5541 39.9709 30.5578C40.1048 30.6206 40.1266 30.7444 40.1339 30.871C40.1904 31.7871 40.2742 32.7004 40.3425 33.6156C40.4235 34.7001 40.5118 35.7837 40.592 36.8683C40.6685 37.8964 40.7468 38.9244 40.8251 39.9516C40.9034 40.9797 40.9744 42.0077 41.0673 43.034C41.1074 43.4738 41.0855 43.9182 41.1529 44.3571C41.172 44.4791 41.1547 44.6075 41.0573 44.7059C40.7286 44.7095 40.4007 44.7168 40.072 44.7168C35.8113 44.7168 31.5514 44.7168 27.2907 44.7168C27.155 44.7168 27.0193 44.7095 26.8837 44.7059H26.8855Z" fill="#FEDC40"/>
<path d="M41.0582 44.7059C40.9853 43.5139 40.9097 42.3228 40.8005 41.1327C40.7404 40.4825 40.7012 39.8296 40.6529 39.1776C40.5692 38.0548 40.4981 36.9302 40.3861 35.8092C40.3142 35.0917 40.2905 34.3696 40.2413 33.6493C40.174 32.6713 40.0583 31.696 40.031 30.7153C40.0292 30.6625 39.9918 30.6106 39.9718 30.5578C41.3459 30.5541 42.72 30.5541 44.0932 30.5414C44.2945 30.5395 44.3327 30.6179 44.3455 30.7963C44.4474 32.165 44.5604 33.5336 44.6678 34.9014C44.8217 36.8692 44.972 38.837 45.1268 40.8048C45.2196 41.9923 45.3116 43.1797 45.42 44.3653C45.4455 44.6494 45.369 44.7296 45.0785 44.725C43.739 44.705 42.3986 44.7104 41.0591 44.7059H41.0582Z" fill="#FEDC40"/>
<path d="M41.0582 44.7059C40.9853 43.5139 40.9097 42.3228 40.8005 41.1327C40.7404 40.4825 40.7012 39.8296 40.6529 39.1776C40.5692 38.0548 40.4981 36.9302 40.3861 35.8092C40.3142 35.0917 40.2905 34.3696 40.2413 33.6493C40.174 32.6713 40.0583 31.696 40.031 30.7153C40.0292 30.6625 39.9918 30.6106 39.9718 30.5578C41.3459 30.5541 42.72 30.5541 44.0932 30.5414C44.2945 30.5395 44.3327 30.6179 44.3455 30.7963C44.4474 32.165 44.5604 33.5336 44.6678 34.9014C44.8217 36.8692 44.972 38.837 45.1268 40.8048C45.2196 41.9923 45.3116 43.1797 45.42 44.3653C45.4455 44.6494 45.369 44.7296 45.0785 44.725C43.739 44.705 42.3986 44.7104 41.0591 44.7059H41.0582Z" fill="#E5C63A"/>
<path d="M18.7201 25.2999C18.7155 24.5068 18.711 23.7136 18.7073 22.9214C18.7073 21.8669 18.7255 20.8115 18.7073 19.757C18.6654 17.3557 20.3273 15.3251 22.6166 14.837C23.3988 14.6704 24.1855 14.694 24.9586 14.9272C25.077 14.9627 25.199 14.9836 25.3202 15.0109C25.7673 15.0474 26.1005 15.3324 26.4639 15.5464C26.5977 15.6256 26.7243 15.7221 26.8427 15.8259C28.092 16.9177 28.6648 18.2982 28.6238 19.9519C28.6029 20.7897 28.6211 21.6283 28.6193 22.467C28.6193 22.6245 28.6375 22.7866 28.5255 22.9223C28.5255 23.6135 28.5255 24.3046 28.5219 24.9967C28.5191 25.3937 28.306 25.6396 27.9773 25.6396C27.6486 25.6396 27.4355 25.3928 27.4337 24.9967C27.43 24.3055 27.4309 23.6144 27.43 22.9223C27.318 22.7875 27.3381 22.6245 27.3381 22.4679C27.3362 21.5063 27.3727 20.5429 27.329 19.5831C27.2607 18.0851 26.5804 16.9551 25.1918 16.3022C24.7428 16.0354 24.2447 15.9571 23.7348 15.9252C21.5102 15.9306 19.8984 17.5488 19.8975 19.7798C19.8975 20.6758 19.8984 21.571 19.8966 22.467C19.8966 22.6245 19.9166 22.7875 19.8037 22.9223L19.79 25.3017C19.7299 25.5922 19.536 25.7188 19.2555 25.7188C18.9741 25.7188 18.7811 25.5922 18.721 25.3017L18.7201 25.2999Z" fill="#E8EDF1"/>
<path d="M33.2953 30.5332C32.7498 30.5332 32.2044 30.5313 31.6589 30.5304C31.6207 29.4577 31.5478 28.3878 31.5077 27.3151C31.4759 26.4473 31.4422 25.5767 31.3648 24.7135C31.312 24.1179 31.4003 23.5133 31.2473 22.9259C31.4231 22.7693 31.607 22.7921 31.7937 22.9032C32.157 22.9105 32.5194 22.9177 32.8828 22.9259C33.0485 23.2246 33.0348 23.5588 33.0512 23.8821C33.1286 25.3618 33.2242 26.8406 33.3089 28.3195C33.3426 28.9177 33.4173 29.5151 33.3954 30.1161C33.39 30.2618 33.4082 30.4139 33.2944 30.5332H33.2953Z" fill="#FE4155"/>
<path d="M35.967 30.2919C35.9606 30.4521 35.9242 30.5596 35.7175 30.5496C35.294 30.5304 34.8697 30.5368 34.4453 30.5332C34.2905 30.4157 34.2851 30.2454 34.2769 30.0742C34.184 28.1902 34.0765 26.307 33.9445 24.4248C33.9181 24.0414 33.9381 23.6563 33.8798 23.2738C33.8607 23.1509 33.8735 23.0234 33.9718 22.925C34.4481 22.9214 34.9243 22.9232 35.4006 22.9105C35.5645 22.9059 35.6091 22.9624 35.6173 23.1217C35.7011 24.8665 35.793 26.6103 35.8804 28.3541C35.9123 28.9997 35.9387 29.6453 35.9679 30.291L35.967 30.2919Z" fill="#FE4155"/>
<path d="M31.7946 22.9032C31.6125 22.9105 31.4304 22.9187 31.2482 22.9259C31.0652 22.9187 30.8822 22.9105 30.7001 22.9032C30.5808 22.7702 30.6081 22.6054 30.6081 22.4497C30.6054 21.5664 30.6072 20.6831 30.6063 19.8007C30.6063 17.6881 29.2431 16.1647 27.1423 15.9316C27.0066 15.9161 26.8709 15.9106 26.7526 15.8314C26.2936 15.5254 25.8201 15.2422 25.3184 15.0109C26.7116 14.5228 28.0593 14.6658 29.3223 15.3916C30.5671 16.1064 31.3639 17.1864 31.6762 18.6006C31.7418 18.8965 31.7919 19.197 31.7919 19.503C31.791 20.6367 31.7919 21.7695 31.7937 22.9032H31.7946Z" fill="#E8EDF1"/>
<path d="M33.9718 22.9259C34.062 24.3055 34.1622 25.6851 34.2359 27.0656C34.2614 27.5373 34.2951 28.0108 34.3042 28.4816C34.3151 29.068 34.4244 29.649 34.3871 30.2372C34.3807 30.3347 34.4253 30.4348 34.4463 30.5332C34.0629 30.5332 33.6795 30.5332 33.2962 30.5332C33.3208 29.4122 33.1914 28.2985 33.1423 27.1812C33.0913 26.0439 32.9938 24.9074 32.9465 23.7683C32.9347 23.4878 32.86 23.2101 32.8846 22.9259C33.2479 22.9259 33.6103 22.9259 33.9737 22.9259H33.9718Z" fill="#CB3444"/>
<path d="M19.7936 27.6092C20.0814 27.8095 20.3628 28.019 20.6587 28.2066C20.8181 28.3076 20.8946 28.4206 20.8937 28.6172C20.8864 29.8875 20.8836 31.1588 20.8955 32.4291C20.8973 32.6749 20.8135 32.7332 20.5822 32.7305C19.6971 32.7186 18.812 32.715 17.9278 32.7323C17.6564 32.7378 17.6127 32.6349 17.6146 32.3954C17.6246 31.1478 17.6228 29.8994 17.6155 28.6519C17.6146 28.4488 17.6719 28.3167 17.8504 28.2066C18.1482 28.0235 18.4277 27.8104 18.7155 27.6101C19.1171 27.1284 19.3893 27.1284 19.7946 27.6092H19.7936Z" fill="#FEDC40"/>
<path d="M21.9772 22.9032C21.9772 21.8951 21.99 20.8862 21.9772 19.8781C21.9581 18.3766 22.4353 17.0871 23.5535 16.0572C23.6273 15.9889 23.6864 15.9042 23.752 15.8278C24.2483 15.8906 24.7646 15.8851 25.1798 16.2339C23.762 17.0061 23.0645 18.2017 23.07 19.8135C23.0736 20.8434 23.0718 21.8724 23.0727 22.9023C22.7075 22.9023 22.3424 22.9023 21.9781 22.9023L21.9772 22.9032Z" fill="#E8EDF1"/>
<path d="M19.7937 27.6092C19.434 27.2777 19.0743 27.2832 18.7146 27.6101C18.7164 26.8397 18.7173 26.0703 18.7192 25.2999C19.0752 25.7707 19.4322 25.7707 19.7882 25.2999C19.79 26.0694 19.7918 26.8388 19.7937 27.6083V27.6092Z" fill="#E8EDF1"/>
<path d="M30.7019 36.1061C30.7019 35.3794 30.7 34.6537 30.7019 33.927C30.7037 33.5218 30.904 33.2796 31.2337 33.2714C31.5751 33.2632 31.79 33.5145 31.7909 33.9361C31.7928 35.3211 31.791 36.7053 31.7919 38.0903C31.7937 39.1038 32.4912 39.8059 33.4974 39.8105C33.8152 39.8123 34.133 39.8123 34.4508 39.8105C35.4416 39.805 36.1491 39.1047 36.1519 38.1194C36.1555 36.7235 36.1555 35.3275 36.1509 33.9316C36.1509 33.6875 36.2028 33.4808 36.4232 33.3479C36.7492 33.1512 37.2255 33.346 37.2255 33.7276C37.2246 35.4168 37.3757 37.1132 37.1544 38.7915C37.0069 39.9088 35.9342 40.8003 34.7705 40.8831C34.1522 40.9269 33.5229 40.9596 32.9037 40.8403C31.6443 40.599 30.7183 39.4972 30.7046 38.216C30.6973 37.5121 30.7028 36.8082 30.7028 36.1052L30.7019 36.1061Z" fill="#E8EDF1"/>
</g>
<defs>
<clipPath id="clip0_179_1375">
<rect width="31.6191" height="30" fill="white" transform="translate(13.8054 14.725)"/>
</clipPath>
</defs>
</svg>
