<svg width="36" height="36" viewBox="0 0 36 36" fill="none" xmlns="http://www.w3.org/2000/svg">
<circle cx="18" cy="18" r="18" fill="white"/>
<path d="M15.4937 18.8333H17.9937H20.4937" stroke="#FF0000" stroke-width="1.16667" stroke-linecap="round" stroke-linejoin="round"/>
<path d="M10.5326 11.5783C10.512 11.4239 10.5659 11.2695 10.6927 11.1792C11.2726 10.7663 13.2618 9.66669 17.9999 9.66669C22.7381 9.66669 24.7273 10.7663 25.3072 11.1792C25.434 11.2695 25.4879 11.4239 25.4673 11.5783L24.0513 22.1982C23.9139 23.2287 23.3036 24.136 22.401 24.6518L22.1344 24.8041C19.5725 26.2681 16.4274 26.2681 13.8654 24.8041L13.5989 24.6518C12.6963 24.136 12.086 23.2287 11.9486 22.1982L10.5326 11.5783Z" stroke="#FF0000" stroke-width="1.16667"/>
<path d="M10.5 12.1667C12.6429 14.3889 23.3572 14.3889 25.5 12.1667" stroke="#FF0000" stroke-width="1.16667"/>
</svg>
