<svg width="24" height="24" viewBox="0 0 24 24" fill="none" xmlns="http://www.w3.org/2000/svg">
<rect width="24" height="24" fill="#1E1E1E"/>
<g id="Ellipse 4" filter="url(#filter0_f_173_925)">
<circle cx="371" cy="632" r="156" fill="#EEC584" fill-opacity="0.7"/>
</g>
<g id="eye_closed">
<path id="Vector" d="M8.05195 5.837C9.29471 5.28429 10.6398 4.99912 11.9999 5C14.9549 5 17.3089 6.315 19.0599 7.864C20.8159 9.417 21.9259 11.171 22.3669 11.944C22.3775 11.9604 22.3831 11.9795 22.3829 11.999C22.3838 12.0203 22.3779 12.0413 22.3659 12.059C21.9154 12.8377 21.4038 13.5793 20.8359 14.277C20.7699 14.3529 20.7198 14.4413 20.6886 14.5369C20.6574 14.6326 20.6458 14.7335 20.6544 14.8337C20.663 14.934 20.6917 15.0314 20.7388 15.1203C20.7858 15.2093 20.8503 15.2878 20.9284 15.3513C21.0064 15.4148 21.0964 15.4619 21.1931 15.4899C21.2897 15.5178 21.391 15.5261 21.4909 15.5141C21.5907 15.5022 21.6872 15.4702 21.7745 15.4202C21.8618 15.3702 21.9381 15.3031 21.9989 15.223C22.6207 14.4632 23.1792 13.6539 23.6689 12.803C23.8089 12.5593 23.8827 12.2832 23.8828 12.0021C23.883 11.7211 23.8096 11.4449 23.6699 11.201C23.1849 10.351 21.9799 8.444 20.0539 6.741C18.1239 5.034 15.4319 3.5 11.9999 3.5C10.3049 3.5 8.78495 3.874 7.44795 4.463C7.26686 4.54373 7.12511 4.69289 7.05369 4.87785C6.98227 5.06281 6.987 5.26853 7.06683 5.45001C7.14667 5.6315 7.29512 5.77398 7.47973 5.84632C7.66433 5.91865 7.87007 5.91594 8.05195 5.837ZM19.1659 17.987C17.3279 19.38 14.9329 20.5 11.9999 20.5C8.56795 20.5 5.87495 18.966 3.94595 17.26C2.01995 15.556 0.813949 13.648 0.329949 12.798C0.189671 12.5547 0.115914 12.2787 0.116089 11.9979C0.116265 11.717 0.190367 11.4411 0.330949 11.198C1.22579 9.64725 2.34337 8.23622 3.64795 7.01L1.31695 5.362C1.23343 5.30645 1.1619 5.2347 1.10659 5.15102C1.05129 5.06733 1.01333 4.9734 0.994975 4.87478C0.976617 4.77617 0.978227 4.67487 0.999711 4.57689C1.0212 4.4789 1.06212 4.38623 1.12005 4.30434C1.17799 4.22245 1.25176 4.15302 1.33701 4.10015C1.42226 4.04728 1.51724 4.01205 1.61635 3.99654C1.71545 3.98103 1.81666 3.98556 1.91398 4.00985C2.0113 4.03415 2.10276 4.07773 2.18295 4.138L22.6829 18.638C22.7665 18.6936 22.838 18.7653 22.8933 18.849C22.9486 18.9327 22.9866 19.0266 23.0049 19.1252C23.0233 19.2238 23.0217 19.3251 23.0002 19.4231C22.9787 19.5211 22.9378 19.6138 22.8798 19.6957C22.8219 19.7775 22.7481 19.847 22.6629 19.8999C22.5776 19.9527 22.4827 19.988 22.3836 20.0035C22.2844 20.019 22.1832 20.0144 22.0859 19.9901C21.9886 19.9658 21.8971 19.9223 21.8169 19.862L19.1659 17.987ZM4.90195 7.898C3.17195 9.439 2.07395 11.171 1.63395 11.942C1.62224 11.9594 1.61629 11.98 1.61695 12.001C1.61562 12.0163 1.62095 12.0347 1.63295 12.056C2.07395 12.83 3.18395 14.583 4.93995 16.136C6.68995 17.685 9.04495 19 11.9999 19C14.3339 19 16.2899 18.18 17.8739 17.073L14.3579 14.586C13.7683 15.1243 13.0124 15.4448 12.2155 15.4944C11.4187 15.544 10.6288 15.3197 9.97701 14.8586C9.3252 14.3976 8.8506 13.7275 8.63196 12.9597C8.41331 12.1918 8.46377 11.3722 8.77495 10.637L4.90195 7.899V7.898Z" fill="#797A7C"/>
</g>
<defs>
<filter id="filter0_f_173_925" x="-285" y="-24" width="1312" height="1312" filterUnits="userSpaceOnUse" color-interpolation-filters="sRGB">
<feFlood flood-opacity="0" result="BackgroundImageFix"/>
<feBlend mode="normal" in="SourceGraphic" in2="BackgroundImageFix" result="shape"/>
<feGaussianBlur stdDeviation="250" result="effect1_foregroundBlur_173_925"/>
</filter>
</defs>
</svg>
