<svg width="139" height="52" viewBox="0 0 139 52" fill="none" xmlns="http://www.w3.org/2000/svg">
<path d="M11.7704 44.7003C13.6424 44.6089 15.5378 44.213 17.3531 45.0685C15.9234 43.8948 14.2584 43.4205 12.5015 43.1945C11.0835 43.0126 9.65379 42.9177 8.25582 42.5891C6.4397 42.1631 4.7663 41.4309 3.41923 40.0606C1.639 38.2496 1.0097 35.9634 0.933754 33.4599C0.930415 33.3348 0.990507 33.1891 0.849458 33.0442C0.718423 33.6341 0.657497 34.186 0.629954 34.744C0.407947 39.1922 2.62718 42.6659 6.58993 44.0983C8.27585 44.708 10.0093 44.7865 11.7704 44.7003Z" fill="url(#paint0_linear_196_1734)"/>
<path d="M6.81277 26.0226C8.69315 26.4512 10.3198 25.8484 11.7762 24.6393C12.519 24.0236 13.1358 23.2914 13.594 22.4213C13.1517 22.9008 12.6935 23.3587 12.1768 23.7485C11.0484 24.5988 9.83657 25.2439 8.40354 25.2913C7.37864 25.3258 6.43886 25.0981 5.74947 24.2306C5.16524 23.495 5.22116 22.5368 5.87133 21.9547C6.29865 21.5727 6.9847 21.5106 7.37446 21.8374C7.62234 22.0444 7.76339 22.3187 7.55975 22.6274C7.37029 22.9146 7.11406 22.8516 6.86785 22.6783C6.83614 22.6559 6.79023 22.5817 6.74016 22.6809C6.92628 23.363 7.47211 23.5752 8.05634 23.695C10.1429 24.1228 12.6033 22.8758 13.7259 20.8405C13.6891 20.7991 13.6524 20.7577 13.6157 20.7172C13.4521 20.9285 13.3086 21.1622 13.1199 21.3476C11.9506 22.4972 10.551 23.0638 8.93853 23.0896C8.70567 23.0931 8.62889 23.0517 8.66811 22.78C8.80666 21.8271 8.32092 21.0216 7.44207 20.6913C6.0057 20.1506 4.37987 21.3347 4.32646 22.9603C4.27805 24.4169 5.28209 25.6734 6.81277 26.0226Z" fill="url(#paint1_linear_196_1734)"/>
<path d="M18.8479 16.4561C20.1666 16.4803 21.2516 15.9361 22.1722 14.9935C22.824 14.4157 23.1937 13.6603 23.465 12.8375C23.5443 12.5969 23.4625 12.5305 23.2421 12.5305C21.1648 12.5305 19.0883 12.5262 17.0117 12.5228H14.003C14.0731 12.7332 14.1156 12.8824 14.1716 13.0264C14.9661 15.0547 16.9483 16.5079 18.8479 16.4561Z" fill="url(#paint2_linear_196_1734)"/>
<path d="M6.15927 29.9974C5.45736 30.7563 4.78549 31.8895 4.49505 32.7889C4.2238 33.6323 4.12114 34.5025 4.28472 35.3752C4.71956 37.7028 6.23438 39.0732 8.21742 40.0097C9.65045 40.7462 11.182 41.1774 12.7285 41.5586C12.7611 41.5767 12.7919 41.5862 12.8212 41.5888C13.3945 41.7742 13.9712 41.9501 14.538 42.151C16.1805 42.7357 17.7187 43.4826 18.6968 45.078C18.7586 45.1944 18.7678 45.3522 18.9464 45.4143C19.695 43.9983 20.9119 43.1704 22.299 42.5538C23.152 42.1752 24.0517 41.9389 24.9272 41.6302C25.7318 41.4706 26.5071 41.199 27.2817 40.9342C28.5736 40.4918 29.8431 39.989 30.9314 39.1077C34.4401 36.6861 34.0579 32.7027 31.7427 30.1474C31.716 30.3234 31.8153 30.4519 31.8729 30.5907C32.4179 31.9007 32.6783 33.24 32.2768 34.6491C32.0239 35.5365 31.4981 36.2557 30.9339 36.9491C30.8279 37.0466 30.7211 37.144 30.6151 37.2415C30.5291 37.3268 30.4423 37.4131 30.3564 37.4984C29.5602 38.0952 28.7139 38.6049 27.7966 38.9749C26.9244 39.3267 26.0406 39.6501 25.1617 39.9856C24.1953 40.2943 23.2405 40.6367 22.3316 41.0981C20.846 41.8518 19.6157 42.8754 18.9823 44.5209C18.9556 44.5916 18.9097 44.6408 18.832 44.6485C18.6668 43.9112 18.2612 43.3144 17.7662 42.784C16.5368 41.4672 14.9778 40.7393 13.3269 40.1865C12.3037 39.7941 11.2729 39.4207 10.2597 39.0025C9.62625 38.7411 9.01949 38.4109 8.4002 38.1116C8.09974 37.8624 7.79427 37.6175 7.49799 37.3622C5.87967 35.9677 5.11767 34.2403 5.54583 32.0387C5.67769 31.3608 5.93309 30.7235 6.15927 29.9974Z" fill="url(#paint3_linear_196_1734)"/>
<path d="M36.6811 32.9252C36.7019 33.1261 36.7211 33.2814 36.7337 33.4366C36.9298 35.9401 36.278 38.1478 34.5912 39.9942C34.0813 40.553 33.4419 40.9368 32.8368 41.3671C31.7009 41.9346 30.5266 42.3891 29.2856 42.6383C28.4468 42.8065 27.6005 42.9384 26.7575 43.0867C24.5733 43.3463 22.3708 43.5438 20.5488 45.0435C21.3951 44.6899 22.2723 44.5243 23.182 44.5399C23.9324 44.5537 24.6818 44.5675 25.4322 44.5813C26.2601 44.6968 27.093 44.6701 27.9226 44.6442C28.9534 44.6123 29.9616 44.426 30.9281 44.0397C31.1251 43.9647 31.322 43.8888 31.519 43.8129C31.751 43.743 31.9722 43.6482 32.1767 43.5145C34.4794 42.4261 36.0943 40.7048 36.8513 38.1668C37.363 36.4532 37.176 33.7565 36.6811 32.9252Z" fill="url(#paint4_linear_196_1734)"/>
<path d="M19.4947 40.0434C20.3076 39.9795 21.1264 39.9666 21.9168 39.7243C23.0493 39.5423 24.1327 39.1939 25.1709 38.692C25.5632 38.5419 25.9496 38.3798 26.286 38.1142C26.7208 37.921 27.1047 37.6451 27.4661 37.3337C28.5386 36.5688 29.364 35.5891 29.8848 34.3473C30.7078 32.3845 30.2412 29.9612 28.7823 28.6167C28.3834 28.107 27.8542 27.769 27.3184 27.4438C26.5222 26.9609 25.7134 26.4978 25.0115 25.8683C24.363 25.1171 23.7955 24.3108 23.3857 23.3906C23.1002 22.7507 22.8532 22.0953 22.7505 21.3994C22.6863 20.9664 22.4125 21.0147 22.1413 21.0406C21.774 21.0751 21.9877 21.3407 22.0102 21.4934C22.097 22.0884 22.2481 22.6705 22.4334 23.2406C22.9133 24.7109 23.5802 26.0632 24.7536 27.0885C24.9689 27.3533 25.2335 27.562 25.5181 27.7336C26.2317 28.1657 26.9545 28.5805 27.6731 29.003C28.9926 30.012 29.5752 31.8507 29.132 33.4866C28.8449 34.5448 28.1764 35.3106 27.4327 36.0332C27.0129 36.3135 26.5931 36.5938 26.1733 36.8749C25.9922 36.906 25.8453 37.0673 25.6266 37.0517C25.6842 36.956 25.7276 36.8853 25.7702 36.8146C25.8228 36.7654 25.8762 36.7163 25.9296 36.6671C26.1132 36.6637 26.2326 36.5326 26.3586 36.4256C27.0705 35.8159 27.6773 35.1131 28.0954 34.255C28.506 33.4099 28.6646 32.519 28.4451 31.5876C28.0946 30.0957 27.0638 29.2635 25.771 28.6943C24.8563 28.107 24.0434 27.3964 23.3398 26.553C23.3339 26.5254 23.3356 26.4918 23.3214 26.4702C22.2323 24.93 21.6096 23.2026 21.3935 21.3148C21.3693 21.0992 21.2766 21.0268 21.0705 21.032C20.6265 21.0432 20.1808 21.0509 19.7368 21.0277C19.4321 21.0121 19.3228 21.1079 19.3295 21.4373C19.3503 22.4558 19.3078 23.4768 19.3503 24.4936C19.4647 27.1739 20.4896 29.367 22.6696 30.9141C23.6511 31.6558 24.7311 32.1723 25.9221 32.4336C26.0356 32.5397 26.2259 32.4647 26.3377 32.638C25.9697 32.7631 25.6108 32.8855 25.2519 33.008C24.0701 33.3736 23.0043 33.9566 22.092 34.8233C21.4327 35.3364 20.9111 35.9781 20.4595 36.6852C19.882 37.5916 19.4864 38.5756 19.2794 39.6389C19.246 39.8122 19.1408 40.071 19.4947 40.0434Z" fill="url(#paint5_linear_196_1734)"/>
<path d="M27.4761 45.9939C26.3711 45.7826 25.2702 45.5428 24.1702 45.3057C23.1854 45.0935 22.2005 44.9607 21.1815 45.1746C24.6 47.3668 28.077 47.7919 31.6525 45.6713C31.5624 45.6696 31.4764 45.698 31.3896 45.7231C30.1043 46.1068 28.7998 46.2474 27.4761 45.9939Z" fill="url(#paint6_linear_196_1734)"/>
<path d="M16.2773 45.0952C15.3066 44.9538 14.3669 45.1625 13.4388 45.4057C11.0067 46.0439 8.57714 46.4742 6.11587 45.5506C9.1355 47.5203 12.7177 47.6117 16.7155 45.1677C16.5477 45.1401 16.4133 45.1151 16.2773 45.0952Z" fill="url(#paint7_linear_196_1734)"/>
<path d="M14.8459 10.7678C15.4427 10.7497 16.0403 10.7626 16.637 10.7626V10.7652C17.2488 10.7652 17.8597 10.7575 18.4706 10.7695C18.6876 10.7738 18.7611 10.7014 18.7586 10.4755C18.7519 9.75795 18.7561 9.04043 18.7694 8.32379C18.7736 8.1056 18.6902 8.05559 18.499 8.06852C16.8315 8.18322 15.5336 8.93177 14.6631 10.428C14.5246 10.666 14.5263 10.7773 14.8459 10.7678Z" fill="url(#paint8_linear_196_1734)"/>
<path d="M19.0757 8.42555C19.0949 9.08614 19.1016 9.7476 19.0858 10.4073C19.0782 10.71 19.2059 10.7669 19.4588 10.7618C20.0431 10.7488 20.6273 10.7575 21.2107 10.7575V10.7523C21.7807 10.7523 22.3516 10.7566 22.9216 10.7497C23.0377 10.748 23.1996 10.8195 23.2605 10.6747C23.3122 10.5496 23.1979 10.4323 23.1311 10.328C22.2531 8.9473 21.0062 8.22548 19.4188 8.10216C19.1701 8.08318 19.0682 8.14959 19.0757 8.42555Z" fill="url(#paint9_linear_196_1734)"/>
<path d="M22.3591 47.1279C21.83 46.7355 21.2224 46.6544 20.5981 46.8614H20.5972C20.5714 46.8623 20.5405 46.8726 20.5021 46.8951C19.7818 47.0856 19.3261 47.572 19.0457 48.2654C18.9981 48.3827 19.0432 48.5698 18.8462 48.594C18.8487 48.4163 18.7861 48.2568 18.716 48.1007C18.1118 46.7657 16.4334 46.3328 15.3008 47.2624C14.7833 47.6876 14.2475 47.8635 13.6074 47.7557C13.5247 47.7419 13.4371 47.6712 13.3161 47.7566C13.8285 48.349 14.351 48.8898 14.9995 49.2942C16.1788 50.0298 17.5075 50.5171 18.509 51.5476C18.6067 51.6684 18.7077 51.7848 18.7995 51.9098C18.8729 52.0082 18.9305 52.0452 19.019 51.9219C19.6399 51.0587 20.5455 50.5852 21.4177 50.0669C21.9476 49.778 22.5043 49.5391 23.0051 49.1933C23.5276 48.8337 23.9541 48.3827 24.3413 47.7428C23.51 47.9101 22.9367 47.5556 22.3591 47.1279Z" fill="url(#paint10_linear_196_1734)"/>
<path d="M12.7277 11.9312C12.7043 12.1511 12.7911 12.2287 13.0089 12.2278C14.4879 12.2192 15.9668 12.2218 17.4449 12.2201C17.5835 12.227 17.7212 12.2399 17.8597 12.2399C20.0264 12.2313 22.1922 12.2261 24.3588 12.2097C25.2302 12.2037 25.0633 12.3762 25.1067 11.3853C25.1158 11.1826 25.0324 11.1007 24.8387 11.1033C23.8673 11.1136 22.8958 11.1197 21.9251 11.1274C20.8309 11.1145 19.7376 11.0998 18.6434 11.0869C18.5867 11.0826 18.5224 11.0809 18.4489 11.0809H18.1485C17.258 11.0714 16.3666 11.0627 15.4761 11.0584C14.5805 11.0541 13.6841 10.9972 12.7894 11.0878H12.7794C12.6659 11.3637 12.7569 11.6509 12.7277 11.9312Z" fill="url(#paint11_linear_196_1734)"/>
<path d="M14.3084 20.4223C15.1272 20.4093 15.9459 20.4136 16.7647 20.4119H16.7655C17.5417 20.4171 18.3162 20.4274 19.0924 20.4266C20.5205 20.4248 21.9493 20.4093 23.3773 20.4171C23.6636 20.4188 23.7579 20.3386 23.7579 20.0333C23.7579 19.0476 23.7696 19.0467 22.7981 19.0364C22.6746 19.0355 22.5502 19.0493 22.4259 19.0562C21.4811 19.0166 20.5363 18.9786 19.5907 19.0459C18.0642 19.0321 16.5377 19.02 15.0112 19.0062C13.9579 18.9959 13.9654 18.9941 13.998 20.1032C14.0055 20.3455 14.0731 20.4266 14.3084 20.4223Z" fill="url(#paint12_linear_196_1734)"/>
<path d="M12.4097 26.1985C11.1603 27.0161 9.88331 27.7991 8.84839 28.9159C7.46711 30.4079 7.13076 32.488 7.95202 34.368C8.61136 35.8763 9.72557 36.9353 11.081 37.758C12.5015 38.7101 14.053 39.3233 15.7089 39.6682C15.7289 39.6743 15.7498 39.6803 15.7698 39.6855H15.7707C16.6328 39.9338 17.5217 39.9744 18.4072 40.0442C18.5816 40.058 18.6242 39.9985 18.5908 39.8235C18.3471 38.5333 17.8989 37.3398 17.076 36.3178C17.0209 36.2212 16.9775 36.1143 16.9091 36.0289C16.0569 34.9699 15.0496 34.1144 13.8244 33.5504C12.9655 33.2106 12.1318 32.7958 11.2062 32.6165C12.6884 32.3077 14.0914 31.8308 15.2499 30.7822C15.4585 30.6011 15.6822 30.4355 15.8742 30.2371C18.2862 27.7491 18.6885 24.6221 18.5266 21.3157C18.5157 21.0932 18.4164 21.0311 18.2094 21.0354C17.7654 21.0449 17.318 21.0561 16.8757 21.0156C16.5185 20.9837 16.4008 21.1242 16.3449 21.4718C16.0378 23.3992 15.3834 25.1766 14.1499 26.6918C13.8477 26.9618 13.5623 27.2498 13.241 27.5008C12.4564 28.1131 11.5667 28.5598 10.7955 29.1928C9.01865 30.6502 8.70066 32.8372 9.98513 34.7578C10.6169 35.703 11.4457 36.4282 12.3479 37.0759C12.0867 37.088 11.8964 36.8836 11.656 36.831C11.2145 36.5619 10.7722 36.2946 10.3732 35.9574C7.84268 33.8152 7.97121 30.5157 10.657 28.596C11.3514 28.1001 12.1192 27.7207 12.7769 27.1662C13.0098 26.948 13.2902 26.7979 13.5155 26.5625C14.9302 25.0869 15.4869 23.2147 15.8466 21.2476C15.86 21.1717 15.9109 21.0915 15.7882 21.0397C15.5428 20.9371 15.254 21.0691 15.199 21.3467C14.8125 23.2983 13.8561 24.8981 12.4097 26.1985Z" fill="url(#paint13_linear_196_1734)"/>
<path d="M21.3334 33.3443C22.0945 32.8803 22.3566 32.6544 22.1221 32.3612C21.9994 32.2077 21.7398 32.0343 21.3451 31.7989C20.9236 31.3781 20.5029 30.9564 20.0815 30.5346C19.66 29.9819 19.2944 29.3885 18.9389 28.7426C18.57 29.2807 18.2378 29.7663 17.9056 30.2509C17.192 31.0736 16.4417 31.8507 15.5078 32.4147C15.2866 32.5483 15.5044 32.6242 15.5787 32.6777C16.6136 33.4133 17.525 34.2878 18.3596 35.2528C18.4932 35.4347 18.6284 35.615 18.7578 35.8004C18.8696 35.9599 18.9522 35.9505 19.0716 35.7944C19.3704 35.4002 19.6858 35.0199 19.9955 34.6344C20.4412 34.205 20.8877 33.7746 21.3334 33.3443ZM19.5849 33.616C19.5523 33.6332 19.5206 33.6505 19.488 33.6677C19.2694 33.7824 19.0482 33.8911 18.7928 33.8868C18.7803 33.8868 18.7678 33.8868 18.7553 33.8868C18.3071 33.8307 17.9265 33.4875 17.8105 33.0304C17.6636 32.4552 17.8839 32.0335 18.3363 31.7118H18.3371C18.3613 31.7015 18.3847 31.6928 18.4089 31.6842C18.7661 31.5609 19.1133 31.579 19.448 31.7411C19.4947 31.7627 19.5423 31.7886 19.589 31.817C20.1057 32.4785 20.1048 32.958 19.5849 33.6168V33.616Z" fill="url(#paint14_linear_196_1734)"/>
<path d="M13.1558 17.7316C13.1867 17.8265 13.2284 17.9196 13.2426 18.0171C13.2752 18.2395 13.4062 18.2758 13.5973 18.274C14.6807 18.2628 15.764 18.262 16.8473 18.2577C18.3755 18.2577 19.9045 18.2577 21.4327 18.2568C22.168 18.2637 22.9024 18.2913 23.6369 18.2715C24.6551 18.2439 24.3856 18.4327 24.6752 17.4142C24.7728 17.0701 24.6718 16.9951 24.3555 16.9968C22.8307 17.0081 21.305 17.0012 19.7793 17.0046C19.6566 17.0046 19.5348 17.0357 19.4121 17.052C18.6034 17.0589 17.7938 17.0658 16.9842 17.0719C15.8733 17.0641 14.7625 17.0546 13.6508 17.0477C13.1689 17.0443 13.0037 17.2722 13.155 17.7316H13.1558Z" fill="url(#paint15_linear_196_1734)"/>
<path d="M30.4123 27.7966C30.5124 27.9026 30.6443 27.8621 30.7595 27.8707C31.3696 27.9164 31.9747 28.0061 32.5589 28.1933C33.4728 28.4873 34.3099 28.8858 34.5303 29.9965C34.5361 30.1673 34.5378 30.3389 34.552 30.5088C34.5562 30.5571 34.5912 30.6381 34.6571 30.5717C34.6872 30.5424 34.6747 30.4665 34.6813 30.4122C34.6763 30.294 34.7298 30.1949 34.7648 30.0871C35.0327 29.2738 34.7757 28.3364 34.1547 27.8233C33.2091 27.042 31.4205 27.0264 30.4123 27.7966Z" fill="url(#paint16_linear_196_1734)"/>
<path d="M7.36528 27.6543C6.52399 27.4033 5.6827 27.2274 4.81387 27.3343C3.55277 27.4904 2.73735 28.8099 3.14548 30.0526C4.08776 28.3744 5.72944 28.0303 7.36528 27.6543Z" fill="url(#paint17_linear_196_1734)"/>
<path d="M17.1645 7.5761C17.3857 7.88828 17.6202 7.8857 17.954 7.7434C17.808 7.54074 17.6736 7.36309 17.5484 7.18026C17.1628 6.61626 16.7956 6.04794 16.7305 5.32871C16.6437 4.37577 17.1878 3.71173 17.6828 3.02095C17.7354 2.92609 17.7879 2.83036 17.8388 2.73378C17.9882 2.4535 18.1268 2.16805 18.2345 1.8688C18.2603 1.79722 18.2845 1.72564 18.3071 1.6532C18.3187 1.61439 18.3304 1.57472 18.3413 1.53505C18.373 1.57041 18.4047 1.60663 18.4364 1.64199C18.4164 1.69287 18.3964 1.74462 18.3772 1.7955C18.2002 2.25084 18.0283 2.70963 17.7637 3.12185C17.7379 3.18739 17.7237 3.25984 17.6861 3.31762C16.6737 4.89234 17.1678 6.28941 18.1593 7.62957C18.2144 7.70287 18.2637 7.76065 18.3613 7.73219C18.5917 7.73219 18.8245 7.75116 19.0524 7.72615C19.266 7.70287 19.5189 7.84775 19.6892 7.59593C20.7475 6.15057 21.0638 4.66208 19.9329 3.08994C19.7793 2.73291 19.6191 2.37847 19.4772 2.01541C19.4438 1.93003 19.2919 1.79981 19.5014 1.72219C19.6742 2.45264 20.1499 3.00284 20.5497 3.59875C21.275 4.68019 21.2775 5.66159 20.5563 6.74303C20.3368 7.0716 20.0981 7.38637 19.8611 7.71753C20.1833 7.89518 20.4195 7.85896 20.6415 7.57179C20.9461 7.17854 21.2357 6.78011 21.4494 6.32649C21.8533 5.471 21.8508 4.625 21.3 3.84885C20.8151 3.1667 20.2375 2.55871 19.7426 1.8826C19.6717 1.78601 19.6032 1.68856 19.5356 1.58852C19.5214 1.53678 19.4772 1.4928 19.443 1.44623C19.4421 1.44537 19.4413 1.4445 19.4405 1.44278C19.4355 1.43415 19.4296 1.42639 19.4246 1.41777C19.2293 1.41949 19.2594 1.25392 19.221 1.13318C19.1058 0.775289 19.0933 0.381176 18.8496 0C18.7436 0.41136 18.6468 0.767527 18.5616 1.12628C18.5274 1.27116 18.4606 1.37637 18.3279 1.43588C17.9524 1.9835 17.5876 2.53974 17.1403 3.03303C16.8657 3.33659 16.6245 3.67033 16.4192 4.02995C16.0161 4.73711 15.9802 5.45634 16.314 6.20576C16.5368 6.70595 16.8532 7.13628 17.1645 7.5761Z" fill="url(#paint18_linear_196_1734)"/>
<path d="M26.6807 23.1069C27.6414 23.6726 28.6446 23.9995 29.7613 23.695C30.2621 23.6097 30.6552 23.3363 30.9957 22.9594C31.1434 22.7964 31.1142 22.6955 30.9323 22.6041C30.671 22.4722 30.4148 22.329 30.1519 22.2014C29.9274 22.0927 29.9733 22.0065 30.1477 21.8901C30.767 21.4744 31.3546 21.5675 31.9263 21.9918C32.5456 22.8266 32.5347 23.683 31.8971 24.3867C31.5574 24.7609 31.1142 24.961 30.676 25.1706C30.5058 25.2197 30.3363 25.2542 30.1569 25.2689C29.4875 25.3206 28.8315 25.2404 28.1797 25.0973C26.8318 24.6428 25.6834 23.846 24.6284 22.8801C24.7903 23.2362 25.0349 23.5217 25.2869 23.7951C25.978 24.5462 26.7283 25.2172 27.6756 25.6078C28.683 26.1209 29.7304 26.3676 30.8521 26.1132C31.4614 26.0795 31.9697 25.7975 32.4245 25.4077C33.7633 24.2599 33.8033 22.1583 32.5147 21.1363C31.9722 20.6249 31.3254 20.5007 30.6276 20.6292C29.9541 20.7534 29.5193 21.2027 29.4341 21.8073C29.2914 21.9823 29.3598 22.1902 29.3507 22.3851C29.3206 22.981 29.0969 23.1905 28.5302 23.2164C27.9852 23.2423 27.5162 22.9655 27.0062 22.8585C25.9338 22.2566 24.9439 21.5287 24.0091 20.7163C24.686 21.7728 25.5874 22.5541 26.6807 23.1069Z" fill="url(#paint19_linear_196_1734)"/>
<path d="M53.7138 23.2426C53.309 24.2207 53.1066 25.3001 53.1066 26.4806C53.1066 27.6612 53.309 28.7405 53.7138 29.7187C54.1185 30.6968 54.7425 31.5064 55.5858 32.1472C56.4459 32.7712 57.4662 33.0832 58.6468 33.0832C59.8442 33.0832 60.8729 32.7712 61.733 32.1472C62.5931 31.5064 63.2171 30.6968 63.605 29.7187C64.0098 28.7405 64.2122 27.6612 64.2122 26.4806C64.2122 25.3001 64.0098 24.2207 63.605 23.2426C63.2171 22.2644 62.5931 21.4633 61.733 20.8393C60.8729 20.1985 59.8442 19.878 58.6468 19.878C57.4662 19.878 56.4459 20.1985 55.5858 20.8393C54.7425 21.4633 54.1185 22.2644 53.7138 23.2426ZM51.6647 29.6934C51.3611 28.6815 51.2094 27.6106 51.2094 26.4806C51.2094 25.3507 51.3611 24.2798 51.6647 23.2679C51.9851 22.256 52.4405 21.3537 53.0308 20.5611C53.6379 19.7684 54.4221 19.1444 55.3834 18.6891C56.3616 18.2168 57.4494 17.9807 58.6468 17.9807C59.861 17.9807 60.9488 18.2168 61.9101 18.6891C62.8714 19.1444 63.6556 19.7684 64.2628 20.5611C64.8699 21.3537 65.3252 22.256 65.6288 23.2679C65.9492 24.2798 66.1095 25.3507 66.1095 26.4806C66.1095 27.6106 65.9492 28.6815 65.6288 29.6934C65.3252 30.7053 64.8699 31.616 64.2628 32.4255C63.6725 33.2181 62.8883 33.8506 61.9101 34.3228C60.9488 34.7781 59.861 35.0058 58.6468 35.0058C57.4494 35.0058 56.3616 34.7781 55.3834 34.3228C54.4221 33.8506 53.6379 33.2181 53.0308 32.4255C52.4405 31.616 51.9851 30.7053 51.6647 29.6934Z" fill="#D1D1D1"/>
<path d="M80.3121 34.7022H78.6425C78.6425 34.7022 78.6341 33.5217 78.6172 31.1606C78.4823 31.6497 78.2968 32.1051 78.0607 32.5267C77.8245 32.9483 77.521 33.3531 77.15 33.741C76.7958 34.1288 76.3489 34.4408 75.8092 34.677C75.2695 34.8962 74.6792 35.0058 74.0384 35.0058C72.6217 35.0058 71.4665 34.483 70.5727 33.4374C69.6788 32.3918 69.2319 31.1269 69.2319 29.6428V20.7887H71.1292V29.3392C71.1292 30.4692 71.4496 31.3967 72.0905 32.1219C72.7314 32.8471 73.5493 33.2097 74.5443 33.2097C75.6068 33.2097 76.5091 32.8302 77.2511 32.0713C78.0101 31.2955 78.3895 30.3848 78.3895 29.3392V20.7887H80.3121V34.7022Z" fill="#D1D1D1"/>
<path d="M94.3776 27.7202C94.3776 26.2361 93.956 24.9797 93.1127 23.9509C92.2695 22.9221 91.1817 22.4078 89.8494 22.4078C88.5339 22.4078 87.4461 22.9221 86.586 23.9509C85.7259 24.9797 85.2959 26.2361 85.2959 27.7202C85.2959 29.2043 85.7259 30.4692 86.586 31.5148C87.4461 32.5604 88.5339 33.0832 89.8494 33.0832C91.1817 33.0832 92.2695 32.5688 93.1127 31.5401C93.956 30.4945 94.3776 29.2212 94.3776 27.7202ZM94.7571 34.7022L94.4788 30.8065C94.0909 32.1051 93.4585 33.1338 92.5815 33.8927C91.7214 34.6348 90.6673 35.0058 89.4193 35.0058C87.7497 35.0058 86.3331 34.2891 85.1694 32.8555C84.0057 31.422 83.4239 29.7102 83.4239 27.7202C83.4239 25.7301 84.0057 24.0352 85.1694 22.6354C86.3331 21.2188 87.7497 20.5105 89.4193 20.5105C90.8866 20.5105 92.0756 21.008 92.9863 22.003C93.9138 22.998 94.5125 24.3051 94.7824 25.9241L94.3776 20.7887V16.9941H96.3002V34.7022H94.7571Z" fill="#D1D1D1"/>
<path d="M101.861 34.7022H99.9642V18.259H102.367C102.367 18.259 104.863 22.8125 109.855 31.9195V18.259H111.778V34.7022H109.375C109.375 34.7022 106.87 30.1487 101.861 21.0417V34.7022Z" fill="#D1D1D1"/>
<path d="M125.472 26.7589C125.522 26.5228 125.539 26.2867 125.522 26.0506C125.505 25.0555 125.109 24.2039 124.333 23.4955C123.557 22.7704 122.554 22.4078 121.323 22.4078C120.125 22.4078 119.122 22.821 118.312 23.6473C117.503 24.4737 117.014 25.5109 116.845 26.7589H125.472ZM127.268 31.0341C126.795 32.2315 126.045 33.1928 125.016 33.918C124.004 34.6432 122.857 35.0058 121.576 35.0058C119.737 35.0058 118.161 34.2975 116.845 32.8808C115.547 31.4473 114.897 29.7355 114.897 27.7455C114.897 25.7048 115.488 23.9931 116.668 22.6101C117.849 21.2104 119.4 20.5105 121.323 20.5105C123.009 20.5105 124.434 21.1007 125.598 22.2813C126.779 23.445 127.369 24.7688 127.369 26.253C127.369 26.9613 127.234 27.6527 126.964 28.3273H116.82C116.921 29.6597 117.419 30.7896 118.312 31.7172C119.223 32.6279 120.311 33.0832 121.576 33.0832C122.486 33.0832 123.288 32.8218 123.979 32.299C124.67 31.7593 125.193 31.051 125.547 30.174L127.268 31.0341Z" fill="#D1D1D1"/>
<path d="M138.36 34.2722C137.314 34.7613 136.302 35.0058 135.324 35.0058C134.059 35.0058 133.056 34.6095 132.314 33.8168C131.589 33.0073 131.226 31.9195 131.226 30.5535V22.5848C131.226 22.5848 130.29 22.5848 128.418 22.5848V20.7887H131.226C131.226 20.7887 131.226 19.76 131.226 17.7025C131.226 17.7025 131.867 17.7025 133.149 17.7025V20.7887H138.385C138.385 20.7887 138.385 21.3874 138.385 22.5848C138.385 22.5848 136.64 22.5848 133.149 22.5848C133.149 22.5848 133.149 25.1399 133.149 30.2499C133.149 31.11 133.351 31.8099 133.756 32.3496C134.177 32.8724 134.801 33.1338 135.628 33.1338C136.37 33.1338 137.196 32.9146 138.107 32.4761L138.36 34.2722Z" fill="#D1D1D1"/>
<defs>
<linearGradient id="paint0_linear_196_1734" x1="5.25715" y1="3.53843" x2="38.3462" y2="51.172" gradientUnits="userSpaceOnUse">
<stop offset="0.23347" stop-color="#CDA581"/>
<stop offset="0.473661" stop-color="#BEBEC0"/>
<stop offset="0.79" stop-color="#B06935"/>
<stop offset="1" stop-color="#9D7E63"/>
</linearGradient>
<linearGradient id="paint1_linear_196_1734" x1="5.25715" y1="3.53843" x2="38.3462" y2="51.172" gradientUnits="userSpaceOnUse">
<stop offset="0.23347" stop-color="#CDA581"/>
<stop offset="0.473661" stop-color="#BEBEC0"/>
<stop offset="0.79" stop-color="#B06935"/>
<stop offset="1" stop-color="#9D7E63"/>
</linearGradient>
<linearGradient id="paint2_linear_196_1734" x1="5.25715" y1="3.53843" x2="38.3462" y2="51.172" gradientUnits="userSpaceOnUse">
<stop offset="0.23347" stop-color="#CDA581"/>
<stop offset="0.473661" stop-color="#BEBEC0"/>
<stop offset="0.79" stop-color="#B06935"/>
<stop offset="1" stop-color="#9D7E63"/>
</linearGradient>
<linearGradient id="paint3_linear_196_1734" x1="5.25715" y1="3.53843" x2="38.3462" y2="51.172" gradientUnits="userSpaceOnUse">
<stop offset="0.23347" stop-color="#CDA581"/>
<stop offset="0.473661" stop-color="#BEBEC0"/>
<stop offset="0.79" stop-color="#B06935"/>
<stop offset="1" stop-color="#9D7E63"/>
</linearGradient>
<linearGradient id="paint4_linear_196_1734" x1="5.25715" y1="3.53843" x2="38.3462" y2="51.172" gradientUnits="userSpaceOnUse">
<stop offset="0.23347" stop-color="#CDA581"/>
<stop offset="0.473661" stop-color="#BEBEC0"/>
<stop offset="0.79" stop-color="#B06935"/>
<stop offset="1" stop-color="#9D7E63"/>
</linearGradient>
<linearGradient id="paint5_linear_196_1734" x1="5.25715" y1="3.53843" x2="38.3462" y2="51.172" gradientUnits="userSpaceOnUse">
<stop offset="0.23347" stop-color="#CDA581"/>
<stop offset="0.473661" stop-color="#BEBEC0"/>
<stop offset="0.79" stop-color="#B06935"/>
<stop offset="1" stop-color="#9D7E63"/>
</linearGradient>
<linearGradient id="paint6_linear_196_1734" x1="5.25715" y1="3.53843" x2="38.3462" y2="51.172" gradientUnits="userSpaceOnUse">
<stop offset="0.23347" stop-color="#CDA581"/>
<stop offset="0.473661" stop-color="#BEBEC0"/>
<stop offset="0.79" stop-color="#B06935"/>
<stop offset="1" stop-color="#9D7E63"/>
</linearGradient>
<linearGradient id="paint7_linear_196_1734" x1="5.25715" y1="3.53843" x2="38.3462" y2="51.172" gradientUnits="userSpaceOnUse">
<stop offset="0.23347" stop-color="#CDA581"/>
<stop offset="0.473661" stop-color="#BEBEC0"/>
<stop offset="0.79" stop-color="#B06935"/>
<stop offset="1" stop-color="#9D7E63"/>
</linearGradient>
<linearGradient id="paint8_linear_196_1734" x1="5.25715" y1="3.53843" x2="38.3462" y2="51.172" gradientUnits="userSpaceOnUse">
<stop offset="0.23347" stop-color="#CDA581"/>
<stop offset="0.473661" stop-color="#BEBEC0"/>
<stop offset="0.79" stop-color="#B06935"/>
<stop offset="1" stop-color="#9D7E63"/>
</linearGradient>
<linearGradient id="paint9_linear_196_1734" x1="5.25715" y1="3.53843" x2="38.3462" y2="51.172" gradientUnits="userSpaceOnUse">
<stop offset="0.23347" stop-color="#CDA581"/>
<stop offset="0.473661" stop-color="#BEBEC0"/>
<stop offset="0.79" stop-color="#B06935"/>
<stop offset="1" stop-color="#9D7E63"/>
</linearGradient>
<linearGradient id="paint10_linear_196_1734" x1="5.25715" y1="3.53843" x2="38.3462" y2="51.172" gradientUnits="userSpaceOnUse">
<stop offset="0.23347" stop-color="#CDA581"/>
<stop offset="0.473661" stop-color="#BEBEC0"/>
<stop offset="0.79" stop-color="#B06935"/>
<stop offset="1" stop-color="#9D7E63"/>
</linearGradient>
<linearGradient id="paint11_linear_196_1734" x1="5.25715" y1="3.53843" x2="38.3462" y2="51.172" gradientUnits="userSpaceOnUse">
<stop offset="0.23347" stop-color="#CDA581"/>
<stop offset="0.473661" stop-color="#BEBEC0"/>
<stop offset="0.79" stop-color="#B06935"/>
<stop offset="1" stop-color="#9D7E63"/>
</linearGradient>
<linearGradient id="paint12_linear_196_1734" x1="5.25715" y1="3.53843" x2="38.3462" y2="51.172" gradientUnits="userSpaceOnUse">
<stop offset="0.23347" stop-color="#CDA581"/>
<stop offset="0.473661" stop-color="#BEBEC0"/>
<stop offset="0.79" stop-color="#B06935"/>
<stop offset="1" stop-color="#9D7E63"/>
</linearGradient>
<linearGradient id="paint13_linear_196_1734" x1="5.25715" y1="3.53843" x2="38.3462" y2="51.172" gradientUnits="userSpaceOnUse">
<stop offset="0.23347" stop-color="#CDA581"/>
<stop offset="0.473661" stop-color="#BEBEC0"/>
<stop offset="0.79" stop-color="#B06935"/>
<stop offset="1" stop-color="#9D7E63"/>
</linearGradient>
<linearGradient id="paint14_linear_196_1734" x1="5.25715" y1="3.53843" x2="38.3462" y2="51.172" gradientUnits="userSpaceOnUse">
<stop offset="0.23347" stop-color="#CDA581"/>
<stop offset="0.473661" stop-color="#BEBEC0"/>
<stop offset="0.79" stop-color="#B06935"/>
<stop offset="1" stop-color="#9D7E63"/>
</linearGradient>
<linearGradient id="paint15_linear_196_1734" x1="5.25715" y1="3.53843" x2="38.3462" y2="51.172" gradientUnits="userSpaceOnUse">
<stop offset="0.23347" stop-color="#CDA581"/>
<stop offset="0.473661" stop-color="#BEBEC0"/>
<stop offset="0.79" stop-color="#B06935"/>
<stop offset="1" stop-color="#9D7E63"/>
</linearGradient>
<linearGradient id="paint16_linear_196_1734" x1="5.25715" y1="3.53843" x2="38.3462" y2="51.172" gradientUnits="userSpaceOnUse">
<stop offset="0.23347" stop-color="#CDA581"/>
<stop offset="0.473661" stop-color="#BEBEC0"/>
<stop offset="0.79" stop-color="#B06935"/>
<stop offset="1" stop-color="#9D7E63"/>
</linearGradient>
<linearGradient id="paint17_linear_196_1734" x1="5.25715" y1="3.53843" x2="38.3462" y2="51.172" gradientUnits="userSpaceOnUse">
<stop offset="0.23347" stop-color="#CDA581"/>
<stop offset="0.473661" stop-color="#BEBEC0"/>
<stop offset="0.79" stop-color="#B06935"/>
<stop offset="1" stop-color="#9D7E63"/>
</linearGradient>
<linearGradient id="paint18_linear_196_1734" x1="5.25715" y1="3.53843" x2="38.3462" y2="51.172" gradientUnits="userSpaceOnUse">
<stop offset="0.23347" stop-color="#CDA581"/>
<stop offset="0.473661" stop-color="#BEBEC0"/>
<stop offset="0.79" stop-color="#B06935"/>
<stop offset="1" stop-color="#9D7E63"/>
</linearGradient>
<linearGradient id="paint19_linear_196_1734" x1="5.25715" y1="3.53843" x2="38.3462" y2="51.172" gradientUnits="userSpaceOnUse">
<stop offset="0.23347" stop-color="#CDA581"/>
<stop offset="0.473661" stop-color="#BEBEC0"/>
<stop offset="0.79" stop-color="#B06935"/>
<stop offset="1" stop-color="#9D7E63"/>
</linearGradient>
</defs>
</svg>
