<svg width="85" height="60" viewBox="0 0 85 60" fill="none" xmlns="http://www.w3.org/2000/svg">
<rect x="0.5" y="0.5" width="83.8736" height="58.4287" rx="11.3857" fill="#212121"/>
<rect x="0.5" y="0.5" width="83.8736" height="58.4287" rx="11.3857" stroke="#333333"/>
<path d="M69.7388 38.9812C69.4325 39.7512 68.8796 40.3146 68.222 40.789C68.1295 40.8556 68.0315 40.9144 67.9357 40.977C67.9237 40.9846 67.9118 40.9925 67.9001 41.0005C67.8848 41.0105 67.8697 41.0206 67.8549 41.031C67.3648 41.3647 66.8287 41.6079 66.2667 41.7818C64.7191 42.2606 63.23 42.1872 61.8965 41.1775C61.1397 40.6047 60.5279 39.8875 60.0912 39.0337C59.9706 38.7976 59.8416 38.5664 59.6933 38.3462C59.6371 38.2807 59.5805 38.2161 59.5221 38.1537C59.32 37.938 59.0968 37.7499 58.7979 37.6601C58.7757 37.6534 58.754 37.6441 58.735 37.632C58.7357 37.6322 58.7366 37.6324 58.7372 37.6326C59.1514 37.747 59.4468 38.0358 59.7473 38.3174C59.6269 38.1198 59.4566 37.9689 59.2793 37.8258C59.1061 37.6855 58.8729 37.6488 58.6967 37.5005C58.7498 37.4762 58.7976 37.4722 58.8454 37.4691C59.0437 37.4558 59.2426 37.4485 59.4402 37.4286C59.9084 37.3817 60.2626 36.9949 60.2761 36.5252C60.2812 36.3406 60.2609 36.1583 60.2412 35.9749C60.2009 35.6016 59.8405 35.2365 59.4278 35.2427C59.2218 35.2458 59.0154 35.237 58.8091 35.2387C58.7388 35.2394 58.6571 35.2089 58.6 35.2717C58.5507 35.3259 58.6146 35.3819 58.6131 35.4385C58.6127 35.4531 58.6155 35.4689 58.6115 35.4824C58.5434 35.7145 58.5881 35.9494 58.5919 36.1831C58.6173 36.3444 58.6023 36.5062 58.6036 36.6677C58.6056 36.9474 58.6036 37.2268 58.6031 37.5063C58.6031 37.5291 58.6038 37.551 58.6067 37.5711C58.5908 37.9479 58.5726 38.3247 58.5746 38.7018C58.5748 38.7989 58.5766 38.896 58.5801 38.9932C58.5808 39.0076 58.5877 39.0215 58.5921 39.0354C58.57 39.241 58.5837 39.4468 58.5912 39.6519C58.5969 39.8057 58.6629 39.8732 58.8136 39.9108C58.8704 39.9249 58.9284 39.9347 58.9864 39.9446C59.0488 39.9555 59.1306 39.9413 59.1273 40.0413C59.1231 40.1637 59.0251 40.123 58.9618 40.1232C58.6972 40.1247 58.4325 40.1183 58.1679 40.1174C57.9916 40.117 57.8152 40.1212 57.6389 40.1225C57.5948 40.1227 57.5501 40.1241 57.5072 40.1172C57.4694 40.111 57.4402 40.0867 57.4399 40.0433C57.4395 40.0019 57.461 39.9725 57.5012 39.965C57.5517 39.9555 57.6037 39.9548 57.6539 39.9446C57.8314 39.9092 58.0248 39.7802 58.0144 39.5386C58.0128 39.5021 58.0201 39.4651 58.0201 39.4284C58.0197 38.2451 58.019 37.0615 58.0183 35.878C57.9993 35.8364 58.0033 35.7926 58.0044 35.7494C58.0046 35.7342 58.0046 35.7191 58.0033 35.7041C57.9818 35.4735 57.9101 35.2823 57.6716 35.181C57.5689 35.1372 57.4048 35.1086 57.4616 34.9212C58.1761 34.923 58.8908 34.919 59.6053 34.9287C60.1097 34.9356 60.4848 35.1792 60.7543 35.5998C60.8612 35.7669 60.9105 35.9499 60.9151 36.1433C60.92 36.3345 60.9087 36.5256 60.8864 36.7166C60.8552 36.9803 60.7275 37.1868 60.5379 37.3616C60.4186 37.4718 60.2892 37.5687 60.1549 37.6598C60.1082 37.6915 60.0465 37.7078 60.0217 37.7868C60.1713 37.7926 60.2281 37.9103 60.3087 38.0101C60.6248 38.402 60.8716 38.8365 61.1096 39.2768C61.6232 40.2274 62.3837 40.9122 63.3796 41.3156C64.7302 41.8628 66.0293 41.7327 67.256 40.9392C68.0286 40.4396 68.6311 39.782 69.017 38.9463C69.3613 38.2002 69.4686 37.4255 69.1681 36.6309C69.1022 36.5473 69.0276 36.4699 68.9803 36.3725C68.9648 36.3453 68.9489 36.319 68.9327 36.2931C68.8634 36.1835 68.7865 36.0869 68.7024 36.0017C68.7017 36.0012 68.7013 36.0008 68.7008 36.0001C68.4975 35.795 68.2528 35.6591 67.9779 35.5859C67.9757 35.5852 67.9733 35.5846 67.9711 35.5839C67.8239 35.545 67.6682 35.524 67.5058 35.5198C67.4473 35.5182 67.3883 35.518 67.3292 35.5193H67.3274C67.0834 35.5253 66.8371 35.5589 66.6021 35.6408C66.6019 35.641 66.6017 35.641 66.6015 35.641C66.5209 35.6691 66.4415 35.703 66.364 35.7432C66.3534 35.7488 66.3426 35.7545 66.332 35.7603C65.642 36.0386 65.1581 36.5484 64.7689 37.1613C64.6048 37.42 64.4169 37.666 64.3133 37.9599C64.2793 38.5104 64.3014 39.0609 64.3023 39.6116C64.3025 39.7605 64.3751 39.8413 64.5014 39.8946C64.5972 39.9351 64.699 39.9475 64.8001 39.9652C64.8375 39.9718 64.8689 39.9942 64.8647 40.0391C64.8612 40.078 64.8375 40.1092 64.8008 40.1194C64.7663 40.1289 64.7282 40.1289 64.6917 40.1287C64.2366 40.1261 63.7814 40.1225 63.3263 40.1201C63.2665 40.1196 63.2081 40.1196 63.1636 40.065C63.192 39.9552 63.2865 39.961 63.3716 39.944C63.5214 39.9139 63.6515 39.855 63.6914 39.6864C63.7296 39.1217 63.7055 38.5566 63.7035 37.992C63.7031 37.8386 63.6031 37.703 63.5239 37.5718C63.1557 36.9615 62.7831 36.3537 62.4186 35.741C62.2438 35.4474 62.0356 35.2036 61.6699 35.1476C61.582 35.1341 61.4769 35.0956 61.5174 34.9597C61.5559 34.8969 61.6192 34.9095 61.6761 34.9102C62.2206 34.9168 62.7654 34.9292 63.3097 34.9015C63.3285 34.9006 63.348 34.9133 63.3834 34.9248C63.344 35.0387 63.2338 35.0666 63.1621 35.1297C62.9605 35.3067 62.9495 35.308 63.0732 35.5428C63.4048 36.1738 63.7445 36.8007 64.0808 37.4293C64.1326 37.526 64.1832 37.6231 64.2381 37.7271C64.258 37.703 64.2784 37.6888 64.2824 37.6711C64.4384 36.987 64.7842 36.4046 65.2526 35.8926C65.8498 35.2394 66.6076 34.9274 67.4808 34.9668C68.8384 35.0283 69.8547 36.0616 69.9788 37.2514C70.0412 37.8508 69.9589 38.4241 69.7388 38.9812Z" fill="#FEFEFE"/>
<path d="M46.3039 22.2145C46.2789 21.9905 46.2546 21.7668 46.2221 21.544C46.2221 21.544 46.2219 21.5429 46.2219 21.5425C46.2269 21.5294 46.225 21.5173 46.2157 21.5066C46.1778 21.4673 46.2097 21.4084 46.1769 21.3675C46.1661 21.3341 46.1457 21.3062 46.136 21.2699C46.0238 20.8555 45.8225 20.4824 45.5485 20.1567C45.2602 19.814 44.9062 19.5433 44.5139 19.3236C44.236 19.1679 43.9616 19.005 43.7443 18.7647C43.7081 18.7282 43.6879 18.6797 43.6532 18.6421C43.4983 18.4578 43.3846 18.2531 43.3425 18.0131C43.3027 17.9735 43.3348 17.9137 43.3029 17.8717C43.2483 17.7086 43.1332 17.6009 42.9839 17.5247C42.96 17.0388 42.9476 16.5532 42.9896 16.0677C43.0042 16.0529 43.0188 16.0381 43.0334 16.023C43.1002 15.9852 43.146 15.9153 43.2255 15.8967C43.3231 15.7944 43.4598 15.7473 43.5642 15.6548C43.6032 15.5232 43.5906 15.3906 43.5707 15.2579C43.5846 15.1581 43.5799 15.0592 43.5603 14.9605C43.5111 14.868 43.4231 14.9007 43.3476 14.8959C43.1113 14.8802 42.8728 14.9251 42.6378 14.8718C42.4442 14.8514 42.2508 14.8523 42.0576 14.8749C41.8539 14.9315 41.6425 14.8616 41.4385 14.9127C41.4093 14.9145 41.3799 14.9162 41.3507 14.918C41.3113 14.9426 41.2861 14.9766 41.2879 15.0244C41.2956 15.2408 41.266 15.4583 41.304 15.6738C41.3228 15.7256 41.3695 15.7449 41.4113 15.7732C41.5536 15.8694 41.6919 15.9715 41.8317 16.0712C41.9078 16.2151 41.824 16.3753 41.8782 16.5213C41.8563 16.6656 41.8674 16.8096 41.8835 16.9534C41.9213 17.0999 41.9178 17.2468 41.8853 17.3935C41.8408 17.4488 41.8322 17.5303 41.7563 17.5628C41.6244 17.6197 41.5655 17.7352 41.5339 17.8639C41.458 18.1719 41.3266 18.4494 41.1062 18.6815C41.0768 18.7125 41.0586 18.7541 41.0352 18.7906C41.013 18.8499 40.9513 18.8614 40.9084 18.8955C40.7975 18.9517 40.7199 19.0506 40.6114 19.1145C40.3559 19.2652 40.0932 19.4013 39.8578 19.5911C39.566 19.8266 39.2883 20.068 39.0878 20.3868C38.9128 20.6652 38.7378 20.9446 38.6962 21.2818C38.6614 21.3203 38.6957 21.3792 38.6566 21.4164C38.6455 21.4268 38.6426 21.4389 38.6482 21.4531C38.6086 21.5257 38.6643 21.6146 38.6083 21.6843C38.5984 21.6943 38.5973 21.7049 38.605 21.7164C38.5665 21.789 38.6152 21.8755 38.5683 21.9467C38.5658 21.9753 38.5634 22.0032 38.5612 22.0315C38.5346 22.2439 38.5346 22.4565 38.561 22.6689C38.5639 22.7101 38.5667 22.7513 38.5696 22.7924C38.619 22.8942 38.5603 23.0084 38.6066 23.1104C38.5997 23.1225 38.6008 23.134 38.6099 23.1447C38.6667 23.2281 38.6035 23.3299 38.6508 23.4148C38.6453 23.4299 38.6475 23.4436 38.657 23.4562C38.6999 23.5126 38.659 23.5857 38.6937 23.6436C38.6979 23.6693 38.7021 23.695 38.7064 23.7206C38.7358 23.7607 38.7064 23.8158 38.7406 23.8545C38.7431 23.8689 38.7455 23.8833 38.7479 23.8976C38.7884 23.9868 38.8112 24.0808 38.8247 24.1773C38.821 24.2758 38.8604 24.3649 38.8887 24.4554C39.1624 25.3288 39.5312 26.1621 39.9448 26.9774C40.6909 28.4489 41.5481 29.8579 42.3583 31.2934C42.3776 31.3275 42.3864 31.3791 42.4522 31.3738C42.5219 31.2479 42.5911 31.1184 42.6641 30.991C43.1941 30.0648 43.7284 29.1412 44.2539 28.2125C44.7071 27.4113 45.1175 26.5884 45.4815 25.7425C45.7366 25.1487 45.9577 24.5437 46.0918 23.9096C46.1179 23.8651 46.0893 23.8065 46.1289 23.7653C46.1391 23.7554 46.1411 23.7439 46.1353 23.731C46.1716 23.6742 46.1236 23.5983 46.1763 23.5447L46.1765 23.5445H46.1767C46.18 23.5392 46.1827 23.5341 46.1851 23.5288C46.1856 23.5281 46.186 23.5272 46.1862 23.5264C46.2132 23.462 46.1712 23.3852 46.2159 23.3241C46.2181 23.3097 46.2203 23.2958 46.2223 23.2819C46.2635 23.2122 46.2139 23.1279 46.2584 23.0586C46.2604 23.0433 46.2624 23.0281 46.2643 23.013C46.3199 22.8245 46.2469 22.6271 46.3037 22.4386C46.3212 22.364 46.3199 22.2893 46.3039 22.2145ZM42.4174 21.4051C42.7208 21.406 42.9575 21.6208 42.9608 21.8987C42.9644 22.1999 42.7002 22.4711 42.4041 22.47C42.134 22.4691 41.8857 22.2173 41.8826 21.9414C41.8793 21.6593 42.1335 21.4044 42.4174 21.4051ZM45.1888 25.2C44.9129 26.076 44.5013 26.892 44.067 27.6961C43.5452 28.6617 43.0062 29.6182 42.4743 30.5783C42.4676 30.5907 42.455 30.6 42.4453 30.6106C42.3973 30.6223 42.3809 30.5856 42.3645 30.5551C41.8348 29.5596 41.2423 28.5995 40.7141 27.6032C40.2992 26.8206 39.9235 26.0216 39.6485 25.1783C39.5436 24.8559 39.4527 24.5296 39.3859 24.1968C39.3686 24.1109 39.3673 24.02 39.321 23.9412C39.3166 23.8682 39.3122 23.7952 39.3075 23.7222C39.3487 23.6788 39.3925 23.6396 39.4527 23.625C39.5343 23.6129 39.6124 23.5907 39.6839 23.5485C39.6967 23.554 39.7078 23.5518 39.7175 23.5418C39.7852 23.5465 39.8521 23.5467 39.9105 23.504C39.9207 23.5113 39.9297 23.51 39.9375 23.5C40.9164 23.4173 41.8674 23.6202 42.8232 23.7786C43.4824 23.8877 44.1409 24.0023 44.8093 24.0454C44.9719 24.0558 45.1312 24.049 45.2923 24.0293C45.4888 24.0056 45.4926 24.0138 45.466 24.2048C45.462 24.2335 45.4629 24.2632 45.4616 24.2924C45.3709 24.5948 45.2835 24.8986 45.1885 25.2H45.1888Z" fill="#E5B96B"/>
<path d="M57.1425 36.9902C56.9436 35.9459 56.3121 35.2752 55.3115 34.9548C54.694 34.7572 54.0647 34.7745 53.4385 34.9338C52.6898 35.1243 52.1437 35.5677 51.7795 36.247C51.5412 36.6915 51.4965 37.1719 51.5038 37.6604C51.5197 38.7654 52.0999 39.5888 53.1241 39.9915C54.0273 40.3466 54.9531 40.3121 55.8384 39.8612C56.3006 39.7147 56.6146 39.4025 56.8277 38.9776C56.8279 38.9774 56.8281 38.977 56.8281 38.9768L56.8292 38.9757C56.8903 38.9071 56.9436 38.834 56.9628 38.7415C56.9628 38.7415 56.9631 38.7411 56.9631 38.7409C56.9951 38.6524 57.0319 38.5652 57.0591 38.4751C57.2056 37.987 57.2374 37.489 57.1425 36.9902ZM55.3122 35.3332C55.7753 35.5407 56.1008 35.9078 56.3106 36.3722C56.2935 36.3939 56.2776 36.3961 56.2619 36.3915C56.2532 36.3778 56.2451 36.3638 56.2375 36.3494C56.2349 36.3461 56.2322 36.3428 56.2298 36.3395C56.2203 36.3273 56.2112 36.3151 56.2028 36.3025H56.2026C56.18 36.2492 56.1287 36.2127 56.093 36.17C55.7842 35.7987 55.4441 35.4695 54.9513 35.3513C54.5741 35.2608 54.1972 35.2588 53.8164 35.3301C53.3777 35.4124 52.992 35.5876 52.6918 35.9284C52.669 35.954 52.6504 36.018 52.5913 35.9726C53.2575 35.0455 54.496 34.9679 55.3122 35.3334V35.3332ZM54.8132 39.8612C54.3816 39.9468 53.9496 39.9289 53.5297 39.7757C53.1529 39.6386 52.8429 39.416 52.6097 39.0863C52.0605 38.3099 52.0592 37.4684 52.3103 36.5966C52.3366 36.5052 52.3762 36.4178 52.4096 36.3284C52.5247 36.3326 52.5718 36.2364 52.6342 36.1693C53.0044 35.7717 53.4491 35.5263 53.9952 35.4657C54.7121 35.3861 55.358 35.5106 55.8733 36.0642C55.976 36.1744 56.0731 36.2957 56.211 36.3691C56.2313 36.4705 56.3028 36.5313 56.3829 36.5855C56.5781 37.2219 56.59 37.8673 56.3783 38.4931C56.1265 39.2385 55.5928 39.7065 54.8132 39.8612Z" fill="#FEFEFE"/>
<path d="M31.7487 37.0929C31.6659 36.3094 31.2639 35.7173 30.6056 35.3019C30.2138 35.0544 29.7735 34.9289 29.3108 34.9225C28.4432 34.9108 27.5754 34.9167 26.7078 34.9147C26.6527 34.9147 26.6034 34.9176 26.5939 34.9869C26.6098 35.0813 26.6835 35.1236 26.7611 35.1442C26.9663 35.1982 27.0833 35.3349 27.1497 35.5265C27.1521 35.5557 27.1566 35.5852 27.1566 35.6144C27.1572 36.9167 27.1583 38.2193 27.1579 39.5219C27.1577 39.7779 27.0614 39.8903 26.8067 39.9441C26.7437 39.9574 26.6718 39.9412 26.6229 40.0005C26.6023 40.1851 26.7395 40.2067 26.8618 40.2056C27.7732 40.1968 28.6884 40.2829 29.5949 40.1596C30.41 40.0488 31.078 39.6726 31.4898 38.9236H31.49V38.9232C31.5513 38.7588 31.6343 38.6039 31.6759 38.4302C31.7817 37.9879 31.7958 37.5405 31.7487 37.0929ZM27.7445 35.5341C28.1423 35.5354 28.5401 35.5354 28.9377 35.5383C29.1515 35.54 29.3652 35.5535 29.5748 35.594C30.0113 35.6783 30.364 35.9069 30.6475 36.2461C30.7203 36.3899 30.8032 36.53 30.8625 36.6791C30.9024 36.7796 30.9579 36.8196 31.0597 36.8068C31.0599 36.8068 31.0599 36.807 31.0601 36.807C31.2599 37.6505 31.1714 38.4419 30.6227 39.1433C30.3988 39.4297 30.1049 39.6213 29.7518 39.7127C29.5099 39.7753 29.2663 39.8246 29.0125 39.8204C28.637 39.8142 28.2613 39.82 27.8858 39.8259C27.7827 39.8275 27.7323 39.8175 27.7327 39.6861C27.7372 38.3384 27.7332 36.9906 27.7321 35.6431C27.7321 35.6066 27.7402 35.5703 27.7445 35.5341Z" fill="#FEFEFE"/>
<path d="M16.6383 36.3554C16.5963 36.5486 16.5542 36.7415 16.5104 36.9422C16.3197 36.5289 16.4281 35.9379 16.6646 35.5934C16.9512 35.1761 17.3375 34.9345 17.8444 34.8621C18.4465 34.7763 19.0229 34.8309 19.5519 35.1385C20.3429 35.5983 20.7545 36.3019 20.828 37.2102C20.8603 37.6105 20.8295 38.0039 20.7213 38.3909C20.7096 38.4331 20.7047 38.4772 20.6965 38.5205C20.5766 39.0744 20.1772 39.4016 19.7453 39.7072C19.0448 40.2026 18.2715 40.3488 17.428 40.2466C16.8841 40.1807 16.3792 40.0329 15.9429 39.6983C15.6627 39.4835 15.4169 39.229 15.2012 38.9478C15.1279 38.8524 15.0848 38.7453 15.0846 38.6232C14.8372 38.0094 14.812 37.3768 14.9538 36.7396C15.1211 35.9895 15.5959 35.4675 16.2453 35.09C16.3531 35.0274 16.3577 35.0354 16.3679 35.1823C16.3239 35.2971 16.2701 35.4033 16.1756 35.4898C15.9517 35.6945 15.811 35.9547 15.7043 36.2353C15.5127 36.8584 15.4452 37.4941 15.5868 38.1329C15.8054 39.1193 16.5755 39.8525 17.7037 39.9039C18.1756 39.9253 18.627 39.851 19.0443 39.6151C19.5484 39.3301 19.8938 38.9124 20.0586 38.3594C20.2929 37.5737 20.2609 36.8046 19.8679 36.0678C19.5612 35.4927 19.0733 35.1969 18.4343 35.1374C18.0595 35.1026 17.7026 35.1858 17.357 35.3239C17.2463 35.3681 17.1558 35.4449 17.0675 35.5233C16.9408 35.7461 16.7918 35.9561 16.6763 36.1855L16.6724 36.1972C16.6323 36.2437 16.673 36.3076 16.6385 36.3554H16.6383Z" fill="#FEFEFE"/>
<path d="M70.0042 42.9044C70.0281 43.3033 69.9723 43.2234 69.7083 43.2237C62.7022 43.2256 55.6962 43.2263 48.6901 43.2256C48.3801 43.2256 48.3584 43.292 48.3845 42.8776C48.6016 42.7063 48.8518 42.7871 49.0873 42.7984C49.2481 42.8061 49.4092 42.8258 49.5712 42.8258C53.5858 42.8258 57.6005 42.8369 61.6151 42.8165C62.4533 42.8123 63.2925 42.7796 64.1316 42.784C64.6307 42.7864 65.1308 42.7749 65.6284 42.7891C66.9903 42.8283 68.3522 42.8214 69.7141 42.8263C69.8179 42.8267 69.9219 42.8258 70.0044 42.9048L70.0042 42.9044Z" fill="#946842"/>
<path d="M36.7551 42.9147C36.7785 43.29 36.7445 43.23 36.4592 43.2298C31.7828 43.2285 27.1063 43.2263 22.4299 43.2252C19.9997 43.2245 17.5694 43.2254 15.1392 43.2256C15.1171 43.2256 15.0949 43.2263 15.0728 43.2256C14.8832 43.2203 14.869 43.2072 14.8666 43.0243C14.8662 42.9878 14.8737 42.9512 14.8777 42.9145C14.9339 42.8439 15.0135 42.832 15.0958 42.828C15.1695 42.8242 15.2432 42.8256 15.3169 42.8256C22.3164 42.8256 29.3161 42.8251 36.3156 42.8273C36.4652 42.8273 36.6292 42.7835 36.7551 42.9147Z" fill="#9B683D"/>
<path d="M42.2851 39.9457C42.0324 39.9108 41.8446 39.7975 41.7572 39.5433C41.7189 39.4324 41.6603 39.3288 41.6149 39.2204C41.2741 38.4066 40.9347 37.5921 40.5942 36.7781C40.3444 36.1813 40.0946 35.5846 39.8408 34.9896C39.8111 34.9197 39.8014 34.8265 39.7021 34.8037C39.6463 34.8376 39.6399 34.8976 39.6204 34.9513C39.5682 35.0967 39.5182 35.243 39.4587 35.3852C38.9907 36.5044 38.5214 37.6227 38.0512 38.7409C37.9315 39.0255 37.8098 39.3094 37.6857 39.5919C37.6029 39.78 37.4682 39.9028 37.2526 39.921C37.1947 39.9258 37.1371 39.9431 37.0809 39.9599C37.0314 39.9747 37.0121 40.0174 37.0216 40.0641C37.0296 40.1044 37.0674 40.1183 37.1064 40.1203C37.1431 40.1221 37.1801 40.1219 37.2168 40.1221C37.5998 40.1243 37.983 40.127 38.366 40.1287C38.4101 40.1289 38.4543 40.1272 38.4984 40.1234C38.5397 40.1201 38.5628 40.0951 38.5698 40.0537C38.5774 40.0099 38.5559 39.9822 38.5187 39.9688C38.4636 39.9486 38.4043 39.9391 38.3512 39.9154C38.2098 39.8524 38.1873 39.8081 38.2368 39.6572C38.3468 39.3229 38.4643 38.991 38.6057 38.6684C38.6716 38.6358 38.6858 38.5557 38.7276 38.5013C38.7462 38.4772 38.7703 38.4579 38.8066 38.4502C38.8232 38.4491 38.8396 38.4482 38.8562 38.4473C38.8697 38.4464 38.8834 38.4456 38.8969 38.4449C39.083 38.4341 39.2688 38.4261 39.4549 38.4225C39.4624 38.4225 39.4702 38.4225 39.4781 38.4225C39.7131 38.4181 39.9483 38.421 40.1833 38.4338C40.3085 38.4402 40.4336 38.4495 40.5588 38.4622C40.5785 38.4796 40.5964 38.4987 40.6126 38.5188C40.6721 38.5914 40.7132 38.677 40.7688 38.752C40.7739 38.7885 40.7681 38.8308 40.7854 38.8593C40.9199 39.0821 40.979 39.3335 41.0586 39.5764C41.1255 39.78 41.0794 39.8665 40.8768 39.9517C40.8119 39.9789 40.7307 39.9785 40.6989 40.0586C40.7462 40.1301 40.8163 40.1177 40.8798 40.1163C41.3441 40.1064 41.8081 40.1008 42.2723 40.1126C42.3431 40.1143 42.4402 40.1294 42.4404 40.0234C42.4409 39.9272 42.3442 39.9541 42.2851 39.946V39.9457ZM39.6936 35.8676C39.9319 36.619 40.2318 37.3038 40.4783 38.0331H38.8612C39.127 37.3209 39.4332 36.627 39.6936 35.8676Z" fill="#FEFDFD"/>
<path d="M25.7844 35.4803C25.754 35.6633 25.7702 35.8476 25.7687 36.0312C25.7622 36.8346 25.7582 37.6381 25.7523 38.4417C25.7507 38.649 25.7211 38.8517 25.6545 39.05C25.6142 39.1697 25.5286 39.2608 25.4777 39.3726C25.3876 39.6425 25.2131 39.8262 24.9347 39.9034C24.5331 40.1494 24.0912 40.2362 23.6279 40.214C23.0216 40.185 22.4948 39.9717 22.0925 39.5013C21.8064 39.167 21.6967 38.7643 21.6907 38.3357C21.6783 37.4444 21.6797 36.5532 21.6746 35.6617C21.6741 35.6033 21.6682 35.5447 21.6648 35.4862C21.596 35.3112 21.496 35.1692 21.3075 35.101C21.2349 35.0747 21.2042 35.0008 21.2123 34.9191C21.2849 34.8966 21.3588 34.9083 21.4321 34.9125C21.7856 34.9331 22.139 34.9357 22.4926 34.9118C22.5512 34.9079 22.6103 34.9101 22.6692 34.911C22.7001 34.9114 22.7298 34.9227 22.7349 34.9559C22.7395 34.9873 22.7185 35.0125 22.6911 35.0253C22.5908 35.0718 22.4913 35.1198 22.3884 35.1597C22.3158 35.1878 22.2937 35.2327 22.2886 35.3092C22.2246 36.272 22.2567 37.2358 22.2541 38.1992C22.2534 38.4727 22.2775 38.7433 22.3932 38.9984C22.69 39.6514 23.2916 39.9775 24.0041 39.8998C24.7429 39.8193 25.3179 39.1613 25.3221 38.4698C25.3259 37.8359 25.3266 37.2019 25.3263 36.568C25.3263 36.1848 25.312 35.8011 25.3235 35.4183C25.3283 35.2544 25.265 35.1776 25.1228 35.1247C25.0232 35.0877 24.9077 35.0669 24.846 34.9669C24.867 34.899 24.9185 34.9169 24.9586 34.9165C25.3418 34.9132 25.7251 34.9098 26.1083 34.9121C26.1705 34.9123 26.2676 34.8705 26.2727 34.995C26.2435 35.0369 26.2231 35.0955 26.17 35.1054C25.9565 35.1455 25.8625 35.3037 25.7841 35.4801L25.7844 35.4803Z" fill="#FEFEFD"/>
<path d="M36.7551 42.9146C36.4464 42.8828 36.1369 42.8994 35.8278 42.8994C29.0725 42.9009 22.3175 42.904 15.5623 42.9073C15.3339 42.9073 15.1058 42.912 14.8775 42.9144C14.8711 42.8783 14.8604 42.8423 14.8589 42.806C14.8529 42.663 14.8547 42.6588 15.0023 42.6555C15.2085 42.6511 15.4149 42.6509 15.6214 42.6509C22.5859 42.6504 29.5507 42.6502 36.5153 42.65C36.5374 42.65 36.5595 42.65 36.5816 42.65C36.8312 42.6515 36.8376 42.6617 36.7549 42.9144L36.7551 42.9146Z" fill="#F5F3F3"/>
<path d="M43.132 36.5745C42.9322 37.2182 42.8915 37.8787 43.1181 38.5091C43.4732 39.4968 44.2435 40.0464 45.3737 39.8778C45.8052 39.8134 46.1689 39.6364 46.4734 39.3224C46.7314 39.0562 46.8385 38.7244 46.9221 38.379C46.9515 38.2577 46.9666 38.1329 46.9925 38.0105C47.0026 37.9623 47.0117 37.9015 47.0854 37.9139C47.1423 37.9234 47.1443 37.972 47.1447 38.0165C47.1473 38.3705 47.121 38.7226 47.0712 39.0733C47.0569 39.1737 47.0035 39.2483 46.9387 39.3215C46.1913 40.1661 45.2628 40.3852 44.1957 40.1121C43.1927 39.8555 42.4862 39.0058 42.3647 37.9422C42.2912 37.299 42.3501 36.6765 42.6789 36.103C43.0944 35.3779 43.7122 34.965 44.5495 34.8588C45.1327 34.7847 45.7005 34.8192 46.2377 35.0458C46.9057 35.3277 46.782 35.2264 46.8823 35.8966C46.9234 36.1723 46.9453 36.4482 46.8557 36.7376C46.7745 36.6022 46.8431 36.4354 46.7482 36.3165C46.6765 36.1882 46.6017 36.0616 46.5209 35.9386C46.1508 35.3498 45.375 35.1199 44.7732 35.2162C44.4043 35.275 44.0667 35.3797 43.7737 35.6255C43.5943 35.776 43.4754 35.9643 43.3535 36.155C43.2823 36.2962 43.1929 36.4278 43.1323 36.5748L43.132 36.5745Z" fill="#FEFEFE"/>
<path d="M70.0042 42.9045C68.3314 42.9017 66.6586 42.8961 64.9861 42.8961C60.7637 42.8964 56.541 42.9001 52.3186 42.9003C51.0806 42.9003 49.8427 42.8939 48.6047 42.8897C48.5312 42.8895 48.458 42.8818 48.3847 42.8776C48.3836 42.8408 48.3836 42.8039 48.3812 42.7671C48.3754 42.6859 48.4042 42.6399 48.4938 42.6494C48.523 42.6525 48.5527 42.6496 48.5821 42.6496C55.648 42.6496 62.7137 42.6496 69.7796 42.6499C70.0318 42.6499 70.0318 42.6514 70.0044 42.9045H70.0042Z" fill="#F3F2F2"/>
<path d="M35.0874 38.0079C35.065 38.5449 35.0819 39.0824 35.0779 39.6196C35.077 39.7459 35.1294 39.8313 35.2487 39.8723C35.3595 39.9103 35.4717 39.9453 35.5832 39.9816C35.6189 39.9931 35.6534 40.005 35.647 40.0544C35.6414 40.0958 35.6202 40.1228 35.5786 40.127C35.5348 40.1314 35.4905 40.1329 35.4465 40.1318C35.0049 40.1205 34.563 40.1185 34.1213 40.1303C34.0552 40.132 33.9547 40.1668 33.9395 40.0628C33.9242 39.959 34.0218 39.9623 34.0924 39.948C34.1355 39.9393 34.1787 39.9296 34.2207 39.9165C34.4561 39.8437 34.5028 39.7882 34.5039 39.5402C34.5083 38.5091 34.5094 37.4782 34.5114 36.4471C34.5121 36.1085 34.509 35.77 34.5143 35.4317C34.5159 35.3304 34.4794 35.2602 34.3946 35.2149C34.3041 35.1662 34.2087 35.1263 34.1185 35.077C34.0572 35.0436 33.9731 35.0372 33.9507 34.9504C33.9804 34.8832 34.0395 34.9106 34.0855 34.9106C34.6893 34.91 35.2929 34.9128 35.8968 34.9115C36.2709 34.9106 36.6475 34.9259 37.0314 34.7745C37.0478 35.1171 37.0323 35.435 37.0179 35.7605C36.9106 35.747 36.871 35.6866 36.8338 35.6233C36.7383 35.3312 36.5183 35.2834 36.2453 35.3018C35.9897 35.3191 35.7324 35.3047 35.4757 35.3058C35.1653 35.3073 35.1 35.377 35.0942 35.6974C35.0898 35.9461 35.1108 36.1955 35.0823 36.4438C35.0783 36.7234 35.0774 37.0031 35.069 37.2828C35.0659 37.385 35.0942 37.4293 35.2049 37.4251C35.5653 37.4118 35.926 37.4087 36.2864 37.3965C36.4435 37.3912 36.4909 37.3485 36.5318 37.1976C36.5511 37.1268 36.5604 37.0534 36.5776 36.9817C36.5887 36.9359 36.6278 36.9345 36.6655 36.9379C36.6995 36.9407 36.7155 36.9642 36.7181 36.996C36.7206 37.0253 36.7205 37.0549 36.7205 37.0843C36.7212 37.3788 36.7219 37.6733 36.7221 37.9678C36.7221 37.9973 36.723 38.0276 36.7163 38.0557C36.7006 38.1221 36.7259 38.232 36.6391 38.2371C36.5356 38.2431 36.5373 38.1329 36.5254 38.0539C36.4356 37.8012 36.2424 37.7552 36.0019 37.7762C35.8344 37.7908 35.6636 37.7908 35.4961 37.776C35.2987 37.7583 35.1531 37.8065 35.0872 38.0081L35.0874 38.0079Z" fill="#FEFEFE"/>
<path d="M47.4585 35.5337C47.4255 35.6209 47.4351 35.7267 47.3443 35.7884C47.291 35.8247 47.2494 35.8298 47.2339 35.7528C47.2282 35.724 47.22 35.6948 47.22 35.6658C47.2189 35.3806 47.2193 35.0952 47.2193 34.8051C47.3516 34.7845 47.4461 34.8571 47.553 34.8668C47.7358 34.8836 47.9176 34.9082 48.1022 34.908C48.9992 34.9064 49.896 34.9089 50.793 34.9062C50.9742 34.9058 51.157 34.915 51.3278 34.8197C51.3818 34.7896 51.4674 34.7582 51.5322 34.8285C51.5645 35.0998 51.5393 35.3722 51.5462 35.6439C51.5475 35.6948 51.5521 35.751 51.4871 35.7718C51.422 35.7926 51.3749 35.7647 51.3327 35.716C51.2835 35.6594 51.2395 35.5981 51.2245 35.5257C51.1906 35.362 51.0698 35.3166 50.9308 35.3111C50.5996 35.2981 50.2679 35.3124 49.9367 35.304C49.7654 35.2996 49.7537 35.4505 49.6692 35.5306C49.6636 35.5667 49.6532 35.6025 49.653 35.6386C49.6409 36.9268 49.6271 38.215 49.659 39.5032C49.667 39.828 49.7285 39.8915 50.0509 39.9471C50.0798 39.9519 50.1095 39.9526 50.1385 39.9577C50.1962 39.9681 50.1984 40.013 50.1978 40.0586C50.1971 40.0989 50.183 40.1309 50.1387 40.1365C50.1024 40.1409 50.0655 40.1422 50.029 40.142C49.58 40.14 49.1311 40.1378 48.6821 40.1354C48.6527 40.1354 48.6233 40.1343 48.594 40.1318C48.5542 40.1283 48.5244 40.1135 48.5232 40.0663C48.5224 40.0261 48.5345 39.9924 48.5735 39.9776C48.6073 39.9648 48.6436 39.9539 48.6795 39.9511C48.8456 39.9373 48.9715 39.8619 49.0547 39.7165C49.083 39.653 49.0702 39.5855 49.0702 39.52C49.0711 38.2597 49.0698 36.9992 49.0715 35.7388C49.072 35.3821 48.9607 35.2824 48.6536 35.3047C48.419 35.3217 48.1814 35.3197 47.9466 35.3047C47.7342 35.291 47.5727 35.3532 47.4592 35.5339L47.4585 35.5337Z" fill="#FFFFFE"/>
<path d="M44.851 42.5521C44.8419 42.4966 44.8441 42.4358 44.7731 42.3955C44.7078 42.6134 44.708 42.8327 44.6799 43.0471C44.6434 43.3244 44.6259 43.604 44.5892 43.8811C44.573 44.0028 44.5934 44.0791 44.727 44.0977C44.7543 44.1014 44.781 44.1209 44.7901 44.1869C44.5217 44.2847 44.2465 44.2243 43.9666 44.2243C43.975 44.0981 44.0657 44.1023 44.1267 44.0893C44.2332 44.0665 44.2872 44.0194 44.2996 43.9047C44.3449 43.4879 44.3982 43.0719 44.45 42.6557C44.4936 42.3052 44.5387 41.9547 44.5834 41.6045C44.5881 41.5675 44.5978 41.5323 44.6377 41.4996C44.7273 41.5173 44.7443 41.6034 44.7757 41.6704C45.0346 42.2227 45.2899 42.7767 45.5488 43.329C45.5951 43.4277 45.6223 43.5377 45.7223 43.6352C45.8907 43.2595 46.0489 42.8918 46.2195 42.5298C46.3865 42.1751 46.5324 41.8091 46.7512 41.4294C46.8151 41.5876 46.8288 41.708 46.8434 41.8282C46.9247 42.5004 47.0039 43.1726 47.0877 43.8443C47.1123 44.0408 47.1187 44.0397 47.3145 44.0871C47.3559 44.097 47.4063 44.1003 47.4059 44.161C47.4057 44.2068 47.3716 44.226 47.3338 44.2278C47.0769 44.2389 46.8196 44.2597 46.5638 44.2154C46.5536 44.2136 46.5463 44.1946 46.5379 44.184C46.5388 44.176 46.537 44.1638 46.5408 44.1621C46.731 44.066 46.7348 43.9103 46.7087 43.7222C46.654 43.3288 46.6082 42.9336 46.6012 42.5353C46.6001 42.478 46.5832 42.4209 46.5737 42.3638C46.5191 42.3709 46.5124 42.4119 46.5034 42.4426C46.3861 42.8402 46.1903 43.204 46.0141 43.5759C45.9387 43.7353 45.8586 43.893 45.8219 44.0676C45.7674 44.1448 45.8214 44.3024 45.6791 44.3061C45.5575 44.3094 45.5234 44.1844 45.4855 44.0917C45.3061 43.6505 45.0651 43.2367 44.9111 42.784C44.885 42.707 44.8806 42.6267 44.8514 42.5519L44.851 42.5521Z" fill="#FCFBFB"/>
<path d="M43.7986 42.4371C43.5676 41.8218 43.1317 41.5124 42.4626 41.4826C41.8381 41.4547 41.3635 41.6946 41.0602 42.2477C40.9113 42.5192 40.9298 42.8139 40.9526 43.1093C40.9818 43.4892 41.1779 43.7702 41.4702 43.992C42.0136 44.4037 43.0232 44.3745 43.5917 43.7497C43.6481 43.7189 43.6693 43.6632 43.6926 43.6087C43.7138 43.5552 43.737 43.5023 43.7561 43.4479C43.872 43.1153 43.928 42.7814 43.7986 42.4371ZM43.4523 43.1742C43.3693 43.7136 42.9836 44.0291 42.4378 44.0674C41.8185 44.111 41.3027 43.6313 41.3047 43.0117C41.3053 42.8427 41.2823 42.6719 41.3642 42.5132C41.4443 42.4387 41.5251 42.3645 41.6045 42.2891C41.9871 41.926 42.5862 41.8791 43.0259 42.1727C43.0945 42.2185 43.1485 42.2915 43.243 42.3172C43.1823 42.0908 42.9142 41.8486 42.6792 41.812C42.4772 41.7804 42.2734 41.7412 42.0676 41.795C42.0171 41.8081 41.9652 41.8092 41.9247 41.7649C42.6385 41.4655 43.358 41.8559 43.4474 42.5582C43.4737 42.7648 43.4839 42.969 43.4523 43.1742Z" fill="#FCFCFB"/>
<path d="M67.8834 41.1474C67.7356 41.257 67.577 41.3523 67.4152 41.4373C66.4828 41.9261 65.4984 42.2139 64.4352 42.2018C63.8595 42.1951 63.3147 42.0613 62.7861 41.8458C62.7687 41.8387 62.7512 41.8314 62.7337 41.8243C62.722 41.8192 62.7102 41.8141 62.6985 41.8088C62.2389 41.6079 61.8449 41.3085 61.4774 40.97C61.3375 40.8412 61.2123 40.6967 61.0623 40.5795C61.0388 40.5609 61.0147 40.5432 60.9899 40.5261C60.9897 40.5259 60.9895 40.5257 60.9892 40.5257C60.7768 40.3839 60.6319 40.1801 60.4903 39.975C60.2396 39.6119 60.0298 39.2253 59.8232 38.8357C59.6276 38.4666 59.3627 38.1562 58.9629 37.9867C58.8496 37.9387 58.7418 37.8771 58.6144 37.813C58.5861 38.2316 58.6272 38.6345 58.5921 39.0355C58.5825 38.9244 58.5772 38.8131 58.5746 38.7018C58.5673 38.4108 58.5772 38.1199 58.5728 37.8289C58.5648 37.3091 58.575 36.7892 58.5783 36.2692C58.5786 36.2407 58.5872 36.2119 58.5918 36.1833C58.6173 36.3444 58.6022 36.5062 58.6036 36.6677C58.6055 36.9474 58.6036 37.2268 58.6031 37.5063C58.6031 37.5291 58.6038 37.551 58.6067 37.5711C58.6146 37.626 58.6398 37.6698 58.7153 37.6928C59.02 37.7864 59.2868 37.9437 59.522 38.1537C59.32 37.938 59.0968 37.7499 58.7978 37.6601C58.7757 37.6534 58.754 37.6441 58.735 37.632C58.7357 37.6322 58.7365 37.6324 58.7372 37.6326C59.1514 37.747 59.4468 38.0358 59.7473 38.3175C59.917 38.5144 60.0225 38.7507 60.1433 38.9766C60.5432 39.7245 61.0558 40.3825 61.7019 40.9315C62.5153 41.6229 63.4495 41.9891 64.5284 41.9925C65.5632 41.9958 66.5076 41.6831 67.417 41.2284C67.5641 41.1547 67.6989 41.0565 67.8396 40.9696C67.8786 40.9426 67.914 40.9428 67.9357 40.9771C67.939 40.9824 67.9421 40.9884 67.9447 40.9954C67.9695 41.0609 67.931 41.112 67.8834 41.1474Z" fill="#56472F"/>
<path d="M40.1944 44.1072C39.6351 44.3957 38.8314 44.3117 38.4261 43.7103C38.3427 43.5866 38.2728 43.4609 38.2482 43.312C38.1854 42.9312 38.138 42.5493 38.3365 42.1926C38.5648 41.7821 38.9034 41.5264 39.3866 41.4949C39.6588 41.4772 39.928 41.4728 40.1871 41.5883C40.3894 41.6784 40.535 41.7965 40.5425 42.0406C40.5454 42.1353 40.5536 42.2309 40.5553 42.3262C40.3945 42.361 40.3664 42.2169 40.3146 42.1295C40.0199 41.6328 39.2454 41.6439 38.9109 41.9943C38.7907 42.1202 38.7502 42.2882 38.6478 42.4209C38.5186 42.7577 38.5135 43.1069 38.6429 43.433C38.8629 43.9866 39.2567 44.1282 39.7909 44.0501C40.1513 43.9975 40.3593 43.7702 40.4697 43.4401C40.5153 43.3038 40.5482 43.1631 40.5921 43.006C40.6987 43.2036 40.6967 43.4485 40.5994 43.751C40.5631 43.9817 40.4024 44.0716 40.1944 44.1074V44.1072Z" fill="#FBFBFA"/>
<path d="M62.75 41.772C62.9892 41.8152 63.2061 41.9289 63.4399 41.9902C63.9579 42.1258 64.4821 42.1411 65.012 42.0988C65.8451 42.0324 66.6142 41.7556 67.353 41.3855C67.5283 41.2976 67.6856 41.1735 67.8617 41.0821C67.9416 41.0407 67.9214 40.9927 67.8396 40.9695C68.1965 40.7276 68.5448 40.4765 68.8503 40.1676C69.1824 39.832 69.4637 39.462 69.6849 39.0458C69.6984 39.0204 69.7071 38.9914 69.7387 38.9814C69.7407 39.1193 69.6708 39.2361 69.6181 39.3547C69.3575 39.9426 68.9711 40.4356 68.4713 40.8407C67.7407 41.4328 66.9154 41.8329 66.0121 42.0875C65.5785 42.2099 65.1417 42.2971 64.693 42.3254C64.3681 42.3458 64.0449 42.3174 63.7302 42.2413C63.3605 42.1519 62.9826 42.0776 62.6582 41.8576C62.6693 41.8083 62.7233 41.805 62.7496 41.772H62.75Z" fill="#A28356"/>
<path d="M64.3134 37.9597C64.2933 37.8889 64.3313 37.8301 64.3583 37.7721C64.7265 36.9804 65.2219 36.2947 65.9886 35.8395C66.0866 35.7814 66.1793 35.7035 66.3041 35.7063C66.6396 35.6358 66.9686 35.547 67.3153 35.52C67.9654 35.4691 68.4657 35.7311 68.892 36.1865C68.9469 36.2449 68.9905 36.3137 69.0503 36.3684C69.1228 36.4409 69.164 36.5275 69.1682 36.6306C69.0699 36.5976 68.9934 36.5469 68.9213 36.4622C68.5542 36.0292 68.0802 35.8068 67.5113 35.7884C66.684 35.7617 65.9882 36.071 65.3892 36.6226C64.9641 37.0142 64.6152 37.4685 64.313 37.9595L64.3134 37.9597Z" fill="#96845C"/>
<path d="M55.8382 39.8612C56.0681 39.693 56.3206 39.5539 56.5111 39.3353C56.6162 39.2147 56.7229 39.0952 56.8289 38.9753C56.8846 39.1023 56.8532 39.2102 56.7775 39.3235C56.3666 39.9366 55.7933 40.3075 55.0771 40.4511C54.2097 40.6248 53.3791 40.5338 52.6142 40.0546C52.275 39.8419 51.9561 39.5019 51.8105 39.1976C51.8663 39.1529 51.888 39.2085 51.9121 39.2366C52.435 39.8393 53.0797 40.223 53.8827 40.294C54.548 40.3531 55.2092 40.3471 55.8057 39.9743C55.8367 39.955 55.8823 39.944 55.8969 39.9165C55.9285 39.8559 55.8597 39.8796 55.8385 39.8614L55.8382 39.8612Z" fill="#9F8952"/>
<path d="M61.5174 34.9595C61.5347 35.0496 61.6024 35.0722 61.6798 35.079C61.9805 35.1056 62.2029 35.2556 62.3585 35.51C62.7913 36.2183 63.2238 36.9268 63.656 37.6355C63.7024 37.7119 63.7323 37.7937 63.7319 37.8851C63.7292 38.444 63.7272 39.0027 63.7248 39.5616C63.7248 39.6059 63.7219 39.6501 63.6912 39.6864C63.6907 39.1932 63.6889 38.7 63.6905 38.2068C63.6909 38.0648 63.6706 37.951 63.5557 37.8347C63.4254 37.7026 63.3256 37.5329 63.2314 37.3651C63.0232 36.9941 62.7953 36.6339 62.587 36.2626C62.4715 36.0566 62.3437 35.8625 62.1879 35.6846C62.0644 35.5437 61.9036 35.4839 61.733 35.4306C61.4528 35.343 61.4165 35.2574 61.517 34.9598L61.5174 34.9595Z" fill="#675741"/>
<path d="M15.0844 38.6236C15.2404 38.8727 15.4054 39.1132 15.611 39.3267C16.0969 39.831 16.6925 40.0939 17.3809 40.1806C17.9007 40.2459 18.4133 40.2244 18.9074 40.0565C19.6648 39.7989 20.2755 39.3513 20.6401 38.6147C20.6563 38.5822 20.6775 38.5523 20.6966 38.5211C20.6983 38.8318 20.5773 39.0942 20.3788 39.3259C20.2144 39.3624 20.1352 39.51 20.0275 39.6124C19.3267 40.2789 18.4824 40.4948 17.5471 40.4112C16.9213 40.3552 16.3372 40.1658 15.8325 39.7737C15.6867 39.6604 15.5612 39.5263 15.4389 39.3887C15.3931 39.3371 15.3607 39.2559 15.2652 39.2851C15.1543 39.1869 15.078 39.065 15.0165 38.9318C14.9372 38.7603 14.9357 38.761 15.0846 38.6236H15.0844Z" fill="#5C452E"/>
<path d="M15.2651 39.2852C15.2713 39.2339 15.2496 39.1363 15.3492 39.2243C15.4373 39.302 15.5176 39.3885 15.6001 39.4724C16.0842 39.964 16.6799 40.2178 17.3561 40.3123C17.8583 40.3827 18.3522 40.3619 18.8408 40.2273C19.2382 40.118 19.5805 39.9085 19.8849 39.6361C20.0221 39.5133 20.1606 39.394 20.3151 39.2936C20.3567 39.2666 20.3828 39.265 20.3788 39.3257C20.252 39.4182 20.1841 39.5613 20.0754 39.6722C19.5404 40.218 18.872 40.4515 18.134 40.5183C17.6831 40.5592 17.2364 40.5077 16.8003 40.3809C16.2466 40.2198 15.7858 39.918 15.426 39.4655C15.3757 39.4022 15.333 39.3323 15.2649 39.2852H15.2651Z" fill="#A78962"/>
<path d="M26.6229 40.0005C26.6304 40.0609 26.639 40.1202 26.7202 40.1213C26.7497 40.1218 26.7791 40.1233 26.8085 40.1236C27.596 40.1244 28.3839 40.1408 29.1708 40.1218C30.0957 40.0994 30.8699 39.7483 31.4314 38.9874C31.4485 38.9641 31.4704 38.9447 31.4898 38.9232C31.496 38.9882 31.4507 39.0444 31.4675 39.1148C31.4903 39.2095 31.444 39.2823 31.362 39.3319C31.1801 39.4354 31.073 39.6182 30.913 39.7494C30.4437 40.1351 29.9045 40.3099 29.313 40.3481C28.484 40.4019 27.6533 40.3605 26.8236 40.3718C26.7501 40.3727 26.6744 40.3776 26.6236 40.3076C26.6258 40.2428 26.6264 40.1791 26.5994 40.1171C26.5811 40.0753 26.5831 40.0331 26.6227 40.0005H26.6229Z" fill="#5B4120"/>
<path d="M42.669 39.1949C43.2162 39.9009 43.9141 40.3152 44.8211 40.3616C45.7311 40.4081 46.4365 40.0235 47.022 39.3575C46.8176 39.964 45.8542 40.4891 45.1974 40.524C43.9575 40.59 42.9954 39.9667 42.6688 39.1951L42.669 39.1949Z" fill="#BA9551"/>
<path d="M24.9349 39.9033C25.1303 39.7411 25.3124 39.5654 25.4779 39.3724C25.5327 39.4508 25.5471 39.5183 25.4909 39.6154C25.2225 40.0796 24.8112 40.3478 24.3047 40.4615C23.5708 40.6264 22.8868 40.5047 22.285 40.0289C22.1246 39.9021 21.9841 39.7577 21.9044 39.5614C22.0029 39.582 22.0562 39.6607 22.1217 39.7198C22.7893 40.3223 23.561 40.4774 24.4204 40.2602C24.6098 40.2124 24.7647 40.0982 24.9227 39.9909C24.9563 39.9681 24.9749 39.9384 24.9349 39.9033Z" fill="#A88958"/>
<path d="M47.4585 35.5336C47.4609 35.2749 47.5023 35.2238 47.7384 35.2203C48.1358 35.2143 48.5332 35.2137 48.9306 35.2141C49.0817 35.2141 49.0863 35.2225 49.0866 35.3553C49.0881 36.7094 49.0906 38.0636 49.0892 39.4177C49.0892 39.5171 49.1222 39.6239 49.054 39.7164C49.0518 38.5827 49.0498 37.4491 49.0476 36.3156C49.0472 36.1242 49.0476 35.9328 49.0463 35.7414C49.0447 35.525 49.0441 35.5243 48.8272 35.5254C48.371 35.5276 47.9147 35.5307 47.4585 35.5336Z" fill="#8D7D57"/>
<path d="M49.6689 35.5309C49.6912 35.4362 49.6704 35.343 49.6456 35.2612C49.7082 35.2021 49.7695 35.2227 49.8253 35.2224C50.1855 35.2216 50.5457 35.2218 50.906 35.2244C51.2075 35.2266 51.2697 35.2835 51.3135 35.5816C51.3177 35.6099 51.3248 35.6404 51.3394 35.6641C51.3715 35.7156 51.4177 35.7617 51.4812 35.7499C51.5505 35.7369 51.5308 35.669 51.5313 35.622C51.5332 35.3576 51.5317 35.093 51.5313 34.8286C51.5419 34.8476 51.5611 34.8664 51.5613 34.8857C51.5675 35.2516 51.5941 35.6185 51.5215 35.9816C51.5111 36.0336 51.4985 36.0876 51.4321 36.0871C51.3804 36.0869 51.3587 36.044 51.3472 36.0002C51.3303 35.9367 51.3168 35.8721 51.3029 35.8077C51.2697 35.6546 51.1887 35.5842 51.0312 35.574C51.002 35.5723 50.9723 35.5718 50.9431 35.5731C50.5172 35.5913 50.0933 35.5488 49.6684 35.5307L49.6689 35.5309Z" fill="#5A492E"/>
<path d="M35.0826 36.4441C35.0559 36.0706 35.0851 35.6968 35.0733 35.3233C35.0707 35.2433 35.1039 35.2202 35.1764 35.222C35.3158 35.2253 35.4552 35.226 35.5946 35.2258C35.888 35.2255 36.1819 35.232 36.4751 35.2209C36.7558 35.2103 36.901 35.3495 36.8342 35.6234C36.5304 35.555 36.2215 35.5745 35.9137 35.5698C35.694 35.5665 35.4732 35.5844 35.2546 35.5459C35.1528 35.528 35.1043 35.5716 35.1063 35.678C35.1098 35.8615 35.1096 36.0451 35.107 36.2288C35.1059 36.3007 35.1244 36.3761 35.0826 36.4438V36.4441Z" fill="#89794B"/>
<path d="M43.1322 36.5746C43.1561 36.4233 43.2026 36.2806 43.2951 36.1556C43.4787 35.9677 43.5949 35.7261 43.8206 35.5674C44.5189 35.0764 45.746 35.0083 46.4226 35.7759C46.4704 35.8301 46.5149 35.8914 46.5846 35.923C46.6915 36.0325 46.7227 36.1733 46.7483 36.3164C46.6519 36.2268 46.5516 36.1412 46.4598 36.0474C45.9148 35.49 45.2537 35.3696 44.5136 35.5081C44.0624 35.5924 43.7241 35.8416 43.4311 36.1764C43.3212 36.302 43.2293 36.4399 43.1324 36.5746H43.1322Z" fill="#AC8B50"/>
<path d="M38.6479 42.4206C38.6873 42.0126 39.0049 41.7103 39.4034 41.669C39.8808 41.6194 40.2331 41.7858 40.455 42.2159C40.4783 42.2611 40.5008 42.3086 40.5557 42.3259C40.5577 42.3693 40.5623 42.4131 40.561 42.4564C40.5592 42.5069 40.5522 42.5571 40.5471 42.6102C40.459 42.6118 40.4595 42.5368 40.4371 42.4916C40.2878 42.188 40.0525 42.0411 39.7087 42.0194C39.3199 41.9949 38.9836 42.0683 38.7199 42.3721C38.7015 42.3932 38.6723 42.4047 38.6482 42.4206H38.6479Z" fill="#957B40"/>
<path d="M26.6239 40.3077C27.462 40.305 28.3004 40.3057 29.1386 40.2986C29.6154 40.2946 30.0699 40.191 30.4962 39.9687C30.7542 39.8341 30.9671 39.6454 31.1773 39.4498C31.2297 39.4011 31.2596 39.3053 31.3625 39.3321C31.0572 39.7543 30.6598 40.0556 30.1732 40.2419C29.9022 40.3457 29.6187 40.3811 29.3331 40.403C28.6803 40.453 28.0263 40.4245 27.3729 40.43C27.1598 40.4318 26.9469 40.4313 26.7338 40.4291C26.658 40.4282 26.5717 40.4287 26.6241 40.3079L26.6239 40.3077Z" fill="#BBA16B"/>
<path d="M16.676 36.1856C16.7043 35.9046 16.8168 35.6732 17.0672 35.5234C17.0989 35.5617 17.1312 35.5417 17.1644 35.5251C17.6131 35.3034 18.0868 35.2253 18.5802 35.301C19.0823 35.378 19.4567 35.6617 19.7459 36.0677C19.7576 36.0841 19.7583 36.1091 19.7618 36.1305C19.7627 36.1358 19.7549 36.1425 19.7394 36.1668C19.6766 36.1038 19.6155 36.0445 19.5569 35.9827C19.1197 35.5227 18.5758 35.3891 17.9633 35.4561C17.5113 35.5055 17.1301 35.6851 16.8375 36.0411C16.7922 36.0962 16.753 36.1635 16.676 36.1854V36.1856Z" fill="#AE9467"/>
<path d="M40.1943 44.107C40.3463 44.0077 40.4915 43.9004 40.5992 43.7506C40.6809 43.8997 40.6129 44.0145 40.5167 44.1263C40.1558 44.5454 39.6982 44.6454 39.1805 44.5226C38.7833 44.4283 38.4686 44.215 38.287 43.8353C38.2779 43.8163 38.2755 43.7937 38.2722 43.7723C38.2713 43.7667 38.279 43.7601 38.2914 43.7402C38.4023 43.8475 38.5076 43.9568 38.6209 44.0572C39.0404 44.4296 39.7498 44.4889 40.2029 44.1949C40.2631 44.1559 40.2828 44.1283 40.1945 44.107H40.1943Z" fill="#9D854F"/>
<path d="M41.0688 43.8009C41.2047 43.9344 41.3401 44.0682 41.5083 44.164C42.0692 44.4842 42.8155 44.4911 43.378 44.0472C43.4671 43.9768 43.5512 43.8943 43.6798 43.866C43.543 44.2638 42.9644 44.5647 42.371 44.5612C41.745 44.5572 41.2003 44.2472 41.0688 43.8009Z" fill="#A78A51"/>
<path d="M35.0873 38.0079C35.0881 37.9787 35.0919 37.949 35.0892 37.92C35.0763 37.7685 35.1484 37.6929 35.3056 37.693C35.5988 37.6939 35.892 37.6952 36.1852 37.6977C36.5049 37.7005 36.5334 37.7313 36.5253 38.0537C36.3615 38.0085 36.1938 38.0134 36.0263 38.0128C35.7132 38.0114 35.4001 38.0094 35.087 38.0077L35.0873 38.0079Z" fill="#857B53"/>
<path d="M38.6054 38.6682C38.6278 38.5675 38.6172 38.4566 38.6951 38.3728C38.7475 38.4128 38.7984 38.4522 38.8714 38.4465C39.4686 38.3993 40.066 38.4314 40.6632 38.4482C40.7055 38.5469 40.7606 38.6412 40.7683 38.7518C40.6774 38.677 40.5707 38.6695 40.4583 38.6697C39.8406 38.671 39.2228 38.6688 38.6052 38.6679L38.6054 38.6682Z" fill="#9A8C56"/>
<path d="M44.8511 42.5522C45.1181 43.1269 45.3854 43.7015 45.6511 44.273C45.783 44.2447 45.7545 44.1206 45.8217 44.0681C45.856 44.2168 45.7501 44.333 45.7264 44.4693C45.7135 44.5439 45.648 44.547 45.5996 44.4806C45.4688 44.3016 45.3633 44.1069 45.2779 43.904C45.1555 43.6132 45.036 43.3209 44.9194 43.028C44.8621 42.8837 44.8336 42.7166 44.8511 42.5525V42.5522Z" fill="#6B624A"/>
<path d="M62.7501 41.7722C62.7528 41.836 62.7045 41.8455 62.6587 41.8579C62.3253 41.7202 62.0354 41.5116 61.7622 41.2835C61.544 41.1014 61.3466 40.894 61.1402 40.6978C61.0725 40.6557 61.0355 40.5869 60.9895 40.5259L60.9902 40.5263C60.9999 40.4778 61.0223 40.4612 61.0627 40.4995C61.1798 40.6104 61.3015 40.7172 61.4117 40.8345C61.7834 41.2295 62.2419 41.5023 62.7067 41.7669C62.7185 41.7736 62.7355 41.7707 62.7501 41.7722Z" fill="#C2AF8F"/>
<path d="M58.2908 40.2973C58.5262 40.2973 58.7617 40.2964 58.9969 40.2982C59.0382 40.2984 59.0944 40.2915 59.1017 40.351C59.1106 40.4247 59.0528 40.4314 58.9995 40.4311C58.5287 40.4298 58.058 40.4278 57.5872 40.4256C57.5726 40.4256 57.5578 40.4243 57.5434 40.4218C57.5002 40.4143 57.4436 40.4097 57.4414 40.3581C57.4387 40.2966 57.5 40.3032 57.5407 40.3024C57.7319 40.2975 57.9231 40.2957 58.1142 40.2935C58.1731 40.2928 58.232 40.2935 58.2908 40.2935V40.2977V40.2973Z" fill="#B29B67"/>
<path d="M41.5686 40.4344C41.363 40.4344 41.1577 40.4346 40.9521 40.4344C40.9081 40.4344 40.8641 40.4335 40.82 40.4313C40.7756 40.4291 40.7169 40.4262 40.7152 40.3746C40.7125 40.3065 40.7791 40.3087 40.8287 40.3029C40.8577 40.2996 40.8873 40.2996 40.9165 40.2996C41.3568 40.2994 41.7972 40.2996 42.2373 40.2994C42.2519 40.2994 42.2669 40.2981 42.2813 40.3003C42.3282 40.3074 42.3992 40.2895 42.3928 40.3676C42.3875 40.4328 42.3253 40.4344 42.2729 40.4344C42.0381 40.4346 41.8033 40.4344 41.5684 40.4344H41.5686Z" fill="#A99472"/>
<path d="M49.3718 40.3056C49.6141 40.3056 49.8564 40.3049 50.0989 40.3062C50.1332 40.3062 50.179 40.3049 50.1796 40.356C50.1801 40.3992 50.1451 40.4173 50.1064 40.4217C50.0701 40.4257 50.0332 40.4266 49.9964 40.4266C49.5705 40.4266 49.1446 40.4277 48.7186 40.4248C48.6505 40.4244 48.5348 40.4523 48.533 40.3633C48.531 40.2615 48.6472 40.3058 48.7111 40.304C48.9313 40.298 49.1516 40.3018 49.372 40.3018V40.3056H49.3718Z" fill="#B6A67E"/>
<path d="M34.8014 40.302C35.0298 40.302 35.2583 40.3011 35.4867 40.3026C35.5278 40.3029 35.5869 40.2958 35.5845 40.3586C35.5823 40.4111 35.5309 40.4228 35.4851 40.4237C35.382 40.4259 35.2789 40.4266 35.1758 40.4268C34.8368 40.4274 34.4979 40.4277 34.1591 40.4274C34.1078 40.4274 34.0558 40.4263 34.0051 40.4186C33.9878 40.4159 33.9646 40.3947 33.96 40.3777C33.9513 40.3445 33.9768 40.3219 34.0066 40.3175C34.0575 40.3099 34.1093 40.3064 34.1606 40.3062C34.3744 40.3051 34.5879 40.3057 34.8017 40.3057V40.3018L34.8014 40.302Z" fill="#B19D73"/>
<path d="M64.0098 40.4312C63.8193 40.4312 63.6288 40.4321 63.4383 40.4308C63.3799 40.4303 63.3206 40.4281 63.2633 40.4182C63.2235 40.4113 63.169 40.4031 63.1754 40.3438C63.181 40.294 63.2303 40.3018 63.2631 40.3016C63.7541 40.2987 64.2448 40.2976 64.7358 40.2974C64.7781 40.2974 64.8334 40.2967 64.8314 40.358C64.8296 40.4113 64.7794 40.427 64.7351 40.4275C64.4933 40.4297 64.2517 40.4286 64.0098 40.4286C64.0098 40.4295 64.0098 40.4306 64.0098 40.4315V40.4312Z" fill="#A89469"/>
<path d="M57.4615 34.9214C57.4436 35.0097 57.5075 35.0334 57.5697 35.0595C57.6708 35.102 57.7722 35.1445 57.8724 35.1892C57.9609 35.2288 58.0107 35.2994 58.0092 35.3965C58.0065 35.5574 58.0496 35.7171 58.0182 35.8782C58.0204 35.6149 57.8642 35.4985 57.6297 35.4388C57.5093 35.408 57.4151 35.3368 57.4644 35.1823C57.4823 35.1263 57.4257 35.0903 57.4146 35.0414C57.4036 34.9923 57.3834 34.9372 57.4613 34.9214H57.4615Z" fill="#746449"/>
<path d="M37.7801 40.4342C37.5968 40.4342 37.4139 40.4347 37.2307 40.434C37.1795 40.434 37.1278 40.4336 37.0773 40.4265C37.0408 40.4214 37.0058 40.4028 37.0098 40.3568C37.0127 40.3229 37.0401 40.3086 37.0707 40.305C37.107 40.3006 37.1437 40.2977 37.1802 40.2975C37.5758 40.2966 37.9715 40.2942 38.3669 40.2986C38.4281 40.2993 38.5397 40.2572 38.5361 40.3712C38.5335 40.459 38.4346 40.4331 38.3733 40.434C38.1755 40.4371 37.9776 40.4351 37.7798 40.4351V40.4342H37.7801Z" fill="#AB926C"/>
<path d="M26.5941 34.9868C26.6824 35.0542 26.7897 35.0781 26.8906 35.1162C27.1665 35.2204 27.1718 35.2271 27.1499 35.5262C27.0831 35.4884 27.009 35.4906 26.9355 35.4839C26.6406 35.4572 26.581 35.3904 26.5844 35.0963C26.5848 35.0596 26.5906 35.0231 26.5939 34.9865L26.5941 34.9868Z" fill="#6E653A"/>
<path d="M15.7041 36.2356C15.7309 35.9453 15.8581 35.7021 16.0566 35.4941C16.1579 35.3879 16.2639 35.2864 16.3677 35.1828C16.3971 35.3713 16.3278 35.518 16.1942 35.6508C16.0137 35.8302 15.8574 36.0322 15.7043 36.2356H15.7041Z" fill="#988068"/>
<path d="M21.2124 34.9191C21.2093 34.9691 21.2332 35.0043 21.277 35.0238C21.3306 35.0475 21.3868 35.0654 21.4405 35.0888C21.6808 35.1937 21.6919 35.2139 21.6649 35.4862C21.5487 35.4862 21.4328 35.4871 21.3235 35.436C21.2536 35.4035 21.1918 35.3586 21.1896 35.2789C21.1863 35.159 21.1553 35.0357 21.2122 34.9189L21.2124 34.9191Z" fill="#766442"/>
<path d="M25.7844 35.4801C25.7819 35.4658 25.7773 35.4514 25.7771 35.437C25.774 35.2657 25.8501 35.1508 26.0054 35.0923C26.0941 35.0588 26.1838 35.0274 26.2729 34.9949C26.2707 35.5266 26.3079 35.3815 25.8282 35.4815C25.8145 35.4843 25.7992 35.4806 25.7846 35.4799L25.7844 35.4801Z" fill="#756C3D"/>
<path d="M37.8743 44.04C37.8732 44.209 37.8529 44.242 37.7498 44.2402C37.5582 44.2371 37.4577 44.1732 37.457 44.0535C37.4562 43.9059 37.5537 43.8132 37.7091 43.8147C37.8332 43.8161 37.8752 43.8734 37.8741 44.04H37.8743Z" fill="#F5F3F3"/>
<path d="M46.5052 44.5042C46.5909 44.3923 46.6621 44.3998 46.725 44.3971C46.9153 44.3892 47.106 44.3874 47.2965 44.3858C47.3365 44.3854 47.3671 44.4077 47.3633 44.4529C47.3604 44.487 47.3319 44.5013 47.3018 44.5029C47.0498 44.5168 46.798 44.5204 46.5052 44.504V44.5042Z" fill="#BAA06F"/>
<path d="M43.9513 44.4985C44.0345 44.3929 44.113 44.3989 44.1785 44.3945C44.3378 44.3836 44.4983 44.3839 44.658 44.3828C44.7023 44.3825 44.7496 44.394 44.7461 44.4531C44.7434 44.4994 44.7012 44.5067 44.6658 44.5087C44.4414 44.5206 44.2175 44.5226 43.9513 44.4985Z" fill="#A99766"/>
<path d="M42.9841 17.5248C42.9432 17.4845 42.9436 17.4323 42.9436 17.3807C42.9436 16.9904 42.9443 16.6001 42.9443 16.2098C42.9443 16.1574 42.9469 16.1062 42.9898 16.068C42.9879 16.5536 42.9859 17.0393 42.9841 17.5248Z" fill="#D7B172"/>
<path d="M60.2406 37.7988C60.3891 37.6382 60.5373 37.4773 60.6858 37.3167C60.6966 37.3264 60.7072 37.3359 60.7181 37.3457C60.6044 37.5375 60.499 37.7371 60.276 37.8307C60.2643 37.8201 60.2523 37.8094 60.2406 37.7988Z" fill="#AFA16B"/>
<path d="M37.6849 44.3383C37.7338 44.3423 37.7986 44.3275 37.8001 44.4031C37.8015 44.4624 37.7548 44.4932 37.6995 44.5012C37.6638 44.5063 37.6253 44.5078 37.5906 44.4998C37.5483 44.4901 37.503 44.4715 37.5043 44.4166C37.5056 44.3593 37.5525 44.3505 37.5968 44.3443C37.6258 44.3401 37.6552 44.3403 37.6846 44.3385L37.6849 44.3383Z" fill="#C6B248"/>
<path d="M43.5603 14.9604C43.4875 14.9179 43.4076 14.9162 43.3266 14.9168C43.1585 14.9179 42.9903 14.9175 42.8221 14.9162C42.7577 14.9157 42.6887 14.9299 42.6378 14.8717C42.91 14.8741 43.1819 14.8761 43.4541 14.8794C43.5081 14.8801 43.5592 14.8887 43.5605 14.9604H43.5603Z" fill="#D7B172"/>
<path d="M41.351 14.9179C41.289 15.0259 41.3127 15.1445 41.31 15.2596C41.3069 15.3976 41.3063 15.5357 41.3045 15.6738C41.2554 15.639 41.2556 15.5866 41.2576 15.5357C41.2642 15.368 41.2797 15.2005 41.2622 15.0323C41.256 14.9717 41.2636 14.9111 41.3512 14.9181L41.351 14.9179Z" fill="#D7B172"/>
<path d="M46.304 22.2143C46.2482 21.9937 46.2013 21.7723 46.2216 21.5424C46.2898 21.7614 46.3161 21.9856 46.304 22.2143Z" fill="#D7B172"/>
<path d="M42.0578 14.8746C41.9463 14.9556 41.8191 14.9056 41.6994 14.9158C41.6133 14.9231 41.5257 14.9142 41.4387 14.9124C41.6429 14.8629 41.8503 14.8671 42.0578 14.8746Z" fill="#D7B172"/>
<path d="M38.5612 22.0313C38.5612 22.2437 38.5612 22.4564 38.5612 22.669C38.5136 22.4566 38.5116 22.2439 38.5612 22.0313Z" fill="#D7B172"/>
<path d="M46.2645 23.0128C46.2767 22.8214 46.2183 22.625 46.3039 22.4387C46.3083 22.6314 46.3192 22.8243 46.2645 23.0128Z" fill="#D7B172"/>
<path d="M36.9745 35.8357C36.9812 35.8441 36.9882 35.8494 36.9898 35.8558C37.0033 35.916 36.998 35.972 36.9371 36.0036C36.9181 36.0136 36.8926 35.9972 36.8862 35.9751C36.8637 35.8961 36.8933 35.849 36.9745 35.8357Z" fill="#FEFEFE"/>
<path d="M41.8835 16.9536C41.9532 17.1 41.9497 17.2467 41.8853 17.3936C41.8718 17.247 41.8667 17.1003 41.8835 16.9536Z" fill="#D7B172"/>
<path d="M41.832 16.0714C41.9356 16.2124 41.8701 16.3706 41.8785 16.5212C41.8243 16.3752 41.8785 16.2181 41.832 16.0714Z" fill="#D7B172"/>
<path d="M43.5646 15.6548C43.5668 15.5224 43.5688 15.3901 43.571 15.2578C43.6009 15.3906 43.6341 15.5236 43.5646 15.6548Z" fill="#D7B172"/>
<path d="M38.7484 23.8975C38.8307 23.9752 38.8405 24.0728 38.8252 24.177C38.7756 24.0905 38.7497 23.9973 38.7484 23.8975Z" fill="#D7B172"/>
<path d="M38.5695 22.7923C38.6439 22.891 38.6025 23.0032 38.6065 23.1103C38.5536 23.0092 38.5598 22.901 38.5695 22.7923Z" fill="#D7B172"/>
<path d="M56.8274 38.9779C56.8475 38.8845 56.9051 38.8126 56.963 38.7409C56.9812 38.856 56.9312 38.9323 56.8274 38.9779Z" fill="#9F8952"/>
<path d="M38.61 23.1445C38.6855 23.2253 38.6485 23.3231 38.6509 23.4149C38.602 23.3302 38.6043 23.2377 38.61 23.1445Z" fill="#D7B172"/>
<path d="M60.9891 40.5257C61.0648 40.5607 61.102 40.6293 61.1398 40.6977C61.0522 40.6733 60.9971 40.6202 60.9891 40.5257Z" fill="#56472F"/>
<path d="M43.0334 16.0231C43.0757 15.9478 43.1281 15.8879 43.2257 15.8967C43.1706 15.9525 43.1171 16.0107 43.0334 16.0231Z" fill="#D7B172"/>
<path d="M46.2226 23.2818C46.2211 23.2052 46.1952 23.1247 46.2584 23.0587C46.2629 23.1357 46.2671 23.2127 46.2226 23.2818Z" fill="#D7B172"/>
<path d="M46.1765 23.5447C46.1776 23.4688 46.1495 23.3878 46.2161 23.3239C46.2194 23.4004 46.2181 23.4761 46.1765 23.5447Z" fill="#D7B172"/>
<path d="M38.6054 21.7163C38.6067 21.7953 38.6357 21.8787 38.5684 21.9466C38.5592 21.8663 38.564 21.7884 38.6054 21.7163Z" fill="#D7B172"/>
<path d="M38.6483 21.4531C38.6508 21.533 38.6795 21.6173 38.6085 21.6843C38.6025 21.604 38.6008 21.5242 38.6483 21.4531Z" fill="#D7B172"/>
<path d="M38.6573 23.4561C38.7155 23.5094 38.6987 23.5776 38.6941 23.6435C38.6518 23.5871 38.6518 23.5221 38.6573 23.4561Z" fill="#D7B172"/>
<path d="M46.1354 23.731C46.1307 23.6646 46.1124 23.5951 46.177 23.5443C46.1825 23.6109 46.1772 23.675 46.1354 23.731Z" fill="#D7B172"/>
<path d="M41.0351 18.7904C41.0247 18.8638 40.9787 18.8941 40.9083 18.8953C40.942 18.8497 40.9842 18.8149 41.0351 18.7904Z" fill="#D7B172"/>
<path d="M43.7445 18.7646C43.6889 18.7425 43.6569 18.7029 43.6533 18.642C43.704 18.6679 43.7423 18.7029 43.7445 18.7646Z" fill="#D7B172"/>
<path d="M16.6385 36.3556C16.6283 36.2983 16.6239 36.2421 16.6724 36.1971C16.6963 36.2575 16.6823 36.3098 16.6385 36.3556Z" fill="#AE9467"/>
<path d="M43.5918 43.7496C43.6113 43.6925 43.6409 43.6427 43.6927 43.6087C43.7053 43.6888 43.6679 43.733 43.5918 43.7496Z" fill="#A78A51"/>
<path d="M38.6961 21.2817C38.7008 21.3317 38.7036 21.3813 38.6565 21.4163C38.6521 21.3663 38.662 21.3205 38.6961 21.2817Z" fill="#D7B172"/>
<path d="M36.5927 38.3637C36.6051 38.3686 36.6237 38.3703 36.6266 38.3779C36.6366 38.4049 36.6324 38.4325 36.6122 38.4549C36.5819 38.4883 36.5786 38.4462 36.5742 38.4365C36.5622 38.4102 36.5642 38.3827 36.5927 38.3637Z" fill="#FEFEFE"/>
<path d="M46.2161 21.5063C46.1703 21.4692 46.1723 21.4187 46.1774 21.3674C46.2121 21.4076 46.221 21.4552 46.2161 21.5063Z" fill="#D7B172"/>
<path d="M43.3425 18.013C43.2943 17.9756 43.2972 17.9241 43.3029 17.8716C43.3379 17.9128 43.3452 17.9614 43.3425 18.013Z" fill="#D7B172"/>
<path d="M38.7065 23.7205C38.7474 23.7577 38.7452 23.8057 38.7408 23.8544C38.705 23.8159 38.701 23.7694 38.7065 23.7205Z" fill="#D7B172"/>
<path d="M46.0919 23.9094C46.0841 23.8561 46.0795 23.8036 46.129 23.7651C46.1317 23.8171 46.1284 23.8676 46.0919 23.9094Z" fill="#D7B172"/>
<path d="M59.7472 38.3174C59.6766 38.3526 59.6571 38.2826 59.6259 38.2517C59.592 38.2178 59.5573 38.1851 59.5219 38.1536C59.3199 37.9379 59.0966 37.7498 58.7977 37.66C58.7756 37.6534 58.7539 37.6441 58.7349 37.6319C58.7355 37.6321 58.7364 37.6323 58.7371 37.6326C59.1513 37.747 59.4467 38.0357 59.7472 38.3174Z" fill="#31312F"/>
<path d="M69.05 36.3687C68.9489 36.3309 68.8885 36.2432 68.813 36.1742C68.5165 35.9029 68.1979 35.6684 67.791 35.596C67.4677 35.5385 67.146 35.5775 66.8269 35.6381C66.6902 35.6642 66.5552 35.7005 66.4198 35.7335C66.3758 35.7441 66.3331 35.756 66.3041 35.7065C66.4247 35.6173 66.5674 35.5806 66.709 35.5507C67.1876 35.4502 67.6677 35.3969 68.1419 35.5737C68.5442 35.7237 68.8411 35.9965 69.0502 36.3685L69.05 36.3687Z" fill="#2F2E2E"/>
<path d="M45.96 21.5657C45.937 21.5206 45.918 21.4708 45.9093 21.421C45.8496 21.0741 45.6022 20.8068 45.5106 20.4733C45.4976 20.4262 45.4586 20.3846 45.4261 20.3448C45.2685 20.1512 45.0758 19.9876 44.8906 19.8274C44.6563 19.625 44.3857 19.4546 44.0996 19.3234C43.8775 19.2214 43.7347 19.0318 43.5666 18.8709C43.5 18.8072 43.4933 18.697 43.4126 18.6342C43.292 18.5408 43.2225 18.4136 43.1825 18.2666C43.1415 18.1157 43.0641 17.9872 42.9603 17.8659C42.851 17.7387 42.7798 17.5847 42.7255 17.4214C42.6251 17.1187 42.7255 16.8238 42.7479 16.5275C42.7572 16.406 42.7238 16.2633 42.7961 16.1609C42.9116 15.9976 42.9329 15.7763 43.113 15.6546C43.1367 15.6387 43.1594 15.615 43.1718 15.5895C43.2336 15.4641 43.2333 15.3285 43.1829 15.2059C43.1417 15.1065 43.0291 15.1404 42.9444 15.1397C42.5908 15.1371 42.2372 15.1377 41.8838 15.139C41.6608 15.1399 41.5986 15.2114 41.6194 15.4331C41.6296 15.5426 41.6783 15.6227 41.7734 15.6849C42.0093 15.8391 42.1069 16.0692 42.1033 16.3441C42.1018 16.458 42.1224 16.5622 42.1799 16.6609C42.2253 16.739 42.2593 16.8233 42.2124 16.9121C42.131 17.0669 42.1912 17.2694 42.0447 17.4028C42.023 17.4227 42.0303 17.4588 42.0414 17.4869C42.0755 17.5723 42.0418 17.6391 41.9967 17.7126C41.9126 17.8502 41.8549 18.0042 41.7237 18.11C41.6889 18.1381 41.6666 18.1788 41.6657 18.2255C41.661 18.4406 41.5245 18.5839 41.4037 18.7424C41.2639 18.926 41.0855 19.0676 40.916 19.2159C40.7131 19.3933 40.5109 19.5787 40.2573 19.6903C39.9834 19.8106 39.79 20.0379 39.5654 20.2237C39.538 20.2465 39.5123 20.2779 39.4995 20.3109C39.3895 20.593 39.1736 20.8099 39.0297 21.0741C38.897 21.3177 38.9479 21.6148 38.7545 21.8248C38.7505 21.8292 38.7498 21.8405 38.7523 21.8463C38.8251 22.0147 38.7122 22.193 38.7826 22.3647C38.8058 22.4216 38.8043 22.5026 38.7824 22.5607C38.7235 22.7167 38.7828 22.8652 38.7908 23.0166C38.7961 23.1139 38.8611 23.1916 38.878 23.2883C38.933 23.6022 39.0293 23.6465 39.3105 23.5009C39.3236 23.494 39.3384 23.4887 39.3488 23.479C39.5008 23.3354 39.69 23.3655 39.8725 23.3666C39.9799 23.3675 39.9699 23.4292 39.9378 23.5C40.9167 23.4173 41.8677 23.6202 42.8236 23.7786C43.4827 23.8877 44.1412 24.0023 44.8096 24.0454C44.9723 24.0558 45.1316 24.049 45.2927 24.0293C45.4892 24.0056 45.4929 24.0138 45.4664 24.2048C45.4624 24.2335 45.4633 24.2632 45.4619 24.2924C45.5022 24.268 45.5203 24.2275 45.5383 24.187C45.5631 24.1306 45.5454 24.0519 45.635 24.0308C45.8863 23.9718 45.9425 23.7512 45.9908 23.5509C46.0487 23.31 46.0678 23.0595 46.0994 22.8123C46.1541 22.3859 46.1627 21.9642 45.96 21.5657ZM42.4043 22.47C42.1341 22.4691 41.8858 22.2173 41.8827 21.9414C41.8794 21.6593 42.1337 21.4044 42.4175 21.4051C42.7209 21.406 42.9576 21.6208 42.961 21.8987C42.9645 22.1999 42.7003 22.4711 42.4043 22.47Z" fill="#D7B172"/>
<path d="M39.3213 23.9412C39.2766 23.8706 39.2978 23.7961 39.3078 23.7222C39.3124 23.7952 39.3169 23.8682 39.3213 23.9412Z" fill="#303030"/>
<path d="M39.6842 23.5484C39.6128 23.5907 39.5346 23.6128 39.453 23.625C39.52 23.5692 39.6052 23.5683 39.6842 23.5484Z" fill="#303030"/>
<path d="M39.9107 23.504C39.8523 23.5467 39.7855 23.5465 39.7178 23.5418C39.776 23.4982 39.8505 23.5374 39.9107 23.504Z" fill="#303030"/>
<path d="M39.6842 23.5485C39.6128 23.5907 39.5346 23.6129 39.453 23.625C39.5068 23.5281 39.5959 23.5396 39.6844 23.5485H39.6842Z" fill="#D7B172"/>
<path d="M39.321 23.9412C39.2553 23.872 39.2581 23.7985 39.3075 23.7222C39.3121 23.7952 39.3166 23.8682 39.321 23.9412Z" fill="#D7B172"/>
<path d="M39.9107 23.504C39.8523 23.5467 39.7855 23.5465 39.7178 23.5418C39.7726 23.4808 39.843 23.4996 39.9107 23.504Z" fill="#D7B172"/>
<path d="M56.3829 36.5856C56.3028 36.5314 56.2314 36.4706 56.211 36.3692C56.0732 36.2958 55.976 36.1745 55.8734 36.0643C55.358 35.5107 54.7122 35.3862 53.9953 35.4658C53.4492 35.5264 53.0044 35.7718 52.6343 36.1694C52.5719 36.2365 52.5247 36.3327 52.4097 36.3285C53.0923 35.4528 53.9822 35.2003 55.0374 35.4632C55.5326 35.5866 55.8645 35.9464 56.1993 36.2978C56.2004 36.2993 56.2015 36.3009 56.2026 36.3024H56.2028C56.2112 36.315 56.2203 36.3272 56.2298 36.3394C56.2323 36.3427 56.2349 36.346 56.2376 36.3493C56.2451 36.3637 56.2533 36.3776 56.2619 36.3914C56.2672 36.4002 56.273 36.4088 56.2785 36.4173C56.315 36.4724 56.3553 36.525 56.3829 36.5854V36.5856Z" fill="#2F2F2F"/>
<path d="M56.2298 36.3396C56.2269 36.3491 56.2223 36.3589 56.2152 36.3688C56.2148 36.3695 56.2143 36.3702 56.2139 36.3708C56.213 36.3704 56.2119 36.3697 56.211 36.3693C56.0732 36.2958 55.976 36.1746 55.8734 36.0644C55.358 35.5108 54.7122 35.3862 53.9953 35.4658C53.4492 35.5265 53.0044 35.7718 52.6343 36.1695C52.5719 36.2365 52.5247 36.3328 52.4097 36.3286C52.4342 36.1916 52.4856 36.0681 52.5913 35.9725C52.6504 36.0179 52.669 35.9539 52.6918 35.9283C52.992 35.5875 53.3777 35.4123 53.8165 35.33C54.1973 35.2587 54.5741 35.2607 54.9513 35.3512C55.4441 35.4694 55.7842 35.7986 56.0931 36.1699C56.1287 36.2126 56.18 36.2491 56.2026 36.3024H56.2028C56.2112 36.3151 56.2203 36.3272 56.2298 36.3394V36.3396Z" fill="#BC9B63"/>
<path d="M56.3106 36.3724C56.2935 36.3941 56.2776 36.3963 56.2619 36.3917C56.2533 36.3779 56.2451 36.364 56.2375 36.3496C56.2349 36.3463 56.2322 36.343 56.2298 36.3397C56.2203 36.3275 56.2112 36.3153 56.2028 36.3027H56.2026C56.18 36.2494 56.1287 36.2129 56.0931 36.1702C55.7842 35.7989 55.4441 35.4696 54.9513 35.3515C54.5741 35.261 54.1973 35.259 53.8165 35.3302C53.3777 35.4126 52.992 35.5878 52.6918 35.9285C52.669 35.9542 52.6504 36.0182 52.5913 35.9728C53.2575 35.0457 54.496 34.968 55.3122 35.3336C55.7753 35.5411 56.1008 35.9082 56.3106 36.3726V36.3724Z" fill="#A29E9E"/>
<path d="M56.3105 36.3724C56.2964 36.3981 56.2879 36.4133 56.2784 36.4175C56.2652 36.424 56.2501 36.4087 56.2138 36.3709V36.3684C56.2154 36.3434 56.2109 36.322 56.2028 36.3027C56.2112 36.3153 56.2202 36.3275 56.2298 36.3397C56.2322 36.343 56.2348 36.3463 56.2375 36.3496C56.245 36.364 56.2532 36.3779 56.2618 36.3917C56.2775 36.3963 56.2935 36.3941 56.3105 36.3724Z" fill="#2F2F2F"/>
<path d="M56.3828 36.5856C56.3027 36.5314 56.2312 36.4706 56.2109 36.3692C56.2107 36.3686 56.2107 36.3679 56.2104 36.3672C56.2116 36.3677 56.2127 36.3679 56.2138 36.3684C56.2142 36.3686 56.2147 36.3688 56.2151 36.3688C56.2308 36.3752 56.2461 36.3869 56.2618 36.3916C56.2775 36.3962 56.2934 36.394 56.3105 36.3723C56.3704 36.4314 56.393 36.5031 56.3828 36.5856Z" fill="#BC9B63"/>
<path d="M31.0596 36.8066C30.9578 36.8195 30.9023 36.7794 30.8625 36.679C30.8032 36.5298 30.7202 36.3898 30.6474 36.2459C30.3639 35.9067 30.0113 35.6782 29.5747 35.5939C29.3652 35.5534 29.1514 35.5399 28.9377 35.5381C28.5401 35.5352 28.1422 35.5352 27.7444 35.5339C27.7944 35.4697 27.8659 35.4509 27.9409 35.4512C28.3672 35.4516 28.7932 35.441 29.2202 35.4673C29.8039 35.5034 30.2858 35.7211 30.66 36.1723C30.6717 36.1838 30.683 36.1957 30.6934 36.2081C30.6987 36.2141 30.7036 36.2203 30.7085 36.2265C30.797 36.3387 30.8428 36.4761 30.9107 36.6004C30.9519 36.6752 30.9727 36.7648 31.0596 36.8066Z" fill="#303030"/>
<path d="M30.7085 36.2265C30.693 36.234 30.6729 36.2407 30.6475 36.246C30.364 35.9068 30.0113 35.6782 29.5748 35.5939C29.3652 35.5534 29.1515 35.5399 28.9377 35.5381C28.5401 35.5353 28.1423 35.5353 27.7444 35.5339C27.7427 35.4596 27.7409 35.3852 27.7391 35.3109C28.1777 35.2527 28.6184 35.3036 29.0577 35.2848C29.288 35.2751 29.5095 35.3158 29.7323 35.3702C30.141 35.47 30.4266 35.7377 30.6857 36.044C30.7377 36.1059 30.799 36.1825 30.7085 36.2265Z" fill="#978452"/>
<path d="M31.06 36.8067H31.0596C30.9578 36.8196 30.9023 36.7795 30.8624 36.6791C30.8031 36.5299 30.7202 36.3899 30.6474 36.246C30.6635 36.2337 30.681 36.2217 30.6934 36.2082C30.7124 36.1874 30.7188 36.1622 30.6885 36.1244C30.323 35.671 29.8714 35.3692 29.2718 35.3524C28.8545 35.3406 28.4367 35.349 28.0192 35.3482C27.9243 35.3479 27.8282 35.355 27.7391 35.311C27.7335 35.274 27.7284 35.2291 27.78 35.2302C28.4113 35.2424 29.0456 35.1592 29.6725 35.2948C30.3009 35.4311 30.7053 35.827 30.9465 36.4056C30.9999 36.5333 31.0556 36.6638 31.06 36.8067Z" fill="#5E5439"/>
<path d="M40.6634 38.4486C40.6145 38.5768 40.5024 38.5349 40.4178 38.5254C40.0747 38.4863 39.731 38.5055 39.3874 38.5004C39.2119 38.4978 39.0371 38.5035 38.8621 38.5259C38.7267 38.5431 38.7174 38.525 38.6951 38.3734C38.8097 38.3393 38.9272 38.3588 39.0433 38.3579C39.5111 38.3548 39.9789 38.3548 40.4466 38.3562C40.5296 38.3562 40.6296 38.3285 40.6632 38.4491L40.6634 38.4486Z" fill="#4E4220"/>
<path d="M46.5843 35.923C46.5221 35.9863 46.4935 35.9193 46.4632 35.8872C46.3207 35.7363 46.1627 35.6057 45.9846 35.4989C45.5248 35.2229 45.0336 35.2236 44.5298 35.3314C44.4867 35.3407 44.444 35.3524 44.4008 35.3619C43.974 35.4555 43.6565 35.7011 43.4233 36.0642C43.3994 36.1014 43.379 36.141 43.3522 36.1759C43.3173 36.2215 43.3089 36.177 43.2949 36.1556C43.481 35.7392 43.797 35.444 44.2127 35.2858C44.7969 35.0636 45.3905 35.055 45.9638 35.3473C46.2245 35.4801 46.4389 35.6653 46.5845 35.9232L46.5843 35.923Z" fill="#453625"/>
<path d="M43.2431 42.3171C43.1487 42.2914 43.0947 42.2184 43.0261 42.1726C42.5864 41.8789 41.9872 41.9259 41.6047 42.289C41.5252 42.3644 41.4445 42.4385 41.3644 42.5131C41.6682 41.8473 42.6059 41.7652 43.0484 42.113C42.7876 41.892 42.5493 41.8236 42.1727 41.8486C42.0846 41.8544 41.9631 41.9212 41.9248 41.7648C41.9653 41.809 42.0173 41.8079 42.0678 41.7949C42.2736 41.7411 42.4773 41.7803 42.6794 41.8119C42.9143 41.8484 43.1825 42.0907 43.2431 42.3171Z" fill="#302F2F"/>
<path d="M43.2431 42.3171C43.1487 42.2914 43.0947 42.2184 43.0261 42.1726C42.5864 41.8789 41.9872 41.9259 41.6047 42.289C41.5252 42.3644 41.4445 42.4385 41.3644 42.5131C41.4075 42.156 41.5887 41.9022 41.9248 41.7648C41.9653 41.809 42.0173 41.8079 42.0678 41.7949C42.2736 41.7411 42.4773 41.7803 42.6794 41.8119C42.9143 41.8484 43.1825 42.0907 43.2431 42.3171Z" fill="#9E8441"/>
<path d="M53.4769 0H75.5939C80.719 0 84.8736 4.15468 84.8736 9.27973V15.8929H53.4769V0Z" fill="#333333"/>
<path d="M61.323 4.11172C61.4151 3.82816 61.8162 3.82816 61.9084 4.11172L62.6982 6.54265C62.7394 6.66946 62.8576 6.75532 62.991 6.75532H65.547C65.8451 6.75532 65.9691 7.13685 65.7279 7.3121L63.66 8.8145C63.5521 8.89287 63.507 9.03179 63.5482 9.1586L64.3381 11.5895C64.4302 11.8731 64.1057 12.1089 63.8644 11.9336L61.7966 10.4312C61.6887 10.3529 61.5426 10.3529 61.4348 10.4312L59.3669 11.9336C59.1257 12.1089 58.8011 11.8731 58.8933 11.5895L59.6831 9.1586C59.7243 9.03179 59.6792 8.89287 59.5713 8.8145L57.5034 7.3121C57.2622 7.13685 57.3862 6.75532 57.6843 6.75532H60.2404C60.3737 6.75532 60.4919 6.66946 60.5331 6.54265L61.323 4.11172Z" fill="#EEC584"/>
<path d="M71.8568 5.16277H72.5118C72.437 5.56827 72.3122 5.95194 72.1375 6.31377C71.9691 6.6756 71.7882 6.96569 71.5948 7.18404C71.4014 7.40238 71.2111 7.59266 71.0239 7.75486C70.843 7.91706 70.6933 8.03247 70.5748 8.10109L70.3876 8.20403H72.5773L73.1762 4.81653H73.8874L73.2885 8.20403H74.0839L73.9623 8.87778C73.9623 8.87778 73.6971 8.87778 73.1669 8.87778L72.8113 10.899H72.1094C72.1094 10.899 72.228 10.2253 72.465 8.87778C72.465 8.87778 71.5792 8.87778 69.8074 8.87778C69.8074 8.87778 69.8449 8.6532 69.9197 8.20403C69.9634 8.17283 70.0227 8.12605 70.0975 8.06366C70.1724 7.99504 70.3065 7.85779 70.4999 7.65192C70.6995 7.43981 70.8805 7.22459 71.0427 7.00624C71.2049 6.78165 71.3671 6.50092 71.5293 6.16405C71.6915 5.82717 71.8006 5.49341 71.8568 5.16277ZM75.4401 11.0394C75.4401 11.0394 75.1718 11.0394 74.6353 11.0394C74.6353 11.0394 74.6852 10.7524 74.785 10.1785C74.785 10.1785 75.0533 10.1785 75.5898 10.1785C75.5898 10.1785 75.5399 10.4655 75.4401 11.0394ZM81.2787 5.57451C81.2787 5.57451 80.2431 5.57451 78.1719 5.57451C78.1719 5.57451 78.0565 6.22955 77.8257 7.53963C78.0503 7.28385 78.3061 7.0811 78.593 6.93138C78.8862 6.78165 79.1794 6.70679 79.4726 6.70679C79.953 6.70679 80.3304 6.89395 80.6049 7.26826C80.8857 7.63633 80.9699 8.151 80.8576 8.81228C80.7391 9.46732 80.4646 9.99759 80.0341 10.4031C79.6099 10.8086 79.0827 11.0113 78.4527 11.0113C77.8662 11.0113 77.4202 10.8647 77.1145 10.5715C76.8088 10.2783 76.6965 9.90401 76.7776 9.4486C76.8151 9.21778 76.9024 8.97136 77.0396 8.70934L77.7134 8.82164C77.5886 9.01503 77.5075 9.21466 77.4701 9.42053C77.4327 9.66383 77.5169 9.8697 77.7228 10.0381C77.9349 10.2066 78.2218 10.2908 78.5837 10.2908C78.9829 10.2908 79.3229 10.1567 79.6037 9.88841C79.8844 9.61392 80.0653 9.25521 80.1464 8.81228C80.2275 8.33192 80.1714 7.95449 79.978 7.67999C79.7846 7.39926 79.5101 7.2589 79.1545 7.2589C78.6928 7.2589 78.2312 7.45853 77.7695 7.85779H77.0584L77.5917 4.82589H81.419L81.2787 5.57451Z" fill="#D1D1D1"/>
</svg>
