<svg width="9" height="8" viewBox="0 0 9 8" fill="none" xmlns="http://www.w3.org/2000/svg">
<path d="M4.5821 0.207295C4.6719 -0.0690983 5.06293 -0.0690983 5.15273 0.207295L5.92263 2.5768C5.96279 2.70041 6.07798 2.78409 6.20795 2.78409H8.69939C8.99001 2.78409 9.11084 3.15598 8.87573 3.3268L6.86011 4.79123C6.75496 4.86763 6.71096 5.00304 6.75113 5.12664L7.52103 7.49615C7.61083 7.77254 7.29449 8.00238 7.05937 7.83156L5.04375 6.36713C4.9386 6.29073 4.79623 6.29073 4.69108 6.36713L2.67546 7.83156C2.44034 8.00238 2.124 7.77254 2.21381 7.49615L2.98371 5.12664C3.02387 5.00304 2.97987 4.86763 2.87472 4.79123L0.859103 3.3268C0.623989 3.15598 0.744821 2.78409 1.03544 2.78409H3.52688C3.65685 2.78409 3.77204 2.70041 3.8122 2.5768L4.5821 0.207295Z" fill="#EEC584"/>
</svg>
