<svg width="60" height="60" viewBox="0 0 60 60" fill="none" xmlns="http://www.w3.org/2000/svg">
<path d="M0 16C0 8.45753 0 4.68629 2.34315 2.34315C4.68629 0 8.45753 0 16 0H44C51.5425 0 55.3137 0 57.6569 2.34315C60 4.68629 60 8.45753 60 16V44C60 51.5425 60 55.3137 57.6569 57.6569C55.3137 60 51.5425 60 44 60H16C8.45753 60 4.68629 60 2.34315 57.6569C0 55.3137 0 51.5425 0 44V16Z" fill="#212121"/>
<g clip-path="url(#clip0_179_1341)">
<path d="M44.9795 44.9941C35.0761 44.9941 25.1727 44.9934 15.2693 44.9993C15.0499 44.9993 14.9956 44.9508 15 44.73C15.0154 43.9397 15.0059 43.1488 15.0059 42.3585C15.0917 42.2675 15.2003 42.2389 15.3214 42.2396C15.8622 42.2433 16.4029 42.2198 16.9437 42.2536C17.0992 42.2352 17.2548 42.2367 17.4111 42.2367C21.9941 42.2367 26.5778 42.2367 31.1608 42.2367C31.3171 42.2367 31.4726 42.236 31.6282 42.2536C31.7742 42.2396 31.9202 42.2367 32.0662 42.2367C34.933 42.2367 37.799 42.2367 40.6658 42.2367C40.8118 42.2367 40.9585 42.2352 41.1038 42.2536C41.7341 42.2286 42.3644 42.2257 42.9954 42.2536C43.5597 42.2191 44.1239 42.2411 44.6882 42.2396C44.9127 42.2396 45.0183 42.3299 45.0139 42.5757C45.0015 43.3153 45.0095 44.0549 45.0088 44.7946C45.0088 44.8613 45.0227 44.9318 44.9802 44.9927L44.9795 44.9941Z" fill="#CDD5DF"/>
<path d="M16.9481 26.6512C16.2202 26.3159 15.631 25.8367 15.2832 25.0905C15.1497 24.8043 15.1086 24.4962 15.0066 24.2041V21.0417C15.1078 20.9397 15.2392 20.9551 15.3639 20.9551C17.1249 20.9536 18.8859 20.9536 20.6469 20.9551C20.7621 20.9551 20.8817 20.9404 20.9874 21.0101C21.1136 21.1334 21.0982 21.2934 21.0982 21.4474C21.1004 22.2237 21.1004 23.0001 21.0989 23.7764C21.0593 24.3215 20.9837 24.8498 20.7122 25.3466C20.1546 26.3665 18.9431 27.0313 17.786 26.9051C17.4933 26.8728 17.1704 26.9241 16.9488 26.6512H16.9481Z" fill="#FE4155"/>
<path d="M15.0066 20.925C15.0198 20.9096 15.0359 20.9059 15.055 20.9133C15.1849 20.8634 15.3199 20.8612 15.4564 20.8612C17.1381 20.8626 18.8206 20.8612 20.5024 20.8634C20.6557 20.8634 20.8164 20.837 20.9529 20.9419C20.9859 20.9712 20.9925 21.005 20.9727 21.0446C18.9842 21.0439 16.995 21.0431 15.0066 21.0417V20.9243V20.925Z" fill="#F48878"/>
<path d="M16.9481 26.6512C17.5857 26.8324 18.2277 26.8786 18.872 26.6908C20.0151 26.3584 20.9954 25.2637 20.9896 23.86C21.1502 23.8901 21.1268 24.0258 21.1392 24.1337C21.3095 25.6203 22.3793 26.6365 23.9532 26.6937C25.4427 26.748 26.533 25.723 26.8184 24.4565C26.8463 24.334 26.8251 24.1704 27.0063 24.1315C27.1376 24.2144 27.1457 24.3582 27.1787 24.4881C27.7158 26.6233 30.245 27.4245 31.9107 25.9835C32.3663 25.5894 32.6583 25.0912 32.8044 24.5057C32.8388 24.3678 32.8388 24.2093 32.9929 24.13C33.172 24.1909 33.1463 24.3634 33.183 24.4954C33.4978 25.6291 34.2124 26.3834 35.3637 26.6174C37.1298 26.9762 38.4535 25.8969 38.7947 24.469C38.8336 24.3054 38.8365 24.141 38.8365 23.9752C38.838 23.1373 38.8343 22.2993 38.8394 21.4606C38.8402 21.3095 38.8123 21.1429 38.9634 21.0321C38.9987 21.0248 39.0273 21.0351 39.0493 21.063C39.1417 21.2031 39.1219 21.3623 39.1227 21.5164C39.1256 22.3243 39.1212 23.1329 39.1249 23.9407C39.1307 25.3378 40.2717 26.5529 41.6666 26.6717C42.0004 26.7003 42.3255 26.6761 42.652 26.627C42.765 26.6101 42.8831 26.5683 42.9836 26.6659C42.9836 31.8953 42.9829 37.1247 42.9822 42.3534C42.3585 42.3519 41.7348 42.3504 41.1104 42.3482C40.9739 42.2286 40.9944 42.0665 40.9944 41.9117C40.9915 40.8477 40.993 39.7838 40.993 38.7199C40.993 35.509 40.993 32.2981 40.993 29.0872C40.993 28.9801 40.9908 28.8722 40.9908 28.7651C40.9908 28.5692 40.8947 28.4804 40.7017 28.4833C40.6136 28.4848 40.5263 28.4819 40.4383 28.4819C37.7263 28.4819 35.0137 28.4819 32.3017 28.4819C32.2137 28.4819 32.1264 28.4848 32.0383 28.4833C31.8417 28.4804 31.7551 28.5802 31.7551 28.7717C31.7551 28.8891 31.7529 29.0058 31.7529 29.1232C31.7529 33.3488 31.7529 37.5752 31.7507 41.8009C31.7507 41.9902 31.7999 42.1978 31.6208 42.3475C31.5819 42.3504 31.543 42.3548 31.5042 42.3548C26.6497 42.3541 21.7952 42.3526 16.9407 42.3519C16.94 37.1562 16.9393 31.9606 16.9385 26.7649C16.9385 26.726 16.9437 26.6871 16.9466 26.6482L16.9481 26.6512Z" fill="#FEDC40"/>
<path d="M31.6223 42.3504C31.6223 37.7939 31.6237 33.2373 31.6164 28.6807C31.6164 28.4445 31.6692 28.3659 31.9202 28.3667C34.8852 28.3755 37.8503 28.3755 40.8154 28.3667C41.0656 28.3659 41.1177 28.4445 41.1177 28.68C41.1111 33.2366 41.1126 37.7931 41.1118 42.3497C39.7104 42.3526 38.3089 42.3585 36.9074 42.3585C35.1457 42.3585 33.384 42.3534 31.6223 42.3504Z" fill="#415A6B"/>
<path d="M37.6787 15.0169C37.7315 15.011 37.7843 15.0059 37.8371 15C39.3765 15.0029 40.9159 15.0125 42.4553 15.0037C42.7063 15.0022 42.8237 15.0646 42.9125 15.3133C43.5494 17.1007 44.2061 18.8808 44.8554 20.6631C44.8855 20.7452 44.9061 20.8296 44.931 20.9133C44.9163 21.0879 44.7769 21.0637 44.6683 21.0666C44.3572 21.0762 44.0461 21.0703 43.735 21.0703C42.3152 21.0703 40.8961 21.0703 39.4763 21.0703C39.3406 21.0703 39.2041 21.0864 39.0713 21.0453C38.8548 20.9991 38.8277 20.8149 38.7903 20.6462C38.5724 19.66 38.3552 18.6731 38.1409 17.6862C37.981 16.9459 37.8093 16.2077 37.6581 15.4659C37.6273 15.3148 37.573 15.1622 37.6787 15.0169Z" fill="#FE7185"/>
<path d="M42.9843 26.6673C42.084 26.908 41.2109 26.8801 40.4023 26.3687C39.5614 25.836 39.0537 25.0714 39.0155 24.0684C38.9766 23.0668 39.0089 22.0631 39.0104 21.0608C39.0683 20.9808 39.1534 21.0145 39.2261 21.0145C41.0759 21.0123 42.9249 21.0131 44.7747 21.0138C44.8407 21.0138 44.9119 20.9962 44.9713 21.0461C44.9706 22.1159 45.0586 23.1901 44.9332 24.2533C44.7996 25.3906 44.1297 26.161 43.0863 26.6123C43.0511 26.6277 43.0188 26.649 42.9851 26.6681L42.9843 26.6673Z" fill="#FE4155"/>
<path d="M44.9706 21.0453C43.0416 21.0439 41.1126 21.0431 39.1836 21.0424C39.1256 21.0424 39.0676 21.0534 39.0097 21.06H38.9855C38.973 21.0321 38.9774 21.0079 38.9994 20.9874C40.8565 20.9859 42.7144 20.9852 44.5715 20.9822C44.6933 20.9822 44.8276 21.0211 44.931 20.914C44.9736 20.9492 44.9787 20.9954 44.9706 21.0461V21.0453Z" fill="#F48878"/>
<path d="M26.9982 24.1403C26.8947 24.7009 26.7223 25.2328 26.3518 25.6797C25.5307 26.6695 24.4704 27.0151 23.2429 26.7106C22.0366 26.412 21.3249 25.585 21.0482 24.3788C21.0093 24.2085 21.0578 24.0273 20.9895 23.86C20.9837 22.9215 20.9778 21.9831 20.9727 21.0446C20.9727 21.0241 20.9741 21.0028 20.9749 20.9822C20.9771 20.9037 21.0314 20.9008 21.0901 20.9023C21.8869 20.9434 22.6845 20.9177 23.4813 20.9191C24.6568 20.9206 25.8323 20.9331 27.0077 20.9074C27.0569 20.9448 27.0826 20.9947 27.0921 21.0541C27.1574 21.2941 27.1259 21.5392 27.1273 21.782C27.131 22.4351 27.1317 23.0888 27.1273 23.7419C27.1266 23.8864 27.1435 24.0398 26.9989 24.1396L26.9982 24.1403Z" fill="#E7E9E8"/>
<path d="M38.9994 20.9874C38.995 21.0116 38.9899 21.0358 38.9855 21.06C38.9744 21.9955 38.9312 22.9311 38.9612 23.8651C38.9994 25.0487 38.1637 26.2359 37.0065 26.6394C35.7834 27.0665 34.4428 26.682 33.654 25.7017C33.282 25.2394 33.0949 24.7089 32.9878 24.1388C32.8843 24.0743 32.8616 23.9701 32.8616 23.8607C32.8616 22.9289 32.8374 21.997 32.8733 21.0659C32.7449 19.6644 32.6569 18.26 32.5564 16.8564C32.5219 16.3728 32.4823 15.8893 32.45 15.405C32.4412 15.2693 32.4434 15.1306 32.5476 15.0205C34.2579 15.0191 35.9676 15.0176 37.6779 15.0169C38.1035 16.9716 38.5291 18.9263 38.9554 20.8803C38.9634 20.9169 38.984 20.9514 38.9979 20.9874H38.9994Z" fill="#F2F2F2"/>
<path d="M26.9967 20.9243C26.9226 21.038 26.8096 21.0431 26.6885 21.0431C24.8975 21.0409 23.1057 21.0424 21.3146 21.0409C21.2038 21.0409 21.0702 21.0754 21.0291 20.9125C20.9117 20.7988 20.947 20.6623 20.9756 20.5295C21.3505 18.781 21.7387 17.0347 22.1232 15.2884C22.1466 15.1827 22.1826 15.0829 22.2684 15.0088C23.9891 15.011 25.709 15.0132 27.4296 15.0154C27.5866 15.19 27.5412 15.4006 27.5213 15.6002C27.4516 16.3149 27.4245 17.0325 27.3592 17.7472C27.2711 18.7128 27.2469 19.6835 27.1281 20.6469C27.1148 20.754 27.1024 20.8612 26.9967 20.9243Z" fill="#F2F2F2"/>
<path d="M26.9968 20.9243C27.1406 18.9549 27.2851 16.9855 27.4289 15.0154C29.1356 15.0169 30.8416 15.0183 32.5483 15.0205C32.6341 16.2723 32.7178 17.5241 32.808 18.7759C32.8557 19.4355 32.9159 20.0937 32.9673 20.7533C32.9746 20.8494 32.9673 20.947 32.9665 21.0446C32.8755 21.1554 32.7493 21.162 32.6209 21.1627C30.8688 21.1657 29.1166 21.1657 27.3644 21.1627C27.2352 21.1627 27.1098 21.1547 27.018 21.0453C27.0107 21.0057 27.0041 20.9654 26.9968 20.9257V20.9243Z" fill="#FE7185"/>
<path d="M22.2685 15.0088C22.2083 15.6457 22.0153 16.2562 21.8818 16.8777C21.6074 18.1559 21.3205 19.4311 21.0409 20.7078C21.0262 20.7731 21.0328 20.8436 21.0299 20.9118C21.0116 20.9353 20.9932 20.958 20.9756 20.9815C19.1126 20.9815 17.2496 20.983 15.3874 20.9815C15.2736 20.9815 15.1504 21.0138 15.0565 20.9125C15.5385 19.5764 16.0206 18.2402 16.5034 16.9048C16.6956 16.3743 16.9018 15.8482 17.0772 15.3118C17.1498 15.0837 17.2518 15.0007 17.5028 15.0029C19.0913 15.0161 20.6799 15.0095 22.2685 15.0088Z" fill="#FE7185"/>
<path d="M24.1058 28.3726C25.7442 28.3726 27.3834 28.3777 29.0219 28.3674C29.2765 28.3659 29.3711 28.4151 29.3704 28.6983C29.3594 31.6451 29.3594 34.5918 29.3704 37.5385C29.3711 37.8174 29.2838 37.8731 29.0255 37.8724C25.7288 37.8643 22.4321 37.865 19.1354 37.8724C18.8903 37.8724 18.8052 37.8254 18.8059 37.5561C18.8169 34.5999 18.8162 31.6429 18.8059 28.6866C18.8052 28.4224 18.8793 28.3652 19.1317 28.3667C20.79 28.3784 22.4482 28.3726 24.1058 28.3726Z" fill="#415A6B"/>
<path d="M27.018 21.0439C29.0006 21.0439 30.9839 21.0439 32.9665 21.0439C32.9739 22.0755 32.9812 23.1072 32.9885 24.1388C32.8601 24.9584 32.5043 25.6452 31.8512 26.1801C30.1754 27.5537 27.47 26.5829 27.0635 24.4551C27.0437 24.3502 27.0202 24.2452 26.9982 24.1403C27.0048 23.1086 27.0114 22.0763 27.018 21.0446V21.0439Z" fill="#FE4155"/>
<path d="M40.1756 35.3923C40.1756 37.3045 40.1712 39.2166 40.1814 41.1287C40.1829 41.3768 40.1103 41.4347 39.8703 41.434C37.5297 41.4252 35.1898 41.4259 32.8491 41.434C32.6224 41.4347 32.5527 41.3775 32.5527 41.1427C32.56 37.2993 32.56 33.4552 32.5527 29.6118C32.5527 29.3653 32.6246 29.3037 32.8652 29.3044C35.2059 29.3132 37.5458 29.3125 39.8865 29.3044C40.1154 29.3037 40.1822 29.3653 40.1807 29.5972C40.1712 31.5284 40.1756 33.4604 40.1756 35.3916V35.3923Z" fill="#89D6F7"/>
<path d="M24.1043 29.3095C25.4398 29.3095 26.7759 29.3147 28.1113 29.3051C28.3425 29.3037 28.432 29.3499 28.4312 29.606C28.4217 31.9466 28.4217 34.2873 28.4312 36.6279C28.432 36.8767 28.3542 36.9354 28.1165 36.9347C25.4258 36.9273 22.7344 36.9266 20.0438 36.9354C19.7899 36.9361 19.7429 36.851 19.7437 36.6184C19.7517 34.2873 19.7532 31.9562 19.7422 29.6251C19.7407 29.3624 19.8141 29.3015 20.068 29.3037C21.413 29.3161 22.7586 29.3095 24.1043 29.3095Z" fill="#89D6F7"/>
<path d="M33.7406 34.5698C34.1919 34.5698 34.5595 34.9418 34.5514 35.3894C34.5441 35.823 34.1743 36.1833 33.7377 36.1826C33.3011 36.1818 32.9328 35.8201 32.9269 35.3872C32.921 34.9389 33.2886 34.569 33.7406 34.5698Z" fill="#415A6B"/>
<path d="M20.6249 33.8346C20.6139 33.6893 20.6733 33.5609 20.7819 33.4515C21.7395 32.4933 22.6977 31.535 23.6553 30.5767C23.7719 30.4601 23.9069 30.3962 24.075 30.4146C24.392 30.4483 24.527 30.711 24.3597 30.981C24.2988 31.0793 24.2225 31.1703 24.1403 31.2525C23.2326 32.1646 22.3221 33.0737 21.4129 33.9835C21.3087 34.0877 21.2053 34.1904 21.0505 34.2139C20.7805 34.2543 20.6212 34.1171 20.6242 33.8346H20.6249Z" fill="#55BFEA"/>
<path d="M22.4409 34.5052C22.4233 34.368 22.4805 34.2645 22.5766 34.1684C23.171 33.5785 23.7616 32.9856 24.3538 32.3935C24.4536 32.2937 24.568 32.2284 24.7148 32.2277C24.8828 32.2277 25.0281 32.2842 25.1051 32.436C25.18 32.5835 25.1198 32.7259 25.0149 32.8381C24.8285 33.037 24.6333 33.227 24.4403 33.42C23.9935 33.8676 23.5466 34.3159 23.0969 34.7613C22.9728 34.8838 22.8334 34.9594 22.6507 34.8794C22.4834 34.806 22.4203 34.6806 22.4409 34.5052Z" fill="#55BFEA"/>
</g>
<defs>
<clipPath id="clip0_179_1341">
<rect width="30.0132" height="30" fill="white" transform="translate(15 15)"/>
</clipPath>
</defs>
</svg>
