<svg width="60" height="60" viewBox="0 0 60 60" fill="none" xmlns="http://www.w3.org/2000/svg">
<path d="M0 16C0 8.45753 0 4.68629 2.34315 2.34315C4.68629 0 8.45753 0 16 0H44C51.5425 0 55.3137 0 57.6569 2.34315C60 4.68629 60 8.45753 60 16V44C60 51.5425 60 55.3137 57.6569 57.6569C55.3137 60 51.5425 60 44 60H16C8.45753 60 4.68629 60 2.34315 57.6569C0 55.3137 0 51.5425 0 44V16Z" fill="#212121"/>
<g clip-path="url(#clip0_179_1364)">
<path d="M29.8481 45C29.1212 44.5864 28.3535 44.2543 27.6031 43.89C24.7887 42.524 21.9695 41.1673 19.152 39.8066C18.2567 39.3743 17.3652 38.934 16.4637 38.5158C16.1409 38.3661 15.9999 38.1672 15.9999 37.7967C16.0101 32.5908 16.0062 27.3857 16.0086 22.1798C16.0086 22.0482 15.9702 21.9049 16.072 21.7874C16.202 21.6989 16.3156 21.7717 16.4276 21.8265C17.5932 22.3952 18.7642 22.9514 19.9306 23.5185C22.4215 24.7279 24.9195 25.924 27.4104 27.1327C28.2258 27.5283 29.035 27.9387 29.863 28.31C30.0126 28.3774 30.1724 28.4439 30.2131 28.6351C30.2429 28.7902 30.235 28.9468 30.235 29.1027C30.235 34.2138 30.2358 39.3249 30.2335 44.4368C30.2335 44.6279 30.2766 44.8308 30.1395 45.0008H29.8465L29.8481 45Z" fill="#FEDC40"/>
<path d="M29.8481 45C29.1212 44.5864 28.3535 44.2543 27.6031 43.89C24.7887 42.524 21.9695 41.1673 19.152 39.8066C18.2567 39.3743 17.3652 38.934 16.4637 38.5158C16.1409 38.3661 15.9999 38.1672 15.9999 37.7967C16.0101 32.5908 16.0062 27.3857 16.0086 22.1798C16.0086 22.0482 15.9702 21.9049 16.072 21.7874C16.202 21.6989 16.3156 21.7717 16.4276 21.8265C17.5932 22.3952 18.7642 22.9514 19.9306 23.5185C22.4215 24.7279 24.9195 25.924 27.4104 27.1327C28.2258 27.5283 29.035 27.9387 29.863 28.31C30.0126 28.3774 30.1724 28.4439 30.2131 28.6351C30.2429 28.7902 30.235 28.9468 30.235 29.1027C30.235 34.2138 30.2358 39.3249 30.2335 44.4368C30.2335 44.6279 30.2766 44.8308 30.1395 45.0008H29.8465L29.8481 45Z" fill="#E5C63A"/>
<path d="M30.141 45C30.141 39.5106 30.141 34.0211 30.1403 28.5309C30.2303 28.3429 30.4254 28.3006 30.5891 28.2293C31.3505 27.898 32.0852 27.511 32.8333 27.1515C33.7043 26.7332 34.584 26.3306 35.4417 25.8849C35.5192 25.8449 35.596 25.7995 35.6877 25.794C35.7401 25.7964 35.784 25.8144 35.8091 25.8637C35.8702 26.0039 35.8537 26.152 35.8537 26.2977C35.8553 27.7625 35.8537 29.2281 35.8545 30.6928C35.8545 30.7806 35.8514 30.8691 35.8569 30.9568C35.8741 31.256 35.9563 31.3124 36.2227 31.1926C37.1485 30.7751 38.0525 30.3129 38.9721 29.8813C39.2823 29.7356 39.3763 29.4897 39.3747 29.1685C39.3684 27.4883 39.3802 25.8089 39.3669 24.1295C39.363 24.0974 39.3661 24.0653 39.3755 24.0347C39.7993 23.7566 40.2645 23.5561 40.7204 23.3399C41.7505 22.8503 42.7758 22.3522 43.802 21.8548C43.9289 21.7937 44.0542 21.6871 44.2093 21.7897C44.3049 21.8861 44.2735 22.0106 44.2735 22.1234C44.2759 27.3685 44.2727 32.6135 44.2814 37.8586C44.2814 38.215 44.1067 38.381 43.8192 38.5189C39.4029 40.6456 34.9889 42.777 30.575 44.9084C30.5256 44.9326 30.4583 44.9358 30.4356 45.0016H30.1426L30.141 45Z" fill="#FEDC40"/>
<path d="M35.6532 25.8269C35.224 26.1136 34.7485 26.3126 34.2879 26.5389C33.4521 26.951 32.6069 27.3442 31.7664 27.7468C31.2236 28.0069 30.6816 28.2701 30.1395 28.5317C28.2016 27.5917 26.2645 26.6517 24.3266 25.7126C23.2918 25.2112 22.2555 24.7146 21.2199 24.2157C19.5875 23.4284 17.9551 22.6412 16.3235 21.854C16.2436 21.8156 16.1637 21.7803 16.0728 21.7874C16.1308 21.666 16.2342 21.597 16.3509 21.5406C18.1173 20.6908 19.8828 19.8401 21.6492 18.9902C22.1466 19.1664 22.6103 19.421 23.0819 19.6513C24.589 20.3884 26.1031 21.1106 27.6118 21.843C29.928 22.9663 32.2513 24.077 34.566 25.2042C34.855 25.3452 35.155 25.4642 35.4378 25.6178C35.5263 25.6656 35.6485 25.6883 35.6532 25.8269Z" fill="#FEDC40"/>
<path d="M44.2085 21.7882C44.1059 21.778 44.0198 21.8242 43.932 21.8673C42.5315 22.5488 41.1301 23.2287 39.7296 23.9102C39.6246 23.9611 39.5259 24.0284 39.4014 24.0175C39.2964 24.0645 39.2126 24.0002 39.1264 23.9611C38.1512 23.5146 37.1917 23.036 36.2266 22.5684C34.226 21.5986 32.2247 20.6312 30.2233 19.6631C28.7053 18.9283 27.1872 18.1936 25.6676 17.4627C25.554 17.4079 25.3942 17.3875 25.3793 17.2121C26.0639 16.8181 26.7924 16.5134 27.499 16.1632C28.1977 15.817 28.9066 15.4911 29.6029 15.1402C29.9633 14.9585 30.3017 14.9546 30.6643 15.13C33.0934 16.3089 35.5248 17.4823 37.9554 18.6565C39.9129 19.602 41.8704 20.5451 43.8279 21.4889C43.9775 21.561 44.1326 21.6245 44.2085 21.789V21.7882Z" fill="#FEDC40"/>
<path d="M25.3793 17.2113C26.0279 17.6115 26.736 17.892 27.4175 18.2257C29.3702 19.1837 31.3293 20.126 33.2868 21.073C35.0164 21.9096 36.7467 22.7446 38.4762 23.5788C38.7833 23.7269 39.0927 23.871 39.4013 24.0167C39.4037 24.0347 39.4045 24.0535 39.4037 24.0715C39.3692 24.1898 39.2619 24.2266 39.1679 24.272C38.1261 24.7726 37.0866 25.2762 36.055 25.7971C35.9634 25.8434 35.8678 25.9131 35.7566 25.8363C35.7221 25.8332 35.6876 25.83 35.6524 25.8269C34.8244 25.4172 33.998 25.0029 33.1677 24.5987C32.2137 24.1342 31.2549 23.6791 30.2993 23.2177C27.8616 22.0396 25.4255 20.8607 22.9886 19.6818C22.5359 19.4625 22.0565 19.2949 21.6484 18.9894C22.828 18.4199 24.0085 17.8497 25.1889 17.2818C25.2493 17.2528 25.3151 17.234 25.3785 17.2105L25.3793 17.2113Z" fill="#FE7185"/>
<path d="M21.932 35.8635C21.8208 35.8744 21.7221 35.8353 21.6241 35.7875C20.3607 35.1757 19.0972 34.5655 17.8345 33.9538C17.6629 33.8707 17.5133 33.7634 17.482 33.5566C17.4225 33.1595 17.7797 32.8759 18.1525 33.0342C18.4658 33.1673 18.7713 33.3201 19.0784 33.4681C20.0787 33.9522 21.0797 34.4339 22.0761 34.9243C22.4607 35.1131 22.5336 35.4977 22.2524 35.753C22.1591 35.8376 22.0542 35.8729 21.9312 35.8627L21.932 35.8635Z" fill="#FEF5D7"/>
<path d="M17.4812 35.6402C17.4953 35.2658 17.8126 35.0441 18.1361 35.1945C18.8426 35.5219 19.5429 35.8635 20.2385 36.2136C20.5024 36.3468 20.5776 36.6107 20.4625 36.8559C20.3528 37.0886 20.0834 37.1974 19.821 37.0752C19.1324 36.7549 18.4486 36.4243 17.771 36.0828C17.5979 35.9958 17.4444 35.858 17.4812 35.6402Z" fill="#FEE07C"/>
<path d="M35.7574 25.8363C35.9532 25.8011 36.1138 25.6851 36.2877 25.5998C37.3271 25.0922 38.3658 24.5815 39.4045 24.0715C39.4852 24.1647 39.4515 24.2767 39.4515 24.3809C39.4538 25.9922 39.4476 27.6035 39.457 29.2147C39.4593 29.5805 39.3308 29.8124 38.9893 29.9698C38.0509 30.403 37.125 30.862 36.1929 31.3085C35.8937 31.4519 35.7637 31.3657 35.7629 31.021C35.7597 29.2931 35.759 27.5643 35.7574 25.8363Z" fill="#FE4155"/>
</g>
<defs>
<clipPath id="clip0_179_1364">
<rect width="28.2799" height="30" fill="white" transform="translate(16 15)"/>
</clipPath>
</defs>
</svg>
