<svg width="18" height="18" viewBox="0 0 18 18" fill="none" xmlns="http://www.w3.org/2000/svg">
<g id="Frame">
<path id="Vector" d="M2.25 7.5V14.25C2.25 15.0784 2.92157 15.75 3.75 15.75H14.25C15.0784 15.75 15.75 15.0784 15.75 14.25V7.5" stroke="#ABABAB" strokeWidth="1.05" strokeLinecap="round" strokeLinejoin="round"/>
<path id="Vector_2" d="M11.1249 15.75V11.25C11.1249 10.4216 10.4534 9.75 9.62493 9.75H8.12493C7.29651 9.75 6.62494 10.4216 6.62494 11.25V15.75" stroke="#ABABAB" strokeWidth="1.05" strokeLinecap="round" strokeLinejoin="round"/>
<path id="Vector_3" d="M16.3637 7.02313L15.0932 2.57638C15.038 2.38319 14.8615 2.25 14.6605 2.25H11.625L11.9815 6.52783C11.9932 6.66782 12.0692 6.79428 12.1899 6.86621C12.4819 7.04024 13.0539 7.36274 13.5 7.5C14.2618 7.73438 15.3756 7.64985 16.0099 7.57185C16.2737 7.53945 16.4368 7.27867 16.3637 7.02313Z" stroke="#ABABAB" strokeWidth="1.05" strokeLinecap="round" strokeLinejoin="round"/>
<path id="Vector_4" d="M10.5 7.5C10.9256 7.36903 11.4659 7.06942 11.7681 6.89105C11.9121 6.80614 11.9913 6.64577 11.9774 6.47928L11.625 2.25H6.37497L6.02253 6.47928C6.00865 6.64577 6.08789 6.80614 6.23176 6.89105C6.53402 7.06942 7.07434 7.36903 7.49997 7.5C8.61972 7.84455 9.38022 7.84455 10.5 7.5Z" stroke="#ABABAB" strokeWidth="1.05" strokeLinecap="round" strokeLinejoin="round"/>
<path id="Vector_5" d="M2.90672 2.57638L1.63621 7.02313C1.5632 7.27867 1.72632 7.53945 1.99009 7.57185C2.62434 7.64985 3.73815 7.73438 4.49997 7.5C4.94605 7.36274 5.5181 7.04024 5.81005 6.86621C5.93072 6.79428 6.00682 6.66782 6.01849 6.52783L6.37497 2.25H3.3394C3.13849 2.25 2.96191 2.38319 2.90672 2.57638Z" stroke="#ABABAB" strokeWidth="1.05" strokeLinecap="round" strokeLinejoin="round"/>
</g>
</svg>
