<svg width="60" height="60" viewBox="0 0 60 60" fill="none" xmlns="http://www.w3.org/2000/svg">
<path d="M0 16C0 8.45753 0 4.68629 2.34315 2.34315C4.68629 0 8.45753 0 16 0H44C51.5425 0 55.3137 0 57.6569 2.34315C60 4.68629 60 8.45753 60 16V44C60 51.5425 60 55.3137 57.6569 57.6569C55.3137 60 51.5425 60 44 60H16C8.45753 60 4.68629 60 2.34315 57.6569C0 55.3137 0 51.5425 0 44V16Z" fill="#212121"/>
<g clip-path="url(#clip0_179_1242)">
<path d="M39.3866 41.792C37.3868 43.423 35.1082 44.4292 32.5602 44.8246C32.1209 44.8927 31.6785 44.9428 31.2377 45.0008H29.2456C28.887 44.8755 28.5049 44.8998 28.1369 44.8293C27.6812 44.7416 27.2207 44.6758 26.7752 44.5388C26.3453 43.7691 26.3618 42.9978 26.7729 42.2281C26.8465 42.0911 26.9302 41.9595 27.007 41.8248C27.2521 41.7505 27.5042 41.6855 27.5653 41.3793C27.6021 40.453 27.57 39.5274 27.5809 38.6027C27.5825 38.486 27.5778 38.3686 27.5833 38.2519C27.5958 37.9583 27.6553 37.8886 27.9513 37.8815C28.5354 37.8674 29.1204 37.8745 29.7045 37.8815C30.1375 37.8729 30.5713 37.8745 31.0043 37.88C31.5462 37.8768 32.0888 37.8729 32.6307 37.8768C32.7653 37.8776 32.9032 37.8667 33.0292 37.9301C33.1694 38.0475 33.1373 38.2128 33.1381 38.3639C33.142 39.2283 33.1396 40.092 33.1404 40.9565C33.1404 41.0442 33.1381 41.1311 33.1435 41.2188C33.1616 41.5218 33.272 41.6909 33.4849 41.7285C33.7433 41.7747 33.8851 41.6338 33.9735 41.4145C34.0417 41.2877 34.0268 41.1499 34.0268 41.0144C34.0276 40.0035 34.0346 38.9934 34.0221 37.9825C34.0182 37.6999 34.1161 37.5229 34.3745 37.4172C34.8623 37.2175 35.2671 36.8683 35.7424 36.6459C35.8473 36.6256 35.9342 36.6733 36.0133 36.7313C37.1691 37.5801 38.2332 38.5181 38.9583 39.7835C39.266 40.3199 39.4109 40.9009 39.4516 41.5124C39.4578 41.6111 39.45 41.7082 39.3858 41.7912L39.3866 41.792Z" fill="#FEC739"/>
<path d="M16.5294 34.4574C16.3078 33.8834 16.2224 33.2766 16.1316 32.6752C16.0267 31.9822 15.9985 31.2814 16 30.5783C16.0055 27.5762 16.8919 24.8559 18.5973 22.3972C19.3514 21.3104 20.2401 20.3441 21.2839 19.5251C22.1115 20.0356 22.6495 20.7529 22.8687 21.709C22.9948 22.2579 22.9024 22.795 22.8241 23.3361C22.6855 24.2945 22.7943 25.242 22.9548 26.1871C23.0747 26.8887 23.2422 27.5848 23.2649 28.2981C23.2892 29.0545 23.084 29.7436 22.5626 30.3175C21.8962 31.0512 21.0396 31.4928 20.1548 31.8922C18.9348 32.4426 17.8213 33.1513 16.8582 34.087C16.7384 34.2029 16.6515 34.3454 16.5286 34.4566L16.5294 34.4574Z" fill="#FE7185"/>
<path d="M39.4343 19.5275C40.2972 20.1922 41.0388 20.9784 41.7051 21.8342C43.1725 23.7198 44.1082 25.8472 44.5217 28.1971C44.7362 29.4186 44.7761 30.6527 44.6626 31.8922C44.5827 32.7629 44.4661 33.6242 44.1881 34.4566C43.1866 33.3079 41.9314 32.5194 40.5611 31.893C39.7061 31.5022 38.8714 31.0818 38.2144 30.3809C37.624 29.7514 37.404 29.0099 37.465 28.1556C37.5214 27.364 37.6968 26.5927 37.8268 25.8144C37.9983 24.7831 37.9701 23.7581 37.808 22.7292C37.6169 21.5202 38.3514 20.0897 39.4351 19.5275H39.4343Z" fill="#FE7185"/>
<path d="M16.5294 34.4574C16.5732 34.1175 16.8692 33.9664 17.0822 33.7722C17.9505 32.979 18.9403 32.3596 20.0083 31.8726C20.6919 31.5609 21.3598 31.2297 21.9643 30.7756C22.7466 30.1875 23.1937 29.417 23.1976 28.4406C23.1999 27.8228 23.0637 27.2097 22.9486 26.5989C22.781 25.7102 22.6385 24.8168 22.691 23.9085C22.7215 23.3768 22.8468 22.849 22.8507 22.3181C22.8578 21.2759 22.3723 20.4553 21.5759 19.8085C21.4695 19.7224 21.3606 19.6418 21.2862 19.5251C22.7873 18.3114 24.4496 17.4054 26.314 16.8832C26.3406 16.9967 26.2655 17.0687 26.1974 17.1345C25.2248 18.0765 24.8106 19.273 24.6407 20.5751C24.5099 21.5758 24.571 22.5734 24.7347 23.5671C24.755 23.6908 24.7965 23.8129 24.773 23.9421C24.7433 24.0306 24.6658 24.0776 24.6023 24.1371C24.3909 24.3321 24.3165 24.5732 24.369 24.8528C24.4144 25.0932 24.4864 25.3257 24.589 25.5481C24.6947 25.7791 24.7801 26.0171 24.8255 26.2685C24.9108 26.7414 25.1246 27.0922 25.6594 27.1329C25.6986 27.1361 25.7307 27.1619 25.7589 27.1901C25.8121 27.2755 25.8113 27.371 25.8145 27.4657C25.8458 28.1744 26.0525 28.8407 26.2991 29.4985C26.3908 29.742 26.5568 29.9573 26.5709 30.2298C26.4542 30.3778 26.2717 30.4036 26.1128 30.4678C25.5889 30.6793 25.0823 30.9204 24.6 31.2172C23.7723 31.7262 23.4654 32.5084 23.4082 33.4285C23.3894 33.7307 23.4317 34.029 23.4576 34.3289C23.4341 34.5349 23.2681 34.5787 23.1115 34.6359C22.1327 34.9914 21.1555 35.3492 20.1728 35.6945C19.2668 36.0132 18.5629 36.5833 18.0343 37.3796C17.978 37.4642 17.949 37.584 17.8135 37.5871C17.2396 36.6044 16.8206 35.5583 16.5325 34.4581L16.5294 34.4574Z" fill="#FE4155"/>
<path d="M39.4344 19.5274C39.277 19.7796 38.9998 19.9009 38.8009 20.1131C38.0813 20.8836 37.7289 21.7653 37.9106 22.8255C38.1455 24.1974 37.9889 25.5481 37.7148 26.8965C37.5762 27.5793 37.4604 28.2715 37.57 28.9699C37.6451 29.4491 37.8597 29.8743 38.1839 30.24C38.8338 30.9721 39.6787 31.4137 40.5517 31.8053C41.5697 32.261 42.5156 32.8248 43.3706 33.5436C43.6102 33.7448 43.8303 33.9633 44.0558 34.1778C44.138 34.2553 44.1951 34.3391 44.1865 34.4566C43.8968 35.5559 43.481 36.6044 42.9047 37.5863C42.7951 37.5879 42.7606 37.4971 42.7152 37.4258C42.1468 36.5324 41.3504 35.9545 40.3458 35.617C39.4023 35.2999 38.4705 34.9475 37.5347 34.6085C37.4423 34.5748 37.3499 34.5427 37.2951 34.4511C37.2356 34.318 37.2748 34.1849 37.2881 34.0494C37.368 33.2311 37.2622 32.4497 36.7556 31.7747C36.4949 31.4278 36.1245 31.1992 35.7463 30.9948C35.3258 30.7678 34.8913 30.572 34.4441 30.4036C34.3361 30.3629 34.2178 30.3355 34.145 30.2329C34.1043 30.1147 34.1818 30.0294 34.2265 29.9346C34.5984 29.1547 34.8427 28.3396 34.9053 27.4744C34.9069 27.3796 34.9077 27.2841 34.957 27.1979C35.0189 27.122 35.1105 27.1196 35.1958 27.1048C35.5325 27.0484 35.7502 26.837 35.8254 26.5245C35.9311 26.0861 36.0697 25.6617 36.249 25.2498C36.4659 24.7502 36.361 24.3227 35.9859 23.946C35.9616 23.679 36.0462 23.4261 36.0885 23.1677C36.3258 21.7199 36.361 20.2815 35.8857 18.8674C35.7142 18.3576 35.4879 17.8737 35.163 17.4399C35.0894 17.3412 34.993 17.2449 35.0353 17.1001C35.7823 17.2911 36.4659 17.6341 37.1409 17.9911C37.9576 18.4234 38.7226 18.937 39.4351 19.5259L39.4344 19.5274Z" fill="#FE4155"/>
<path d="M27.0187 41.8515C27.097 41.9548 26.9944 42.0135 26.9529 42.077C26.4651 42.8138 26.4064 43.5819 26.7697 44.3853C26.7916 44.4331 26.8417 44.4848 26.7744 44.538C24.7558 44.0267 22.9399 43.1129 21.33 41.7912C21.1773 41.4412 21.3034 41.0935 21.3762 40.7615C21.5399 40.0106 21.9627 39.3881 22.438 38.7969C23.0801 37.999 23.8678 37.3624 24.6775 36.7485C24.7393 36.7015 24.8059 36.6584 24.8842 36.6412C24.9139 36.6365 24.9445 36.6381 24.9742 36.6444C25.4957 36.9443 25.9937 37.2856 26.5426 37.5386C26.6061 37.5675 26.6499 37.6208 26.671 37.6905C26.7282 38.0483 26.6945 38.4077 26.6977 38.7663C26.7039 39.3975 26.7102 40.0286 26.6961 40.6597C26.6867 41.0935 26.693 41.5132 27.0203 41.8515H27.0187Z" fill="#FEB232"/>
<path d="M24.737 23.9586C24.4904 22.878 24.4363 21.7865 24.5467 20.6848C24.6438 19.7138 24.9226 18.8039 25.4222 17.9606C25.6633 17.5534 25.993 17.2238 26.3117 16.8832C26.8637 16.4361 27.5019 16.1589 28.1721 15.9443C28.2825 15.9091 28.3906 15.8668 28.4987 15.8237C28.7085 15.7392 28.7899 15.6037 28.6639 15.3907C28.5402 15.1809 28.5895 15.0767 28.8416 15.0423C29.3083 14.9781 29.775 15.0031 30.2417 15.0094C30.4899 15.0031 30.659 15.1394 30.8047 15.3187C31.0568 15.6303 31.2823 15.9522 31.3802 16.3538C31.4593 16.6788 31.3825 16.9489 31.1703 17.1909C31.0544 17.3224 30.9315 17.4477 30.8007 17.5636C30.4319 17.8901 30.2667 18.2918 30.3153 18.7851C30.3262 18.8963 30.3662 19.0169 30.2918 19.1258C29.9488 19.3105 29.5651 19.2275 29.2026 19.2878C28.573 19.3935 27.9599 19.5408 27.3985 19.8524C26.5677 20.3128 26.0658 20.9854 26.1073 21.9728C26.1284 22.4841 26.0642 22.9634 25.7722 23.3956C25.6359 23.5976 25.6625 23.8732 25.4801 24.0557C25.2264 24.0713 24.9711 24.1011 24.7386 23.9586H24.737Z" fill="#753616"/>
<path d="M37.321 34.4534C38.3921 34.8395 39.4602 35.2373 40.5368 35.6084C41.5822 35.9686 42.3535 36.642 42.9055 37.5863C42.0199 39.2283 40.8383 40.6229 39.3866 41.7912C39.4054 40.5477 38.8463 39.5595 38.0539 38.6528C37.3891 37.8925 36.6194 37.2622 35.805 36.678C35.7784 36.5676 35.8669 36.523 35.9303 36.4697C36.5105 35.9843 36.9255 35.3876 37.1573 34.6641C37.1847 34.5795 37.1894 34.4636 37.321 34.4534Z" fill="#FEDC40"/>
<path d="M24.9092 36.6796C23.8443 37.4383 22.8577 38.2777 22.1021 39.3614C21.5923 40.0928 21.323 40.8969 21.3293 41.7912C20.5032 41.1467 19.7804 40.3982 19.1297 39.5799C18.6317 38.9543 18.1721 38.302 17.8088 37.5863C18.3397 36.6819 19.0741 36.0124 20.0686 35.6499C20.8461 35.3664 21.6252 35.0893 22.4036 34.8089C22.669 34.7134 22.9337 34.6155 23.2007 34.5231C23.2962 34.4902 23.3886 34.4628 23.3996 34.3407C23.4779 34.3391 23.4943 34.401 23.5068 34.4558C23.7002 35.274 24.156 35.9247 24.7769 36.4744C24.8372 36.5277 24.9335 36.5684 24.9092 36.6804V36.6796Z" fill="#FEC739"/>
<path d="M30.298 19.0976C30.1626 18.5596 30.2025 18.0601 30.6167 17.6427C30.7263 17.5323 30.8321 17.4172 30.9479 17.3138C31.4608 16.8565 31.4342 16.5457 31.1648 15.9952C30.9652 15.5857 30.7271 15.1707 30.2417 15.0102C32.0191 15.1151 33.6415 15.588 34.8881 16.9599C34.9335 17.01 34.9852 17.0547 35.0345 17.1016C35.5404 17.7899 35.9241 18.5361 36.1214 19.3732C36.3845 20.4851 36.3978 21.6032 36.2302 22.7284C36.1691 23.1403 36.0995 23.5506 36.0337 23.9625C35.7839 24.1058 35.5106 24.0619 35.2428 24.0588C35.0048 23.4543 34.5702 22.9211 34.6101 22.2148C34.6391 21.6988 34.6297 21.1867 34.3463 20.7145C33.9493 20.0521 33.344 19.7005 32.6299 19.4922C32.0371 19.3199 31.4295 19.2456 30.8148 19.2166C30.6504 19.1422 30.446 19.2448 30.2988 19.0983L30.298 19.0976Z" fill="#935230"/>
<path d="M37.321 34.4534C37.2317 34.6782 37.1432 34.9029 37.0516 35.1261C36.7909 35.7681 36.3163 36.238 35.8042 36.678C35.2921 36.9959 34.7934 37.3381 34.2382 37.5801C34.0816 37.6482 34.1059 37.7758 34.1059 37.9003C34.1059 38.9731 34.1059 40.0458 34.1043 41.1185C34.1043 41.2227 34.1364 41.3347 34.0581 41.4286C33.925 41.3049 33.9626 41.1397 33.9626 40.9893C33.9587 39.861 33.961 38.7327 33.9602 37.6035C33.9602 37.4963 33.9649 37.389 33.9532 37.2825C33.9273 37.0492 33.7707 36.8745 33.5797 36.8612C33.373 36.8479 33.2015 37.01 33.1568 37.2637C33.1349 37.389 33.1443 37.5158 33.1388 37.6419C33.1334 37.757 33.1474 37.8784 33.0496 37.9684C32.3683 37.9669 31.6871 37.9653 31.0059 37.9637C30.9886 37.8416 31.0881 37.7946 31.1601 37.7374C32.4717 36.6999 33.1435 35.3249 33.333 33.6814C33.4246 32.8905 33.3706 32.1083 33.2853 31.3245C33.5531 30.9377 33.7927 30.5281 34.1654 30.2259C34.8678 30.4671 35.5443 30.7591 36.1762 31.1561C37.0085 31.68 37.3178 32.4732 37.3867 33.4026C37.4134 33.7558 37.3445 34.1019 37.3186 34.4511L37.321 34.4534Z" fill="#FDE67E"/>
<path d="M33.344 31.2893C33.5585 32.5303 33.5194 33.7636 33.1576 34.9702C32.7951 36.1777 32.0912 37.1588 31.0701 37.9074C31.0474 37.9246 31.0278 37.9465 31.0075 37.9661C30.5752 37.9661 30.1422 37.9661 29.71 37.9661C29.1846 37.7469 28.8596 37.3013 28.4994 36.8957C28.4548 36.8456 28.4438 36.7712 28.4822 36.7023C29.7084 35.8386 30.0044 34.5177 30.2158 33.1591C30.2738 32.7856 30.2565 32.7825 30.6386 32.7057C30.7514 32.6783 30.8689 32.676 30.9785 32.6345C31.7623 32.4192 32.4185 31.9791 33.0371 31.4701C33.1294 31.3942 33.1913 31.2611 33.3456 31.29L33.344 31.2893Z" fill="#FEA97B"/>
<path d="M28.4798 36.7422C28.8056 37.2347 29.2582 37.5996 29.7092 37.9653C29.1149 37.9669 28.5206 37.9755 27.927 37.9653C27.7242 37.9614 27.6592 38.0225 27.6608 38.2284C27.6702 39.2119 27.6663 40.1961 27.6631 41.1804C27.6631 41.2838 27.6968 41.3965 27.6122 41.4873C27.4807 41.3621 27.5183 41.1976 27.5183 41.0465C27.5144 39.8978 27.5167 38.7483 27.5159 37.5996C27.5159 37.5025 27.5191 37.4047 27.5128 37.3076C27.4964 37.0398 27.382 36.8926 27.1745 36.8667C26.9717 36.8417 26.7862 36.9951 26.7188 37.2379C26.6836 37.3663 26.718 37.5151 26.6061 37.6216C26.0094 37.3937 25.4746 37.0593 24.9633 36.6819C24.8936 36.5762 24.9006 36.4642 24.9249 36.346C25.0815 35.5779 25.7361 35.0094 26.5215 34.9632C26.8832 34.942 27.238 34.982 27.5833 35.0924C27.6608 35.1229 27.7109 35.1824 27.7383 35.2584C27.9114 35.7384 28.1447 36.1878 28.4376 36.606C28.4657 36.6467 28.4798 36.6937 28.4791 36.7438L28.4798 36.7422Z" fill="#FDE67F"/>
<path d="M33.0504 37.97C33.0527 37.7461 33.0488 37.5221 33.0597 37.299C33.0762 36.9693 33.3001 36.7399 33.5844 36.7485C33.842 36.7563 34.0534 37.0038 34.0542 37.3123C34.0573 38.6849 34.0573 40.0568 34.0589 41.4294C33.9438 41.7645 33.7809 41.8828 33.4888 41.8444C33.2218 41.8092 33.0637 41.6064 33.0621 41.2744C33.0558 40.1734 33.0543 39.0717 33.0504 37.9708V37.97Z" fill="#DDEDFE"/>
<path d="M26.6061 37.6208C26.61 37.5143 26.6108 37.407 26.6186 37.3005C26.6405 36.9771 26.8723 36.7375 27.1495 36.7485C27.4314 36.7602 27.613 36.9716 27.613 37.3107C27.6146 38.7029 27.613 40.0951 27.613 41.4873C27.5207 41.781 27.3022 41.8695 27.0187 41.8515C26.7126 41.7457 26.6225 41.5108 26.6233 41.2109C26.6264 40.1304 26.6249 39.0506 26.6233 37.97C26.6233 37.8533 26.6123 37.7374 26.6061 37.6208Z" fill="#DDEDFD"/>
<path d="M30.298 19.0976C30.475 19.1398 30.6629 19.0678 30.836 19.1508C30.7937 19.215 30.7256 19.2377 30.6582 19.2338C30.0514 19.1939 29.7562 19.6331 29.4633 20.0395C29.1963 20.4099 29.0773 20.85 29.0961 21.3104C29.1204 21.8929 29.0515 22.4379 28.7633 22.9712C28.5174 23.4277 28.4658 23.95 28.5425 24.4793C28.6318 25.0955 28.6936 25.7157 28.7837 26.3327C28.8119 26.5253 28.8158 26.7211 28.7711 26.9137C28.7555 26.9591 28.7289 26.9983 28.6944 27.0304C27.9482 27.3365 27.4792 27.8831 27.281 28.6638C27.2341 28.8478 27.1331 28.9088 26.9608 28.8188C26.3923 28.522 25.9209 28.136 25.7377 27.4853C25.7338 27.3874 25.7299 27.2903 25.7267 27.1925C25.704 27.1611 25.6743 27.129 25.6704 27.0914C25.5686 26.1871 25.3548 25.2952 25.3509 24.3798C25.3509 24.2436 25.3532 24.1042 25.4934 24.0212C25.5279 23.7049 25.6508 23.4206 25.8097 23.1497C25.9397 22.9273 26.0219 22.6948 26.0235 22.4309C26.0376 20.6143 26.7251 19.7655 28.5065 19.3395C29.0969 19.1986 29.6998 19.1727 30.298 19.0968V19.0976Z" fill="#FEA97B"/>
<path d="M27.6044 35.1558C27.1565 35.0767 26.7141 34.9695 26.2529 35.0861C25.4895 35.2788 24.9962 35.8793 24.9641 36.6812C24.946 36.6812 24.928 36.6812 24.91 36.6796C24.1489 36.0665 23.6086 35.3101 23.4011 34.3399C23.286 33.809 23.3087 33.282 23.4207 32.7527C23.6016 31.893 24.1544 31.3425 24.8944 30.9424C25.4245 30.6558 25.9773 30.4201 26.5489 30.2283C26.5583 30.2267 26.5732 30.2212 26.5771 30.2251C26.9052 30.5704 27.2098 30.9345 27.4337 31.3589C27.3429 32.1608 27.2912 32.9626 27.3961 33.7683C27.4415 34.1168 27.5198 34.4558 27.6068 34.7941C27.6373 34.9131 27.7007 35.0345 27.6052 35.1543L27.6044 35.1558Z" fill="#FEDC40"/>
<path d="M27.3719 31.2932C27.0649 30.9627 26.8034 30.5978 26.5473 30.229C26.1566 29.4726 25.8771 28.6794 25.7627 27.833C25.7471 27.7179 25.7455 27.6012 25.7369 27.4853C26.0211 27.9935 26.368 28.439 26.8997 28.717C27.0915 28.8172 27.1722 28.836 27.2427 28.5784C27.4478 27.8283 27.8589 27.2394 28.6545 27.0092C28.7296 26.9897 28.7445 27.0476 28.7281 27.0899C28.5213 27.6317 28.6592 28.1156 28.9724 28.5706C28.9222 28.7303 28.7602 28.7577 28.6482 28.8439C28.5636 28.9088 28.4775 28.9715 28.4 29.0451C27.974 29.4484 27.9732 29.6316 28.4274 30.0231C28.7844 30.3308 29.183 30.5368 29.6787 30.4256C29.717 30.417 29.7562 30.4256 29.7938 30.4365C29.9237 30.5156 29.8838 30.6354 29.8705 30.7497C29.7851 31.4826 30.0952 32.084 30.742 32.4528C30.8438 32.5108 30.9902 32.5303 30.9996 32.6924C30.8931 32.7707 30.7639 32.7386 30.6473 32.7676C29.551 33.0189 28.7414 32.409 27.92 31.8483C27.7054 31.7019 27.4831 31.5484 27.3711 31.2939L27.3719 31.2932Z" fill="#753616"/>
<path d="M25.4934 24.0212C25.3603 24.4949 25.4668 24.9632 25.5247 25.4338C25.5968 26.0195 25.7299 26.5982 25.7267 27.1925C25.1559 27.1776 24.8967 26.9865 24.7863 26.4118C24.6869 25.8926 24.4081 25.4393 24.3001 24.9256C24.2069 24.4848 24.333 24.1841 24.737 23.9586C24.993 23.928 25.242 23.9883 25.4934 24.0212Z" fill="#FB9360"/>
<path d="M28.7179 26.9536C28.739 26.2505 28.5989 25.563 28.4963 24.8739C28.3773 24.0721 28.4227 23.3079 28.844 22.5938C28.9653 22.3886 29.017 22.167 29.0139 21.9243C29.0068 21.3715 28.9778 20.8194 29.2253 20.2909C29.4312 19.8508 29.7483 19.5251 30.1258 19.2424C30.3442 19.0788 30.6026 19.2088 30.8352 19.1516C31.7098 19.1704 32.5688 19.2847 33.355 19.6942C34.2648 20.168 34.7581 20.9142 34.6986 21.9642C34.6704 22.4544 34.7205 22.9109 35.0001 23.3337C35.1332 23.535 35.1966 23.7777 35.224 24.0228C35.3736 24.1144 35.3642 24.2671 35.3658 24.4112C35.3744 25.0352 35.2428 25.6444 35.1583 26.2583C35.1152 26.5715 35.134 26.8981 34.9907 27.1948L34.9766 27.4783C34.8278 28.0828 34.3964 28.4477 33.8937 28.7499C33.7222 28.8533 33.5993 28.8016 33.5358 28.6082C33.5022 28.5064 33.4716 28.4038 33.4286 28.3059C33.1694 27.7061 32.7669 27.259 32.1209 27.0641C31.767 26.9576 31.4099 26.862 31.056 26.7555C30.879 26.7023 30.7091 26.696 30.5674 26.8401C30.4648 26.9443 30.3677 26.9435 30.2667 26.8393C30.125 26.6929 29.9574 26.7007 29.7797 26.7548C29.5377 26.8284 29.295 26.8988 29.0499 26.963C28.9418 26.9912 28.8259 27.0523 28.7179 26.9568V26.9536Z" fill="#FEC6AA"/>
<path d="M28.7179 26.9536C29.0773 26.9114 29.4109 26.772 29.7546 26.6733C29.9739 26.6107 30.1821 26.5958 30.3348 26.8002C30.4116 26.9035 30.4491 26.8581 30.5063 26.7884C30.6496 26.6138 30.8344 26.6036 31.0356 26.6631C31.4452 26.7853 31.8602 26.8894 32.2634 27.0296C32.9658 27.2731 33.3683 27.8111 33.5664 28.4962C33.6478 28.7781 33.7378 28.7687 33.9453 28.6411C34.4081 28.3553 34.7245 27.9465 34.9758 27.4767C34.9249 28.3975 34.6571 29.2565 34.2359 30.0716C34.21 30.1225 34.1897 30.1766 34.1669 30.2283C33.9078 30.5939 33.6517 30.9619 33.3432 31.2892C32.8319 31.7724 32.2579 32.1647 31.626 32.4747C31.4256 32.5734 31.2236 32.6642 30.9988 32.6924C30.7459 32.5178 30.4664 32.391 30.2463 32.1584C29.8462 31.7356 29.71 31.2524 29.8086 30.6918C29.8243 30.6025 29.8478 30.5195 29.7562 30.4577C29.7515 30.3927 29.7851 30.3473 29.829 30.3058C29.9746 30.1969 30.0678 30.0529 30.1234 29.8798C30.1696 29.7349 30.2362 29.5995 30.4163 29.5987C30.5854 29.5979 30.6371 29.7302 30.6911 29.8602C30.9315 30.4412 31.377 30.608 31.9416 30.3261C32.2376 30.1789 32.4686 29.962 32.6299 29.67C32.7317 29.4852 32.7246 29.3356 32.5672 29.172C32.2313 28.8235 31.8281 28.5886 31.3661 28.4805C30.9636 28.3866 30.63 28.2284 30.4398 27.8103C30.2706 27.981 30.1829 28.183 29.9958 28.2957C29.8227 28.3991 29.6301 28.4265 29.4437 28.4805C29.331 28.5134 29.2221 28.5557 29.111 28.5933C29.0554 28.6074 28.999 28.6317 28.9481 28.5823C28.5339 28.1423 28.436 27.6458 28.6748 27.086C28.6826 27.0672 28.6623 27.0351 28.6552 27.0092C28.6764 26.9904 28.6967 26.9724 28.7179 26.9536Z" fill="#935230"/>
<path d="M34.9915 27.1932C34.9852 26.5989 35.1262 26.0211 35.1896 25.4346C35.2405 24.9648 35.3611 24.4965 35.2248 24.022C35.4926 23.975 35.7612 23.9374 36.0337 23.9617C36.4048 24.2209 36.5223 24.5623 36.3986 25.0016C36.2435 25.5505 35.9984 26.068 35.8669 26.6279C35.7698 27.039 35.4237 27.2214 34.9915 27.1932Z" fill="#FEA97B"/>
<path d="M27.3719 31.2932C27.7767 31.658 28.2097 31.9822 28.6787 32.2641C29.2887 32.6306 29.9331 32.8271 30.6472 32.7668C30.1132 32.784 30.3058 33.2335 30.2534 33.4927C30.0741 34.3712 29.8611 35.2286 29.338 35.978C29.1125 36.3014 28.8345 36.5653 28.479 36.743C28.1283 36.357 27.9145 35.8926 27.7195 35.4173C27.6835 35.3289 27.6428 35.2435 27.6036 35.1558C27.505 34.6523 27.3468 34.1653 27.2967 33.6469C27.2199 32.8553 27.2481 32.0746 27.3719 31.2932Z" fill="#FB9360"/>
<path d="M28.9481 28.5816C28.988 28.5675 29.028 28.5541 29.0679 28.5401C29.2997 29.0968 29.4986 29.6692 29.8345 30.1781C29.8736 30.2377 29.8822 30.3058 29.836 30.3708C29.8094 30.3997 29.7836 30.4279 29.757 30.4569C29.1376 30.7599 28.2316 30.1335 27.9818 29.5337C27.9333 29.417 27.9912 29.3497 28.0554 29.2761C28.3076 28.9864 28.6028 28.7523 28.9481 28.5823V28.5816Z" fill="#FEA97A"/>
<path d="M29.836 30.3707C29.6043 29.8821 29.2958 29.4311 29.1313 28.9088C29.093 28.7859 29.0609 28.6685 29.0679 28.5408C29.1673 28.5025 29.2644 28.4429 29.367 28.4281C29.8509 28.3568 30.2393 28.1634 30.3779 27.649C30.4993 27.6999 30.5001 27.7876 30.5345 27.8525C30.6794 28.1274 30.8916 28.302 31.2048 28.3639C31.7748 28.475 32.2619 28.7413 32.6729 29.1578C32.8162 29.3027 32.828 29.428 32.7512 29.5971C32.5304 30.0857 32.1468 30.3864 31.6417 30.5164C31.1836 30.6346 30.7733 30.37 30.6269 29.9033C30.5901 29.7866 30.5909 29.6371 30.4108 29.6402C30.2377 29.6425 30.2244 29.7835 30.19 29.9041C30.1328 30.1069 30.0467 30.287 29.8345 30.3723L29.836 30.3707Z" fill="#FEC6AA"/>
</g>
<defs>
<clipPath id="clip0_179_1242">
<rect width="28.7237" height="30" fill="white" transform="translate(16 15)"/>
</clipPath>
</defs>
</svg>
