<svg width="37" height="36" viewBox="0 0 37 36" fill="none" xmlns="http://www.w3.org/2000/svg">
<path d="M0.5 9.6C0.5 5.07452 0.5 2.81177 1.90589 1.40589C3.31177 0 5.57452 0 10.1 0H26.9C31.4255 0 33.6882 0 35.0941 1.40589C36.5 2.81177 36.5 5.07452 36.5 9.6V26.4C36.5 30.9255 36.5 33.1882 35.0941 34.5941C33.6882 36 31.4255 36 26.9 36H10.1C5.57452 36 3.31177 36 1.90589 34.5941C0.5 33.1882 0.5 30.9255 0.5 26.4V9.6Z" fill="#212121"/>
<g clip-path="url(#clip0_200_3473)">
<path d="M25.3591 18.132C25.3586 20.2097 25.3581 22.2874 25.3577 24.3651C25.3577 25.0825 24.966 25.4736 24.2463 25.4736C19.5976 25.4736 14.9488 25.4736 10.3001 25.4736C9.75923 25.4736 9.38596 25.218 9.25557 24.7582C9.23486 24.6857 9.22356 24.6085 9.22356 24.5332C9.22262 22.4201 9.22356 20.3071 9.22356 18.1941C9.31206 18.1117 9.42267 18.1357 9.52529 18.1357C10.7746 18.1338 12.0243 18.1348 13.2736 18.1343C15.8545 18.1343 18.4354 18.1343 21.0163 18.1343C21.1688 18.1343 21.3213 18.1343 21.4734 18.1433C21.583 18.1437 21.6753 18.1974 21.769 18.2449C22.2754 18.4996 22.8191 18.6276 23.3783 18.6257C23.9973 18.6239 24.5984 18.4921 25.1505 18.1889C25.2141 18.1541 25.2729 18.0905 25.3586 18.132H25.3591Z" fill="#FEDC40"/>
<path d="M19.5797 14.8577C19.5896 13.7732 19.9883 12.8516 20.7669 12.1031C21.3788 11.5148 22.1117 11.1702 22.9618 11.0728C23.9696 10.957 24.8701 11.2159 25.6816 11.8122C25.6952 11.8221 25.7042 11.8386 25.715 11.8518C25.8727 12.0829 26.0327 12.3112 26.1598 12.5635C26.4291 13.0987 26.5703 13.6701 26.5599 14.259C26.5392 15.4372 26.084 16.4294 25.1779 17.2024C24.638 17.6632 24.0181 17.9574 23.3191 18.0614C22.4355 18.1927 21.5901 18.0647 20.8055 17.6175C20.7749 17.6001 20.7466 17.5789 20.7127 17.5676C20.3912 17.3516 20.2011 17.0273 20.0104 16.7058C19.9031 16.5245 19.8226 16.3292 19.7468 16.1324C19.631 15.7888 19.5496 15.4386 19.5364 15.0752C19.5336 15.0013 19.5237 14.9222 19.5797 14.8587V14.8577Z" fill="#FE7185"/>
<path d="M19.7933 16.1488C19.9547 16.5188 20.1303 16.8799 20.3859 17.1971C20.4814 17.3157 20.5803 17.4306 20.6984 17.5276C20.9663 17.7191 21.212 17.9394 21.4906 18.1164C21.5151 18.132 21.5321 18.1569 21.5274 18.1894C20.577 18.1903 19.6266 18.1917 18.6758 18.1922C15.5253 18.1931 12.3744 18.1936 9.22391 18.1941C9.18202 18.0566 9.20743 17.9159 9.20649 17.7766C9.20273 17.2903 9.20461 16.8045 9.20555 16.3183C9.20555 16.2613 9.18955 16.2011 9.22391 16.147C9.29922 16.0877 9.38866 16.0919 9.47621 16.0919C12.8314 16.091 16.1867 16.091 19.5419 16.0919C19.629 16.0919 19.7198 16.0834 19.7933 16.1479V16.1488Z" fill="#E5C63A"/>
<path d="M19.7935 16.1489C16.2702 16.1489 12.7474 16.148 9.2241 16.1475C9.22081 15.9658 9.20198 15.7822 9.24387 15.6038C9.34602 15.1745 9.71129 14.886 10.1768 14.8577C10.2004 14.8563 10.2239 14.8563 10.2474 14.8563C13.3579 14.8563 16.4688 14.8573 19.5793 14.8577C19.5699 15.3016 19.6701 15.7271 19.793 16.1489H19.7935Z" fill="#FEDC40"/>
<path d="M21.5274 18.1898C21.2365 17.9874 20.9291 17.8057 20.6985 17.5275C20.8152 17.536 20.8971 17.6207 20.996 17.6673C22.04 18.1616 23.1052 18.2181 24.1672 17.7629C25.4357 17.2192 26.2049 16.2462 26.4501 14.8873C26.6422 13.8221 26.3771 12.8524 25.7497 11.9769C25.7238 11.9411 25.6461 11.9152 25.7149 11.8517C26.5113 12.4613 26.9815 13.2681 27.1562 14.2509C27.1783 14.3771 27.1858 14.5056 27.2 14.6331C27.2 14.7875 27.1995 14.9419 27.199 15.0958C27.0973 16.3352 26.5344 17.3091 25.5172 18.0218C25.4644 18.0585 25.4117 18.0952 25.359 18.1324C24.9269 18.3715 24.4755 18.5494 23.9826 18.6238C23.1707 18.7471 22.4025 18.6196 21.6705 18.2543C21.6239 18.2308 21.5754 18.2115 21.5274 18.1903V18.1898Z" fill="#FE4155"/>
<path d="M15.0246 21.4001C13.9626 21.4001 12.9007 21.4006 11.8388 21.4001C11.4999 21.4001 11.3874 21.2923 11.3657 20.9567C11.3483 20.6814 11.3516 20.406 11.3671 20.1302C11.3822 19.86 11.506 19.7352 11.7771 19.7348C12.6456 19.7324 13.514 19.7338 14.382 19.7338C15.6492 19.7338 16.9168 19.7338 18.184 19.7338C18.5497 19.7338 18.6688 19.8538 18.6693 20.2172C18.6693 20.4695 18.6712 20.7218 18.6688 20.9741C18.6664 21.2523 18.5234 21.3987 18.2456 21.3992C17.1719 21.4011 16.0982 21.3997 15.0246 21.4001Z" fill="#E8EAEE"/>
<path d="M12.5468 23.0494C12.9154 23.0494 13.2844 23.0494 13.653 23.0494C13.7424 23.0494 13.8318 23.0442 13.8445 23.1728C13.8568 23.2984 13.7819 23.3384 13.6817 23.3568C13.636 23.3653 13.5885 23.3657 13.5419 23.3657C12.8744 23.3662 12.2069 23.3667 11.5399 23.3653C11.4764 23.3653 11.4124 23.3544 11.3498 23.3432C11.2589 23.3262 11.194 23.2754 11.2076 23.1765C11.2208 23.0786 11.2947 23.0485 11.3874 23.049C11.7739 23.0504 12.1603 23.0494 12.5463 23.0494H12.5468Z" fill="#FE4155"/>
<path d="M15.363 23.3663C15.1243 23.3663 14.9313 23.3659 14.7379 23.3663C14.6734 23.3663 14.6108 23.3588 14.5477 23.3414C14.4521 23.315 14.4375 23.2496 14.4432 23.1663C14.4493 23.0745 14.5086 23.0495 14.5872 23.0495C15.0791 23.0495 15.5705 23.0495 16.0624 23.0491C16.1425 23.0491 16.1994 23.0735 16.2065 23.1649C16.214 23.2571 16.1933 23.3254 16.0879 23.3452C15.8318 23.3922 15.5743 23.3503 15.3634 23.3663H15.363Z" fill="#FE4155"/>
<path d="M17.9422 23.0495C18.1761 23.0495 18.4105 23.0505 18.6445 23.0491C18.7358 23.0486 18.8064 23.0655 18.813 23.178C18.8186 23.2778 18.7763 23.3338 18.6788 23.3484C18.627 23.356 18.5748 23.3654 18.523 23.3654C18.1248 23.3668 17.727 23.3668 17.3288 23.3654C17.277 23.3654 17.2248 23.3536 17.1735 23.3461C17.0713 23.331 17.0403 23.2665 17.0473 23.1705C17.0549 23.0684 17.1194 23.0486 17.2046 23.0486C17.4503 23.0495 17.6965 23.0486 17.9422 23.0486V23.0495Z" fill="#FE4155"/>
<path d="M23.0639 16.5042C22.8572 16.5132 22.7033 16.4284 22.5691 16.2938C22.1841 15.9074 21.8085 15.511 21.4093 15.1396C20.94 14.7028 21.2403 14.1483 21.6451 13.9657C21.9064 13.848 22.137 13.8979 22.3375 14.0937C22.5432 14.2942 22.7499 14.4943 22.9457 14.7047C23.0333 14.7984 23.0799 14.7857 23.1632 14.7005C23.5816 14.2731 24.0067 13.8518 24.4308 13.43C24.7259 13.1363 25.0874 13.1419 25.392 13.4427C25.7069 13.7529 25.7182 14.1107 25.4155 14.4157C24.7956 15.0399 24.1724 15.6612 23.5496 16.2821C23.4131 16.4186 23.2578 16.5188 23.0639 16.5047V16.5042Z" fill="#E8EAEE"/>
</g>
<defs>
<clipPath id="clip0_200_3473">
<rect width="18" height="14.4282" fill="white" transform="translate(9.19995 11.0459)"/>
</clipPath>
</defs>
</svg>
